<?xml version="1.0" standalone="no"?>
<!DOCTYPE svg PUBLIC "-//W3C//DTD SVG 1.1//EN" "http://www.w3.org/Graphics/SVG/1.1/DTD/svg11.dtd" >
<svg xmlns="http://www.w3.org/2000/svg" xmlns:xlink="http://www.w3.org/1999/xlink" version="1.1">
<metadata></metadata>
<defs>
<font id="universcondensedlightoblique" horiz-adv-x="909" >
<font-face units-per-em="2048" ascent="1638" descent="-410" />
<missing-glyph horiz-adv-x="454" />
<glyph horiz-adv-x="0" />
<glyph unicode="&#xd;" horiz-adv-x="681" />
<glyph unicode=" "  horiz-adv-x="454" />
<glyph unicode="&#x09;" horiz-adv-x="454" />
<glyph unicode="&#xa0;" horiz-adv-x="454" />
<glyph unicode="!" horiz-adv-x="681" d="M264 0l33 156h152l-33 -156h-152zM360 348l222 1131h143l-258 -1131h-107z" />
<glyph unicode="&#x22;" horiz-adv-x="632" d="M373 1055l90 424h106l-90 -424h-106zM600 1055l90 424h107l-90 -424h-107z" />
<glyph unicode="#" d="M66 0l245 477h-225l55 98h219l129 252h-223l56 99h215l254 501h106l-254 -501h158l252 501h106l-252 -501h215l-53 -99h-209l-129 -252h211l-53 -98h-205l-242 -477h-112l245 477h-157l-246 -477h-106zM465 575h158l131 252h-156z" />
<glyph unicode="$" d="M162 393h131q-37 -141 -7.5 -217t148.5 -88l127 594q-37 25 -52 35t-49 34.5t-48.5 41t-38 43t-31.5 53t-17.5 60.5t-7.5 73t13 84q33 158 138 243t255 101l29 129h82l-29 -129q176 -6 234.5 -102.5t11.5 -288.5h-131q16 84 15 144.5t-38 95t-115 40.5l-118 -557 q6 -4 18 -10q39 -25 58.5 -38t53 -38.5t51 -47t38 -54.5t28 -65.5t8.5 -77.5t-10 -97q-75 -354 -415 -377l-35 -159h-82l35 159q-174 10 -234.5 109.5t-15.5 306.5zM463 1120q-20 -102 14.5 -169t114.5 -124l108 512q-195 -25 -237 -219zM516 88q106 8 167.5 61.5 t86.5 169.5q25 111 -13 183t-124 133z" />
<glyph unicode="%" horiz-adv-x="1593" d="M362.5 928.5q2.5 58.5 18.5 136.5q16 80 38.5 140.5t61.5 119.5t101.5 92t144.5 33q76 0 123 -28.5t64.5 -78t20.5 -112t-15 -129.5q-12 -63 -27.5 -113.5t-44.5 -106t-64.5 -92t-91 -61t-123.5 -24.5q-80 0 -128 28.5t-64.5 82.5t-14 112.5zM414 -80l952 1559h94 l-952 -1559h-94zM471 935q0 -42 11.5 -67.5t38 -45t70.5 -19.5t79 19.5t56.5 45t38.5 67.5t26.5 71.5t17.5 70.5q57 274 -102.5 274.5t-217.5 -274.5q-8 -41 -13 -70.5t-5 -71.5zM962 201.5q1 58.5 17 136.5q16 80 38.5 140.5t61.5 119.5t102.5 92t145.5 33q74 0 122 -28.5 t65.5 -78t19.5 -112t-14 -129.5q-14 -63 -29.5 -113.5t-43.5 -106t-63.5 -92t-91 -61.5t-123.5 -25q-80 0 -129 29t-64 83t-14 112.5zM1071 208q0 -42 10.5 -67.5t38 -45t70.5 -19.5t79 19.5t57.5 45t38.5 67.5t25.5 71.5t16.5 70.5q59 274 -100.5 274.5t-219.5 -274.5 q-8 -41 -12 -70.5t-4 -71.5z" />
<glyph unicode="&#x26;" horiz-adv-x="1251" d="M192.5 188.5q-12.5 79.5 8.5 198.5q10 49 26.5 90t29.5 71t45 63.5t48.5 51t63.5 51.5t66.5 46t80.5 53q-8 16 -34.5 57t-35 56.5t-24.5 51.5t-20.5 61.5t-4.5 63.5t11 79q35 168 135 246.5t272 78.5q147 0 210 -70.5t26 -242.5q-8 -37 -22.5 -70.5t-27 -58.5t-40 -54.5 t-42 -46t-53.5 -46t-52 -40t-60 -43t-60 -40.5l260 -422q39 76 84 217t66 239h123q-74 -348 -207 -569l158 -260h-168l-80 147q-106 -102 -215 -139t-256 -37q-78 0 -139.5 20.5t-110.5 69t-61.5 128zM332 389q-33 -154 32.5 -230.5t219.5 -76.5q90 0 181 45t148 123 l-292 475q-72 -45 -109 -70.5t-79 -66.5t-64.5 -88t-36.5 -111zM579 1128.5q-1 -16.5 3 -36t6 -30.5t10 -31.5t11 -29t16.5 -30t16.5 -27.5t19.5 -30.5t20.5 -30.5q121 78 191.5 147.5t93.5 171.5q41 195 -140 195q-92 0 -155.5 -49.5t-83.5 -139.5q-4 -23 -6 -43t-3 -36.5z " />
<glyph unicode="'" horiz-adv-x="405" d="M373 1055l90 424h106l-90 -424h-106z" />
<glyph unicode="(" horiz-adv-x="454" d="M147 160q0 237 43 442q88 410 373 920h92q-252 -541 -325 -889q-90 -424 -56 -903h-100q-27 193 -27 430z" />
<glyph unicode=")" horiz-adv-x="454" d="M66 -270q240 479 329 903q74 348 51 889h93q68 -510 -21 -920q-43 -205 -131 -413.5t-221 -458.5h-100z" />
<glyph unicode="*" d="M360 1135l23 108l274 -22l-110 229l104 57l70 -258l176 258l80 -57l-205 -229l283 22l-23 -108l-272 28l112 -233l-112 -60l-66 260l-176 -260l-84 60l211 233z" />
<glyph unicode="+" d="M139 465l23 106h360l99 463h106l-98 -463h360l-22 -106h-361l-98 -465h-107l99 465h-361z" />
<glyph unicode="," horiz-adv-x="454" d="M66 -215l159 371h150l-201 -371h-108z" />
<glyph unicode="-" horiz-adv-x="569" d="M182 487l25 117h414l-25 -117h-414z" />
<glyph unicode="." horiz-adv-x="454" d="M152 0l32 156h152l-33 -156h-151z" />
<glyph unicode="/" horiz-adv-x="681" d="M-53 -225l942 1704h110l-944 -1704h-108z" />
<glyph unicode="0" d="M166 292q8 81 16 129t27 138l65 309q12 59 19.5 91t23 89.5t28.5 90t35.5 82t47.5 77t59.5 60.5t73.5 50t90.5 29.5t110.5 12.5q88 0 149.5 -22.5t89 -71.5t41 -94t6 -126t-15.5 -129.5t-28 -138.5l-66 -309q-12 -59 -19.5 -91t-22.5 -89t-28.5 -90t-36 -82t-47 -77 t-59.5 -60.5t-74 -50t-90 -30t-110 -12.5q-88 0 -148.5 23t-89.5 72t-42 94t-5 126zM295 297q-2 -59 9 -95t28.5 -60.5t44 -35t48 -14.5t48.5 -4q35 0 62.5 5t65.5 24.5t68.5 55.5t61.5 102.5t49 158.5l119 559q16 78 18.5 137.5t-9 95.5t-28 60.5t-44 34.5t-49 14t-48.5 4 q-35 0 -61.5 -5t-65.5 -24.5t-69.5 -55t-60.5 -102.5t-50 -159l-119 -559q-16 -78 -18 -137z" />
<glyph unicode="1" d="M408 1063l30 141q203 123 305 223h115l-303 -1427h-123l268 1264q-149 -119 -292 -201z" />
<glyph unicode="2" d="M80 0l24 115q117 135 292 330.5t262 295t164 208t91 175.5q6 47 7.5 82t-13 58.5t-31 39t-44 22.5t-52 10t-55.5 3q-113 0 -188.5 -72.5t-100.5 -187.5h-123q23 102 70 177t109.5 116t126 59.5t129.5 18.5q70 0 126 -13.5t106 -43t69.5 -92t1.5 -148.5 q-8 -35 -18.5 -65.5t-31 -68.5t-39 -67.5t-60.5 -84t-74.5 -94.5t-103.5 -121t-126 -143.5t-160.5 -182t-191.5 -215.5h583l-22 -111h-727z" />
<glyph unicode="3" d="M143 350h131q-29 -121 15.5 -191.5t161.5 -70.5q244 0 301 272q41 190 -11 264t-245 60l22 111q307 -27 375 290q53 254 -172 254q-117 0 -183.5 -70.5t-86.5 -189.5h-132q23 162 134.5 266.5t273.5 104.5q186 0 263 -82t36 -266q-66 -307 -299 -361v-4q70 -8 112 -38.5 t55 -81t12 -104.5t-17 -124q-41 -199 -154.5 -305.5t-288.5 -106.5q-190 0 -269 92.5t-34 280.5z" />
<glyph unicode="4" d="M133 356l25 119l643 952h194l-204 -960h167l-22 -111h-168l-76 -356h-123l76 356h-512zM266 467h402l178 838h-4z" />
<glyph unicode="5" d="M180 342h131q-29 -125 12.5 -189.5t163.5 -64.5q61 0 111.5 21.5t82.5 54.5t56.5 84t37.5 95t26 103q14 63 20 106.5t3 95.5t-21.5 82t-60.5 51.5t-107 21.5q-76 0 -150.5 -40t-103.5 -110h-119l164 774h657l-22 -110h-535l-108 -510q76 59 134 82.5t140 23.5 q55 0 99.5 -10t74 -25.5t49 -43t31.5 -52t15.5 -62.5t3.5 -64.5t-6.5 -68.5t-10.5 -64.5t-12 -61.5q-2 -10 -4 -15q-20 -98 -51 -174.5t-84.5 -147.5t-136 -109t-193.5 -38q-373 0 -287 365z" />
<glyph unicode="6" d="M163 172q-7 68 0 131.5t27 161.5l101 467q29 137 63.5 228t90 160t137.5 99.5t198 30.5q326 0 260 -340h-131q37 229 -159 229q-51 0 -94.5 -16t-74 -38.5t-58 -63.5t-44 -76t-34 -91.5t-25.5 -92t-21 -95.5l-26 -125l4 2q113 156 313 156q68 0 117 -19.5t76.5 -47 t42 -69.5t17.5 -76t0 -77t-7 -62.5t-10 -43.5q0 -6 -2 -8q-18 -96 -39 -163t-56.5 -138.5t-81 -115.5t-117 -73t-161.5 -29q-102 0 -169 25t-98.5 63.5t-38.5 106.5zM289 285.5q0 -31.5 9 -69.5t28.5 -64.5t57.5 -45t91 -18.5q63 0 113.5 23.5t81 56.5t55.5 88t36 97.5 t25 105.5q39 166 5.5 247.5t-156.5 81.5q-119 0 -203 -82.5t-123 -259.5v-4q-4 -16 -8 -31.5t-8 -54.5t-4 -70.5z" />
<glyph unicode="7" d="M205 0l739 1317h-598l23 110h723l-27 -131l-717 -1296h-143z" />
<glyph unicode="8" d="M147.5 272.5q4.5 51.5 16.5 114.5q33 152 97.5 242t205.5 119l-4 4q-80 18 -117 69t-35 120t19 153q10 53 21 89t42 91t74 90t120 60.5t175 25.5q74 0 128 -13.5t87 -34t52.5 -52t26.5 -60t6 -68.5t-5 -66t-10 -62q-31 -141 -93.5 -229t-191.5 -113v-4q88 -20 129 -73.5 t38 -125.5t-20 -162q-12 -63 -30.5 -114.5t-54.5 -109t-84 -96t-122.5 -64.5t-168 -26t-157 26t-95 64.5t-43 96t-7 109zM291 371q-62 -295 180 -295t303 295q12 55 17.5 94t1 86t-22.5 75.5t-60 49t-106.5 20.5t-116 -20.5t-82 -49t-55 -75.5t-36 -86t-23.5 -94zM457 1075 q-62 -280 165.5 -280t288.5 280q29 137 -6 207t-164 70t-192.5 -70t-91.5 -207z" />
<glyph unicode="9" d="M172 317h131q-51 -229 156 -229q74 0 124 21.5t82.5 48t62.5 105.5t46.5 140.5t48.5 204.5q12 51 19 80h-4q-113 -125 -289 -125q-184 0 -239.5 107.5t-6.5 341.5q20 100 53 175t84.5 136t131 94t182.5 33q61 0 107 -8t80 -21.5t56.5 -38t37 -49t18.5 -65.5t4 -74 t-8.5 -88t-16.5 -98t-22 -111l-37 -176q-29 -135 -46.5 -207t-44 -166t-51 -140t-60.5 -99.5t-81 -77t-103.5 -39t-133.5 -15.5q-182 0 -249 80t-32 260zM416 825q4 -47 20.5 -78.5t54.5 -52t95 -20.5q246 0 313 321q10 49 15.5 76t10.5 70t1 66.5t-15.5 52t-33 44 t-57.5 25.5t-85 10q-72 0 -126 -26.5t-88 -76.5t-53 -102.5t-34 -121.5q-12 -53 -17 -96.5t-1 -90.5z" />
<glyph unicode=":" horiz-adv-x="454" d="M152 0l32 156h152l-33 -156h-151zM338 879l33 155h151l-33 -155h-151z" />
<glyph unicode=";" horiz-adv-x="454" d="M37 -215l160 371h149l-201 -371h-108zM338 879l33 155h151l-33 -155h-151z" />
<glyph unicode="&#x3c;" d="M139 473l19 90l936 479l-25 -114l-811 -400l-2 -10l639 -412l-25 -114z" />
<glyph unicode="=" d="M100 283l23 106h827l-22 -106h-828zM178 647l23 107h827l-22 -107h-828z" />
<glyph unicode="&#x3e;" d="M37 -8l24 114l816 412l2 10l-643 400l24 114l731 -479l-18 -90z" />
<glyph unicode="?" horiz-adv-x="796" d="M293 0l33 156h151l-33 -156h-151zM326 1165q27 158 113.5 250t238.5 92q172 0 216 -79.5t5 -262.5q-23 -106 -63.5 -189t-83.5 -132t-85 -92t-76 -95.5t-48 -115.5l-41 -193h-123l39 178q18 92 55 158t77 106.5t81 84t77.5 116t59.5 176.5q10 49 14 77t3 60.5t-14 50 t-41 30t-73 12.5q-49 0 -85.5 -19.5t-59.5 -55.5t-35 -72t-20 -85h-131z" />
<glyph unicode="@" horiz-adv-x="1638" d="M229 739q43 207 181.5 384t333 280.5t395.5 103.5q125 0 227 -21.5t189 -68.5t138.5 -121.5t71 -183t-15.5 -252.5q-35 -162 -137.5 -294t-225 -199.5t-233.5 -67.5q-78 0 -117 21.5t-43 80.5q-135 -102 -276 -102q-123 0 -171 90t-20 225q23 109 81.5 220.5t139 203.5 t187 151.5t217.5 59.5q153 0 188 -141l52 100h112l-350 -643q-47 -82 -55 -121q-4 -25 22.5 -36t75.5 -11q86 0 168 49.5t138.5 121t94 141t48.5 120.5q18 88 18 163t-15.5 129.5t-45 99.5t-65.5 73.5t-82 51t-88 34t-91 18.5t-84 9t-74 2q-272 0 -501.5 -194.5 t-288.5 -475.5q-39 -184 14 -337.5t183 -242.5t309 -89q195 0 375 75.5t309 214.5h108q-139 -184 -355 -286.5t-458 -102.5q-203 0 -353.5 102.5t-213 279.5t-17.5 386zM653 639q-25 -117 5 -179.5t108 -62.5q154 0 268 174q68 102 140.5 241.5t82.5 188.5 q12 57 -23.5 103.5t-107.5 46.5q-100 0 -205.5 -88t-175 -205t-92.5 -219z" />
<glyph unicode="A" horiz-adv-x="1138" d="M27 0l780 1479h156l147 -1479h-137l-37 389h-580l-198 -389h-131zM420 500h506l-74 835h-4z" />
<glyph unicode="B" horiz-adv-x="1024" d="M139 0l314 1479h411q180 0 248 -82q43 -52 43 -148q0 -55 -14 -125q-33 -150 -93.5 -233.5t-197.5 -118.5v-4q131 -29 166 -117q19 -47 18 -111q0 -57 -14 -128q-43 -201 -161 -306.5t-302 -105.5h-418zM293 111h209q168 0 259 65.5t126 224.5q11 53 11 98v7 q-1 48 -16.5 97.5t-64.5 78.5t-129 29h-266zM444 821h252q248 0 312 297q10 51 11 91v10q0 33 -6 55q-7 26 -24.5 44.5t-33 28t-43 14.5t-45 6t-46.5 1h-260z" />
<glyph unicode="C" horiz-adv-x="1024" d="M210 267q-2 16 -2 37q0 44 8 110q11 96 22.5 155.5t35 170t38 170t43 154.5t56 147.5t73.5 118t100.5 98t130.5 56t168 23.5q76 0 130 -17t87 -43t51 -67q17 -42 23 -76q4 -25 4 -57v-25q-2 -48 -7.5 -76t-13.5 -67h-131q15 71 15 127q0 190 -181 191q-51 0 -95 -10.5 t-78 -25.5t-64.5 -48t-52 -60.5t-44 -79t-36 -88t-31 -105.5t-27.5 -114t-26 -127q-27 -123 -39.5 -187.5t-22.5 -155.5q-5 -46 -5 -80t5 -56q10 -45 33.5 -93t75 -66.5t129.5 -18.5q119 0 195.5 93t111.5 249h139q-10 -45 -24.5 -90t-51.5 -114.5t-85 -121t-130 -89.5 t-180 -38q-92 0 -158.5 23.5t-106.5 56.5t-58.5 98.5t-23.5 117.5z" />
<glyph unicode="D" horiz-adv-x="1138" d="M154 0l313 1479h391q90 0 153.5 -15.5t107.5 -43t67.5 -77t33.5 -104.5q6 -36 6 -84q0 -25 -2 -54q-5 -83 -19.5 -167t-39.5 -201q-33 -160 -66.5 -267.5t-85.5 -201.5t-121 -148.5t-168 -85t-232 -30.5h-338zM307 111h160q104 0 173 9t127 42t94 76t71 132t60.5 187 t60.5 264q43 176 43 291q0 21 -2 40q-10 122 -86 169t-260 47h-173z" />
<glyph unicode="E" d="M154 0l313 1479h670l-23 -111h-539l-116 -553h514l-25 -110h-514l-127 -594h553l-22 -111h-684z" />
<glyph unicode="F" horiz-adv-x="796" d="M139 0l314 1479h624l-22 -111h-494l-117 -553h459l-24 -110h-459l-150 -705h-131z" />
<glyph unicode="G" horiz-adv-x="1138" d="M215 280q-1 15 -1 33q0 44 7 106q10 87 19.5 134t27.5 131q8 37 12.5 55.5t10.5 55.5q18 84 28.5 131t37 134t53 138t73.5 117.5t101.5 102.5t133.5 62.5t171 26.5q217 0 301 -98q53 -62 53 -169q0 -62 -18 -140h-131q12 57 12 102q0 76 -34 122q-54 73 -206 73 q-78 0 -137 -19.5t-103 -68.5t-74 -93.5t-57.5 -135.5t-41 -149.5t-39.5 -176.5q-2 -10 -3 -14.5t-3 -14.5q-25 -119 -36.5 -177.5t-21.5 -149.5q-5 -46 -5 -79.5t5 -55.5q10 -44 34 -93t75 -68.5t129 -19.5q163 0 284 43l115 537h-299l23 110h430l-158 -739 q-209 -61 -420 -62q-94 0 -161.5 27t-106.5 62.5t-57.5 102t-22.5 117.5z" />
<glyph unicode="H" horiz-adv-x="1138" d="M147 0l314 1479h131l-139 -664h581l140 664h131l-314 -1479h-131l150 705h-582l-149 -705h-132z" />
<glyph unicode="I" horiz-adv-x="454" d="M162 0l313 1479h131l-313 -1479h-131z" />
<glyph unicode="J" d="M112 170q-4 31 -4 60.5t4 57.5q7 54 21 130h131q-12 -57 -17 -98q-3 -26 -3 -54q0 -17 1 -36q3 -48 19.5 -77.5t54 -50t99.5 -20.5q100 0 176 60.5t104 195.5l242 1141h131l-246 -1160q-14 -72 -44.5 -129t-64.5 -92t-79 -61.5t-79 -38.5t-75 -18.5t-57 -7.5t-35 -1 q-94 0 -155.5 28t-89 67.5t-34.5 103.5z" />
<glyph unicode="K" horiz-adv-x="1024" d="M160 0l313 1479h131l-143 -678h4l668 678h157l-698 -691l401 -788h-164l-372 758h-4l-162 -758h-131z" />
<glyph unicode="L" horiz-adv-x="796" d="M137 0l314 1479h131l-291 -1368h489l-22 -111h-621z" />
<glyph unicode="M" horiz-adv-x="1593" d="M145 0l314 1479h223l154 -1336h4l712 1336h209l-313 -1479h-131l287 1352h-5l-720 -1352h-152l-160 1352h-4l-287 -1352h-131z" />
<glyph unicode="N" horiz-adv-x="1251" d="M158 0l313 1479h201l325 -1299l4 4l275 1295h131l-313 -1479h-199l-324 1313l-4 -4l-278 -1309h-131z" />
<glyph unicode="O" horiz-adv-x="1138" d="M216 267q-2 16 -2 37q0 44 8 110q11 96 22.5 155.5t35 170t38 170t43 154.5t56 147.5t74 118t100.5 98t130 56t169 23.5t158.5 -23.5t105.5 -56t58.5 -98t24.5 -117.5q2 -18 2 -40q0 -44 -8 -108q-12 -95 -23.5 -154.5t-35 -170t-38 -170t-42 -155t-55 -147.5t-75 -117.5 t-100.5 -98.5t-130 -56.5t-169 -23.5t-158.5 23.5t-106.5 56.5t-58.5 98.5t-23.5 117.5zM350 260q10 -45 34 -93t75 -66.5t129 -18.5q51 0 94 10t78 25.5t65.5 48.5t52 60.5t43 78.5t35 88t31 105.5t27.5 113.5t28 127q27 123 38 187q12 64 22 156q5 46 5 80t-5 57 q-10 45 -34 93t-75 66.5t-127 18.5q-51 0 -95 -10.5t-78 -25.5t-64.5 -48t-52 -60.5t-44 -79t-36 -88t-30.5 -105.5t-27.5 -114t-26.5 -127q-27 -123 -39.5 -187.5t-22.5 -155.5q-5 -46 -5 -80t5 -56z" />
<glyph unicode="P" d="M131 0l313 1479h406q33 0 57.5 -2t59 -9.5t58.5 -21.5t46.5 -41t33.5 -63.5t11 -93t-16 -128.5q-47 -225 -150.5 -328.5t-292.5 -103.5h-249l-146 -688h-131zM432 799h244q111 0 182.5 66.5t106.5 230.5q12 61 14 107v13q1 37 -9 62q-12 29 -26 48.5t-40.5 27.5t-50.5 11 t-58 3h-242z" />
<glyph unicode="Q" horiz-adv-x="1138" d="M214 336v6q0 41 12 116q14 81 23 131t32 150q4 18 10 56q18 84 28.5 131t37 134t53 138t73.5 117.5t101.5 102.5t133.5 62.5t172 26.5t160.5 -26.5t106.5 -62.5t57.5 -102.5t23.5 -117.5q2 -17 2 -38q0 -42 -7 -100q-10 -87 -19.5 -134t-27.5 -131q-8 -37 -12 -56 q-63 -297 -125 -428t-177 -196l2 -4h259l-23 -111h-283q-31 0 -88 -4q-63 -4 -108 -4q-84 0 -148.5 11t-111.5 27.5t-78 52.5t-50.5 64.5t-23.5 88t-5 100.5zM354 386q-2 -27 -2 -50q0 -45 8 -76q11 -47 37.5 -86t74.5 -55.5t120 -16.5q80 0 145.5 32t109.5 83t82 137 t62.5 173t50.5 212q0 4 2 15q27 119 37.5 177t21.5 149q6 48 6 83q0 31 -5 53q-10 44 -33.5 93t-75 68.5t-129.5 19.5t-137 -19.5t-103 -68.5t-74 -93.5t-57.5 -135.5t-41 -149.5t-39.5 -176.5q-2 -10 -2 -15q-27 -119 -39.5 -196.5t-18.5 -156.5z" />
<glyph unicode="R" horiz-adv-x="1024" d="M139 0l314 1479h407q208 0 266 -77q34 -45 34 -132q0 -62 -17 -146q-33 -156 -96.5 -238.5t-208.5 -113.5v-4q41 -10 64.5 -16.5t48 -21.5t33.5 -30q10 -14 16 -49q4 -23 4 -45q0 -12 -2 -24q-4 -34 -13.5 -101t-23 -132.5t-35.5 -176.5q-8 -33 -14.5 -95.5t-8.5 -76.5 h-125v6q0 57 58 363q2 4 10 37.5t11 59.5t6 66q1 9 1 17q0 29 -8 51q-10 29 -29.5 57.5t-60.5 44t-100 15.5h-248l-152 -717h-131zM446 827h213q156 0 235 60.5t118 238.5q13 59 13 102q-1 62 -27 90q-44 50 -169 50h-268z" />
<glyph unicode="S" horiz-adv-x="1024" d="M201 416h135q-12 -59 -18 -98q-3 -20 -2.5 -42t2.5 -46q6 -50 27.5 -78.5t70.5 -49t127 -20.5q256 0 311 262q6 33 8 61.5t-4 54t-12 45t-24.5 42t-30 36t-42 37t-46 35t-55.5 39t-58 39.5q-119 84 -172 151q-52 68 -54 128q0 5 -1 10q0 55 14 123q37 184 163 273t314 89 q113 0 182.5 -32.5t93.5 -88.5q25 -58 29 -130q1 -12 0 -24q0 -61 -16 -128h-133q11 63 11 113q0 69 -21 109q-37 72 -179 71q-127 0 -204.5 -52.5t-104.5 -177.5q-10 -45 -11 -80.5t7 -62.5t20.5 -46.5t35 -38.5t43 -33.5t53 -38t57.5 -46.5q25 -20 58.5 -44.5t58 -41 t53 -40t47 -44t36.5 -50.5q17 -31 24 -63q6 -28 6 -65v-11q-1 -44 -11 -97q-84 -393 -477 -394q-335 0 -335 277q0 74 24 168z" />
<glyph unicode="T" d="M319 1368l23 111h852l-23 -111h-360l-291 -1368h-131l291 1368h-361z" />
<glyph unicode="U" horiz-adv-x="1138" d="M233 453l218 1026h131l-197 -930q-10 -43 -14 -66.5t-11.5 -68.5t-7.5 -72t2 -66.5t11.5 -63.5t27 -51.5t43 -43t64.5 -25.5t88 -10q61 0 113.5 17.5t89 41t67.5 66.5t49.5 76.5t36 90t24.5 87.5t19 88l197 930h131l-217 -1026q-102 -481 -534 -481l-1 -1 q-349 0 -349 316q0 74 19 166z" />
<glyph unicode="V" horiz-adv-x="1024" d="M332 1479h139l70 -1323h4l645 1323h127l-723 -1479h-164z" />
<glyph unicode="W" horiz-adv-x="1705" d="M334 1479h139l23 -1307h4l577 1307h176l23 -1297h4l590 1297h129l-680 -1479h-172l-19 1315h-4l-583 -1315h-164z" />
<glyph unicode="X" horiz-adv-x="1024" d="M18 0l560 764l-216 715h144l182 -617l455 617h139l-532 -715l254 -764h-154l-207 676l-485 -676h-140z" />
<glyph unicode="Y" horiz-adv-x="1024" d="M340 1479h147l183 -736l510 736h131l-604 -865l-132 -614h-131l131 614z" />
<glyph unicode="Z" d="M49 0l31 145l936 1223h-635l22 111h764l-30 -146l-930 -1222h676l-23 -111h-811z" />
<glyph unicode="[" horiz-adv-x="454" d="M45 -270l381 1792h285l-21 -99h-162l-340 -1595h162l-20 -98h-285z" />
<glyph unicode="\" horiz-adv-x="454" d="M242 1479h108l176 -1479h-108z" />
<glyph unicode="]" horiz-adv-x="454" d="M10 -270l21 98h162l339 1595h-161l20 99h285l-381 -1792h-285z" />
<glyph unicode="^" d="M264 610l455 840h86l98 -840h-96l-78 684h-4l-365 -684h-96z" />
<glyph unicode="_" horiz-adv-x="1024" d="M-55 -256l22 102h1024l-22 -102h-1024z" />
<glyph unicode="`" horiz-adv-x="569" d="M324 1427h163l172 -280h-102z" />
<glyph unicode="a" d="M139 285q12 66 41 118t61.5 85.5t80 59t88.5 38t98 20.5t95 12t96.5 5.5t84.5 3.5l19 86q12 54 12 95q0 53 -19 87q-34 61 -151 61q-90 0 -155.5 -45t-83.5 -133h-132q37 141 146.5 209t255.5 68q23 0 40 -1t42.5 -4t45 -8.5t43 -14.5t41 -23.5t32 -35t21.5 -47t7 -62.5 t-8 -79l-111 -520q-29 -139 -43 -260h-127l27 127h-4q-129 -147 -324 -147q-135 0 -192 82q-37 54 -37 133q0 42 10 90zM270 291q-6 -31 -6 -59q0 -54 23 -94q35 -60 125 -60q104 0 197.5 80t113.5 182l41 188q-14 0 -60.5 -1t-68 -2t-65.5 -5t-68.5 -11t-61.5 -17.5 t-58.5 -29t-46 -42t-40.5 -56t-25 -73.5z" />
<glyph unicode="b" d="M117 0q27 70 35 102l290 1377h123l-119 -561l5 -5q121 141 290 142q66 0 113 -18.5t73.5 -45t39 -74t15.5 -83.5q1 -11 0 -24q0 -30 -4 -72q-7 -60 -13.5 -93t-18.5 -88q-6 -27 -8 -39q-18 -84 -34.5 -145.5t-52.5 -141t-79 -130t-112.5 -86t-155.5 -35.5 q-182 0 -230 145h-4l-26 -125h-127zM326 283.5q0 -33.5 7 -76.5t25.5 -68.5t51 -43t77.5 -17.5q47 0 87 12t69 30.5t52.5 53.5t40 65.5t31.5 83t24.5 90.5t22.5 101.5t20 101.5q8 36 14 90q4 40 4 68v16q-2 30 -11.5 66.5t-29.5 56t-54 31.5t-83 12q-55 0 -104.5 -29.5 t-82 -73.5t-59.5 -105.5t-41.5 -111t-26.5 -104.5q-10 -49 -15 -77.5t-12 -83t-7 -88z" />
<glyph unicode="c" horiz-adv-x="796" d="M145 259q0 30 9.5 83t14.5 83t17 87q53 252 105 342q115 201 352 201q139 0 201 -80q38 -49 37 -127q0 -50 -15 -111h-123q12 49 12 87q0 132 -149 132q-57 0 -108.5 -31.5t-81.5 -86.5q-47 -82 -99 -326q-10 -47 -15 -72.5t-12 -73t-8 -75t-1 -65.5t10 -60.5t24.5 -45 t40 -32.5t60.5 -10q111 0 159 57.5t78 169.5h123q-14 -80 -47 -140.5t-70.5 -95t-84 -55t-82 -27.5t-68.5 -7q-57 0 -102.5 10t-76 25.5t-51 46t-31.5 55t-14.5 68.5t-3.5 74z" />
<glyph unicode="d" d="M159 204q-1 14 -1 30q0 32 4 72q6 60 13 105.5t22 106.5q12 59 20 93t27.5 98.5t39 104.5t54.5 91t74 80t94 49.5t121 20.5q154 0 225 -123l4 -2l115 549h123l-271 -1274q-29 -135 -30 -205h-119l22 131l-6 -2q-126 -149 -291 -149h-2q-61 0 -107 18t-73 46t-41 73 t-17 87zM288 322q-2 -32 -2 -60q0 -40 5 -68q8 -48 32.5 -74t53.5 -34t74 -8q98 0 181 85t120 261l39 184q4 23 7 40.5t7 55.5q3 25 3 46q0 11 -1 21q-2 30 -11.5 66.5t-27.5 61.5t-53 41t-82 16q-41 0 -75 -8t-60.5 -27.5t-47 -39t-39 -57.5t-29.5 -63.5t-24.5 -76.5 t-19.5 -81t-21 -89q-23 -112 -29 -192z" />
<glyph unicode="e" d="M176 365l53 253q92 436 449 437q76 0 129 -16.5t86 -39t48 -70.5t21 -85q3 -15 3 -36q1 -30 -5 -72q-10 -72 -18.5 -115t-26.5 -129h-589l-17 -80q-14 -62 -15 -114v-8q0 -50 11 -98q12 -54 54 -84t112 -30q113 0 184.5 64.5t94.5 172.5h129q-49 -180 -157 -257.5 t-271 -77.5q-290 0 -290 256q0 58 15 129zM346 590h467q26 120 26 200q0 79 -42 122q-43 44 -140 44q-137 0 -203.5 -89t-107.5 -277z" />
<glyph unicode="f" horiz-adv-x="569" d="M205 0l198 936h-165l20 98h166l37 174q8 37 18 68t34 73t56.5 69.5t89 48t125.5 20.5q8 0 68 -8l-21 -103h-92q-43 0 -72.5 -15t-46 -46t-22.5 -51.5t-12 -53.5l-39 -176h209l-21 -98h-209l-198 -936h-123z" />
<glyph unicode="g" d="M79 -183q1 36 11 70h123q-9 -30 -9 -57q0 -47 30 -80q45 -51 135 -51q33 0 61.5 3t52 12.5t41 16.5t33.5 26.5t27.5 32.5t24 43t18.5 49.5t16 61.5t16.5 66.5t16.5 77.5q6 33 10 49h-4q-102 -125 -276 -125q-61 0 -107.5 15.5t-74 40t-43 64.5t-19.5 78q-2 19 -2 42t2 50 q4 54 11 96t20 100q37 174 50 220t54 132q10 23 32.5 51.5t62.5 66.5t103.5 62.5t135.5 24.5q82 0 143.5 -39t79.5 -107l4 -4l29 131h121q-39 -147 -50 -202l-186 -871q-18 -90 -48 -153.5t-80 -112.5t-128 -72.5t-184 -23.5q-74 0 -127 20.5t-79 50t-37 69.5q-10 37 -10 70 v6zM287 280q2 -28 10 -66t26.5 -57.5t52.5 -32.5t79 -13q72 0 129 36.5t84 79.5q37 63 60.5 137t68.5 293q13 59 13 106q0 74 -32 119q-53 74 -149 74q-51 0 -93 -18t-73 -56t-53.5 -75t-40 -92.5t-26.5 -89t-19 -84.5q-12 -61 -18.5 -93t-13.5 -86q-5 -41 -5 -68v-14z" />
<glyph unicode="h" d="M125 0l313 1479h123l-121 -572h4q133 147 281 148q74 0 124 -21.5t71.5 -53.5t28.5 -79q5 -33 5 -62q0 -12 -1 -24q-3 -39 -13 -86l-156 -729h-122l153 723q10 43 10 79q0 50 -19 88q-32 66 -132 66q-94 0 -174 -73.5t-115 -233.5l-137 -649h-123z" />
<glyph unicode="i" horiz-adv-x="454" d="M166 0l219 1034h123l-219 -1034h-123zM432 1323l33 156h151l-32 -156h-152z" />
<glyph unicode="j" horiz-adv-x="454" d="M-78 -391l23 102q20 -2 38 -2q75 0 105 28q37 34 59 140l246 1157h123l-260 -1224q-6 -35 -20.5 -66t-41 -66.5t-73.5 -56t-109 -20.5q-70 0 -90 8zM440 1323l33 156h152l-33 -156h-152z" />
<glyph unicode="k" horiz-adv-x="796" d="M129 0l313 1479h123l-190 -901h4l452 456h144l-463 -461l268 -573h-155l-250 563h-4l-119 -563h-123z" />
<glyph unicode="l" horiz-adv-x="454" d="M166 0l313 1479h123l-313 -1479h-123z" />
<glyph unicode="m" horiz-adv-x="1366" d="M123 0l221 1036h111l-29 -129h4q119 147 277 148q82 0 137 -43t65 -119q115 162 287 162q127 0 179 -78q37 -55 36 -135q0 -34 -6 -72l-164 -770h-123l158 739q5 45 5 88v13q-1 48 -31.5 82t-88.5 34q-106 0 -179 -87t-97 -203l-142 -666h-122l157 739q5 45 5 88v13 q-1 48 -31.5 82t-87.5 34q-106 0 -179 -86.5t-98 -203.5l-141 -666h-123z" />
<glyph unicode="n" d="M125 0l219 1034h123l-27 -127h4q133 147 281 148q74 0 124 -21.5t71.5 -53.5t28.5 -79q5 -33 5 -62q0 -12 -1 -24q-3 -39 -13 -86l-156 -729h-122l153 723q10 43 10 79q0 50 -19 88q-32 66 -132 66q-94 0 -174 -73.5t-115 -233.5l-137 -649h-123z" />
<glyph unicode="o" d="M184 406l47 223q45 205 158 315.5t290 110.5q177 -1 243 -111q40 -66 40 -165q0 -67 -18 -150l-47 -223q-43 -205 -155.5 -315.5t-291 -110.5t-244.5 110q-40 67 -39 168q0 67 17 148zM297 246q2 -58 20.5 -92.5t56.5 -55t97 -20.5q74 0 128 28.5t91 91t60.5 135.5 t48.5 185q19 88 27 150q7 48 6 93v27q-2 58 -19.5 92.5t-57 55t-98.5 20.5q-74 0 -127 -28.5t-91 -91t-61.5 -135t-45.5 -183.5q-18 -88 -28 -150q-8 -52 -7 -101v-21z" />
<glyph unicode="p" d="M45 -391l303 1425h119l-27 -125l6 2q61 72 137 108t143 36t116 -17.5t77.5 -41t44 -64.5t20.5 -74q3 -18 3 -41q0 -19 -2 -40q-4 -48 -9 -73.5t-13 -66.5l-50 -231q-45 -211 -150.5 -318.5t-295.5 -107.5q-129 0 -186 135l-5 2l-108 -508h-123zM342 426q-15 -74 -15 -132 q0 -75 25 -126q45 -90 135 -90q74 0 128.5 28.5t91 91t60.5 135.5t48 185q18 88 27 150q6 49 6 97v23q-2 58 -19.5 92.5t-56.5 55t-98 20.5q-33 0 -73 -19t-83 -57t-80 -109t-57 -161z" />
<glyph unicode="q" d="M146 201q-1 12 -1 26q0 30 5 70q8 59 14 92t18 88q6 27 11 39q16 84 33.5 145.5t52 141.5t77.5 130t113 86t156 36q186 0 229 -154h4l27 133h127q-27 -70 -33 -102l-283 -1323h-123l109 508l-2 4q-123 -141 -293 -141q-66 0 -113 18t-73.5 45t-38.5 74t-16 84zM283 283.5 q0 -33.5 7 -76.5t25.5 -68.5t51 -43t77.5 -17.5q47 0 87 12t69 30.5t52.5 53.5t40 65.5t31.5 83t24.5 90.5t22.5 101.5t20.5 101t13.5 90.5q5 41 5 68q0 9 -1 16q-2 31 -11.5 67t-29.5 55.5t-54 31.5t-83 12q-55 0 -104.5 -29.5t-82 -73.5t-59.5 -105.5t-41 -110.5t-27 -105 q-10 -49 -15 -77.5t-12 -83t-7 -88z" />
<glyph unicode="r" horiz-adv-x="569" d="M133 0l219 1034h123l-29 -139h5q53 74 139 117t178 43l-25 -125q-16 1 -31 1q-109 -1 -192 -63q-94 -72 -123 -202l-141 -666h-123z" />
<glyph unicode="s" horiz-adv-x="796" d="M156 307h125q-13 -65 -13 -114v-10q2 -52 39 -81.5t113 -29.5q176 0 215 182q5 23 5 44q0 29 -10 53q-16 42 -51.5 68.5t-79.5 53.5t-88 51.5t-78 62.5q-33 38 -47 86q-6 23 -7 52q0 32 8 72q53 258 364 258q98 0 153 -42q54 -43 61 -109q2 -22 2 -46q0 -48 -9 -102h-121 q7 41 7 74q0 49 -16 78q-28 48 -128 48q-68 0 -121 -41t-67 -108q-5 -21 -5 -40q0 -27 10 -52q17 -41 53 -65.5t80 -51.5t88 -51.5t78 -62.5t48 -87q7 -23 6 -52q0 -33 -8 -73q-31 -143 -126 -217.5t-241 -74.5q-166 0 -221 80q-33 48 -33 126q0 53 15 121z" />
<glyph unicode="t" horiz-adv-x="569" d="M231 936l21 98h166l45 213l135 53l-57 -266h209l-21 -98h-209l-141 -664q-14 -64 -15 -102q0 -22 6 -34q14 -34 87 -34q55 0 96 7l-23 -107q-55 -6 -116 -6q-121 0 -158 50q-24 32 -24 85q0 30 8 66l157 739h-166z" />
<glyph unicode="u" d="M184 182q-1 11 -1 22q0 48 14 99l155 731h123l-149 -710q-4 -16 -6.5 -23.5t-5.5 -37.5t-1 -49t8.5 -48t20.5 -45.5t40 -29.5t62 -13q59 0 110.5 24.5t84.5 62.5t53.5 73.5t26.5 66.5l153 729h123l-219 -1034h-106l24 115h-4q-72 -70 -139.5 -102.5t-149.5 -32.5 q-78 0 -127 26.5t-67.5 72t-22.5 103.5z" />
<glyph unicode="v" horiz-adv-x="796" d="M240 1034h133l61 -878h4l439 878h118l-526 -1034h-141z" />
<glyph unicode="w" horiz-adv-x="1366" d="M240 1034h131l39 -905h4l411 905h152l37 -905h4l424 905h123l-504 -1034h-154l-39 885h-4l-405 -885h-154z" />
<glyph unicode="x" horiz-adv-x="796" d="M23 0l419 551l-153 483h147l107 -389l286 389h136l-371 -477l180 -557h-149l-131 449l-334 -449h-137z" />
<glyph unicode="y" horiz-adv-x="796" d="M143 -391l205 389l-108 1036h133l71 -848h5l423 848h123l-731 -1425h-121z" />
<glyph unicode="z" horiz-adv-x="681" d="M57 0l21 100l608 836h-405l20 98h530l-20 -102l-598 -834h430l-20 -98h-566z" />
<glyph unicode="{" horiz-adv-x="718" d="M250 590l20 98q88 0 142.5 63.5t68.5 139.5l86 397q14 74 48 123t84.5 71.5t99.5 31t119 8.5l-21 -99q-100 0 -144 -42t-63 -126l-69 -329q-25 -121 -72 -185.5t-166 -99.5l-2 -4q72 -12 104.5 -46t33.5 -86t-13 -124l-82 -385q-18 -84 8.5 -126t124.5 -42l-20 -98 q-39 0 -68 2t-60.5 8t-52 16.5t-41 27.5t-27.5 41.5t-11.5 58.5t8.5 79l90 424q6 43 5 88t-35 80t-95 35z" />
<glyph unicode="|" horiz-adv-x="454" d="M66 -512l434 2048h106l-434 -2048h-106z" />
<glyph unicode="}" horiz-adv-x="718" d="M68 -270l20 98q100 0 144 42t63 126l82 385q25 119 73 178t158 78l2 4q-74 23 -105.5 65t-29.5 95t17 125l69 329q18 84 -8.5 126t-124.5 42l21 99q37 0 66.5 -2t61 -8.5t52 -16.5t41 -27.5t28 -42t11 -58.5t-8.5 -79l-86 -397q-4 -43 -3 -88t35 -80t93 -35l-20 -98 q-88 0 -141.5 -63.5t-69.5 -139.5l-90 -424q-16 -74 -49 -123t-83 -71.5t-99.5 -30.5t-118.5 -8z" />
<glyph unicode="~" d="M137 451q68 82 132.5 129t140.5 47q66 0 182 -54q119 -53 156 -53q94 0 192 137l51 -82q-137 -166 -266 -165q-23 0 -55.5 8t-50 15t-60.5 25l-43 17q-6 2 -28.5 12.5t-34 14.5t-31 9t-35.5 5q-31 0 -58.5 -10t-56 -38t-40 -40t-42.5 -49z" />
<glyph unicode="&#xa1;" horiz-adv-x="681" d="M186 -391l252 1098h107l-215 -1098h-144zM455 899l32 156h152l-33 -156h-151z" />
<glyph unicode="&#xa2;" d="M131 -319l152 325q-94 76 -107.5 172t37.5 342q12 61 21.5 96t30 103.5t42 111.5t59 98.5t80.5 87.5t104.5 54.5t135.5 22.5q47 0 84 -9l107 242h75l-114 -262q92 -45 119.5 -140.5t-5.5 -201.5h-123q35 162 -47 221l-374 -844q45 -12 88 -12q102 0 171.5 81t100.5 226 h123q-43 -201 -153.5 -309.5t-266.5 -108.5q-41 1 -121 9l-137 -305h-82zM305 227.5q6 -63.5 39 -90.5l373 832q-45 14 -72 14q-43 0 -80 -17.5t-63.5 -43t-51 -69.5t-39 -79t-29.5 -91t-21.5 -86t-18.5 -83q-4 -25 -6 -35l-6 -24q-16 -74 -23.5 -119t-1.5 -108.5z" />
<glyph unicode="&#xa3;" d="M39 0l22 111h152l127 596h-166l25 110h166l55 262q23 104 65.5 179t98 115t114 58.5t119.5 18.5q188 0 243.5 -87t6.5 -280h-131q20 74 21 130.5t-37.5 91t-118.5 34.5q-104 0 -168 -67.5t-88 -181.5l-58 -273h308l-25 -110h-307l-127 -596h502l-23 -111h-776z" />
<glyph unicode="&#xa4;" d="M53 238l97 77q-61 127 -31 273q33 156 147 278l-63 80l116 96l66 -77q139 90 294 90t255 -90l98 77l76 -96l-96 -80q61 -123 28 -278q-31 -145 -145 -273l63 -77l-118 -99l-64 80q-147 -92 -293.5 -92t-255.5 92l-100 -80zM250 588q-18 -82 4 -162t88 -134t164 -54 q143 -2 260 109.5t143 240.5q33 162 -32.5 258t-221.5 98q-158 -2 -263 -98t-142 -258z" />
<glyph unicode="&#xa5;" d="M158 322l24 110h301l29 133h-301l22 111h263l-199 751h156l159 -684l465 684h142l-521 -751h265l-23 -111h-305l-29 -133h305l-24 -110h-305l-68 -322h-123l68 322h-301z" />
<glyph unicode="&#xa6;" horiz-adv-x="454" d="M98 -358l152 716h106l-151 -716h-107zM315 666l152 716h106l-151 -716h-107z" />
<glyph unicode="&#xa7;" d="M160 10l24 117q139 -57 250 -57q92 0 168 44t96 132q12 57 -30.5 107t-109 89t-133.5 78t-108 94.5t-28 120.5q10 43 30.5 77t56.5 60.5t59.5 41t74.5 38t65 29.5q-84 57 -125.5 121.5t-21.5 159.5q18 88 80.5 145t136.5 78.5t160 21.5q115 0 215 -49l-25 -115 q-137 66 -221 66q-72 0 -135.5 -35t-77.5 -104q-12 -53 14.5 -96.5t73.5 -72t102.5 -62t101.5 -66.5t70.5 -84t10.5 -115q-8 -39 -32.5 -73.5t-66.5 -67.5t-71 -51.5t-78 -49.5q-12 -6 -18 -10q94 -47 138 -112.5t21 -165.5q-27 -125 -133 -199t-260 -74q-118 0 -274 39z M424 756q-4 -23 2 -45.5t16.5 -37t34 -32.5t34.5 -26.5t42 -25t35 -20.5q12 8 58 38t70.5 48.5t51.5 49t33 61.5q0 16 3 27.5t-6.5 26t-12.5 22.5t-17 19t-21.5 17.5t-22.5 15.5t-23.5 14t-23.5 12.5t-22 11.5l-43 -21.5t-60.5 -32t-53 -34t-50 -44t-24.5 -44.5z" />
<glyph unicode="&#xa8;" horiz-adv-x="569" d="M305 1169l45 207h131l-45 -207h-131zM629 1169l45 207h131l-45 -207h-131z" />
<glyph unicode="&#xa9;" horiz-adv-x="1638" d="M229 739q43 207 181.5 384t333 280.5t395.5 103.5q205 0 355.5 -103.5t211.5 -280.5t18 -384q-45 -209 -182 -386t-331.5 -279.5t-397.5 -102.5t-353.5 102.5t-213 279.5t-17.5 386zM328 739q-39 -184 14 -337.5t183.5 -242.5t308.5 -89q272 0 502.5 194.5t289.5 474.5 q39 184 -14 338t-183.5 243t-310.5 89q-272 0 -501.5 -194.5t-288.5 -475.5zM641 552q0 26 6 69t10.5 64.5t12.5 62.5q2 6 3 8t1 8q12 53 19 81.5t24.5 83t36 88.5t51.5 76t71.5 65.5t96 41t125.5 17.5q240 0 184 -250v-6h-123q23 74 0.5 115.5t-106.5 41.5q-47 0 -84 -17.5 t-62.5 -45t-46 -76.5t-35 -98.5t-30 -125t-23.5 -124.5t-7 -98.5t14.5 -77t43 -45t76.5 -17.5q80 0 125 43t66 131h122q-6 -25 -16 -53.5t-33.5 -69.5t-56.5 -72.5t-86 -54t-117 -22.5q-53 0 -95 10t-70.5 25.5t-48 43t-31 52.5t-14.5 62.5t-3 63.5z" />
<glyph unicode="&#xaa;" horiz-adv-x="544" d="M262 1047q8 39 25.5 70.5t38 52t52.5 36t56.5 23.5t63.5 13t61.5 6t62.5 3t54 2l10 50q16 74 -5.5 108.5t-96.5 34.5q-131 0 -154 -103h-86q23 84 93.5 124t164.5 40h28.5t33 -3t33 -7t32 -12t26.5 -19.5t18 -29t9 -40t-6 -53.5l-65 -311q-19 -83 -25 -155h-80l17 79h-5 q-86 -96 -210 -96q-88 0 -126 49t-20 138zM348 1051q-12 -59 11.5 -94t82.5 -35q68 0 126.5 48t70.5 109l25 113h-39t-44.5 -1t-42 -3t-44 -6t-38 -10.5t-37.5 -17.5t-29.5 -24.5t-26 -34t-15.5 -44.5z" />
<glyph unicode="&#xab;" horiz-adv-x="796" d="M225 582l271 397h106l-246 -397l72 -398h-109zM526 582l271 397h106l-246 -397l72 -398h-108z" />
<glyph unicode="&#xac;" d="M178 647l23 107h827l-119 -564h-106l96 457h-721z" />
<glyph unicode="&#xad;" horiz-adv-x="569" d="M182 487l25 117h414l-25 -117h-414z" />
<glyph unicode="&#xae;" horiz-adv-x="1638" d="M229 739q43 207 181.5 384t333 280.5t395.5 103.5q205 0 355.5 -103.5t211.5 -280.5t18 -384q-45 -209 -182 -386t-331.5 -279.5t-397.5 -102.5t-353.5 102.5t-213 279.5t-17.5 386zM328 739q-39 -184 14 -337.5t183.5 -242.5t308.5 -89q272 0 502.5 194.5t289.5 474.5 q39 184 -14 338t-183.5 243t-310.5 89q-272 0 -501.5 -194.5t-288.5 -475.5zM614 297l193 903h287q147 0 195 -54t24 -175q-18 -88 -68.5 -140.5t-146.5 -70.5l-2 -4q37 -6 55 -12.5t34.5 -21.5t19.5 -34.5t1 -60.5t-11 -92.5t-28 -135.5q-6 -33 -8 -102h-104q-2 18 32 221 q0 2 5.5 25.5t7.5 39t-1 41t-15.5 40t-42 26.5t-72.5 12h-162l-86 -405h-107zM827 801h140q100 0 150 34.5t73 137.5q16 76 -14.5 102.5t-110.5 26.5h-174z" />
<glyph unicode="&#xaf;" horiz-adv-x="569" d="M281 1229l20 98h533l-21 -98h-532z" />
<glyph unicode="&#xb0;" horiz-adv-x="819" d="M346 1143q25 127 134.5 217t236.5 90t199 -91t45 -216q-29 -127 -138.5 -217t-234.5 -90q-129 0 -200 90t-42 217zM428 1143q-20 -94 31 -159.5t145 -65.5q92 0 173.5 65.5t101.5 159.5q18 92 -34 158.5t-147 66.5q-92 0 -173 -66.5t-97 -158.5z" />
<glyph unicode="&#xb1;" d="M41 0l22 106h828l-23 -106h-827zM162 571l22 107h361l76 356h106l-76 -356h361l-23 -107h-360l-76 -356h-107l76 356h-360z" />
<glyph unicode="&#xb2;" horiz-adv-x="544" d="M143 580l19 84q57 63 145 155t135 143.5t100.5 113t80 104.5t32.5 75q14 66 -15.5 89.5t-92.5 23.5q-135 0 -166 -141h-96q27 119 105.5 171t172.5 52q45 0 82 -8t68.5 -26.5t45 -55.5t3.5 -88q-18 -90 -97 -186.5t-393 -423.5h363l-19 -82h-473z" />
<glyph unicode="&#xb3;" horiz-adv-x="544" d="M190 791h103q-33 -141 102 -142q76 0 118 42t56 106q25 115 -7.5 158.5t-145.5 35.5l16 82q102 -8 150.5 27t68.5 131q12 61 -13.5 99t-86.5 38q-129 0 -154 -141h-102q14 98 86 160.5t176 62.5q121 0 171 -49t28 -160q-41 -186 -191 -209v-4q150 -23 109 -215 q-25 -119 -97.5 -182.5t-185.5 -63.5q-256 0 -201 224z" />
<glyph unicode="&#xb4;" horiz-adv-x="569" d="M397 1147l291 280h164l-352 -280h-103z" />
<glyph unicode="&#xb6;" horiz-adv-x="1155" d="M379 1100q80 373 440 379h359l-355 -1676h-106l332 1565h-175l-331 -1565h-107l197 928q-145 -2 -216 106.5t-38 262.5z" />
<glyph unicode="&#xb7;" horiz-adv-x="454" d="M246 440l33 156h151l-33 -156h-151z" />
<glyph unicode="&#xb8;" horiz-adv-x="569" d="M-20 -385l43 61q80 -29 124 -28q51 0 96.5 23.5t55.5 70.5q8 39 -17.5 59.5t-64.5 20.5q-47 0 -84 -21l-33 31l158 168h78l-109 -113l4 -4q33 10 64 11q63 0 103 -41t24 -109q-35 -168 -268 -168q-84 0 -174 39z" />
<glyph unicode="&#xb9;" horiz-adv-x="544" d="M358 1212l19 91q129 72 196 133h86l-182 -856h-92l160 753q-83 -64 -187 -121z" />
<glyph unicode="&#xba;" horiz-adv-x="544" d="M263 1020q-1 14 3 44t7 42t9.5 42t8.5 36t7 35.5t8 42t11.5 41t15.5 44t20.5 41t27.5 39t35.5 32t46 27.5t57.5 15t71 6t67.5 -6t51 -15t35 -27.5t22.5 -32t12 -39t3 -41t-4 -44t-6 -41t-8 -42t-8 -35.5t-8.5 -36t-8.5 -42t-10 -42t-15 -44t-21.5 -40t-29 -39t-36 -31.5 t-46 -28t-57 -15.5t-70.5 -6t-68 6t-50.5 15.5t-34.5 28t-22.5 31.5t-11.5 39t-4 40zM350 1051.5q-4 -35.5 2 -54t17.5 -39t36 -28.5t61.5 -8q43 0 75.5 14t52 33.5t36 60.5t24 69.5t19.5 84.5q10 45 14 69.5t7 60.5t-2 55.5t-17 40t-37 28.5t-61 8q-43 0 -75 -15.5 t-51.5 -35t-36 -59.5t-23.5 -68.5t-19 -83.5q-10 -45 -14.5 -71t-8.5 -61.5z" />
<glyph unicode="&#xbb;" horiz-adv-x="796" d="M145 184l240 398l-74 397h107l98 -397l-262 -398h-109zM446 184l240 398l-74 397h107l98 -397l-262 -398h-109z" />
<glyph unicode="&#xbc;" horiz-adv-x="1363" d="M111 -59l1220 1538h113l-1219 -1538h-114zM358 1212l19 91q129 72 196 133h86l-182 -856h-92l160 753q-83 -64 -187 -121zM764 213l22 100l400 543h139l-119 -561h109l-19 -82h-108l-45 -213h-92l45 213h-332zM866 295h248l103 487h-5z" />
<glyph unicode="&#xbd;" horiz-adv-x="1363" d="M92 -59l1221 1538h112l-1218 -1538h-115zM358 1212l19 91q129 72 196 133h86l-182 -856h-92l160 753q-83 -64 -187 -121zM803 0l18 84q57 63 145.5 155.5t135.5 143.5t100 112.5t80 104.5t33 76q14 66 -15.5 89t-93.5 23q-135 0 -166 -141h-96q25 119 104.5 171t174.5 52 q45 0 81.5 -8t68.5 -26.5t45.5 -55.5t2.5 -88q-18 -90 -97 -186t-392 -424h362l-18 -82h-473z" />
<glyph unicode="&#xbe;" horiz-adv-x="1363" d="M166 -59l1220 1538h113l-1218 -1538h-115zM190 791h103q-33 -141 102 -142q76 0 118 42t56 106q25 115 -7.5 158.5t-145.5 35.5l16 82q102 -8 150.5 27t68.5 131q12 61 -13.5 99t-86.5 38q-129 0 -154 -141h-102q14 98 86 160.5t176 62.5q121 0 171 -49t28 -160 q-41 -186 -191 -209v-4q150 -23 109 -215q-25 -119 -97.5 -182.5t-185.5 -63.5q-256 0 -201 224zM764 213l22 100l400 543h139l-119 -561h109l-19 -82h-108l-45 -213h-92l45 213h-332zM866 295h248l103 487h-5z" />
<glyph unicode="&#xbf;" horiz-adv-x="796" d="M123 -111q23 106 62.5 189.5t83.5 132.5t85 92t76 95.5t47 115.5l41 193h123l-37 -179q-20 -92 -56 -157.5t-76 -106.5t-81 -84t-79 -115.5t-60 -177.5q-10 -49 -14.5 -76.5t-2 -60.5t14.5 -50t40.5 -29.5t74.5 -12.5q49 0 85.5 19.5t58 55.5t34 71.5t22.5 84.5h131 q-29 -158 -114.5 -250t-239.5 -92q-170 0 -214 80t-5 262zM545 899l33 156h151l-33 -156h-151z" />
<glyph unicode="&#xc0;" horiz-adv-x="1138" d="M27 0l780 1479h156l147 -1479h-137l-37 389h-580l-198 -389h-131zM420 500h506l-74 835h-4zM702 1872h164l172 -281h-102z" />
<glyph unicode="&#xc1;" horiz-adv-x="1138" d="M27 0l780 1479h156l147 -1479h-137l-37 389h-580l-198 -389h-131zM420 500h506l-74 835h-4zM776 1591l291 281h164l-352 -281h-103z" />
<glyph unicode="&#xc2;" horiz-adv-x="1138" d="M27 0l780 1479h156l147 -1479h-137l-37 389h-580l-198 -389h-131zM420 500h506l-74 835h-4zM608 1587l291 285h137l172 -285h-131l-127 209l-211 -209h-131z" />
<glyph unicode="&#xc3;" horiz-adv-x="1138" d="M27 0l780 1479h156l147 -1479h-137l-37 389h-580l-198 -389h-131zM420 500h506l-74 835h-4zM604 1663q29 84 82 141q68 68 141 68q18 0 38 -6t33 -12.5t36.5 -19.5t34.5 -17q10 -6 31.5 -18.5t34 -18.5t29.5 -12.5t32 -6.5q39 0 68.5 33t43.5 78h78q-18 -78 -76 -139 q-61 -70 -135 -70q-18 0 -38.5 6t-35 12.5t-38 19.5t-33.5 17q-8 4 -32 17.5t-35 19.5t-29.5 12.5t-34.5 6.5q-37 0 -71 -35t-46 -76h-78z" />
<glyph unicode="&#xc4;" horiz-adv-x="1138" d="M27 0l780 1479h156l147 -1479h-137l-37 389h-580l-198 -389h-131zM420 500h506l-74 835h-4zM684 1614l45 207h131l-45 -207h-131zM1008 1614l45 207h131l-45 -207h-131z" />
<glyph unicode="&#xc5;" horiz-adv-x="1138" d="M27 0l780 1479h156l147 -1479h-137l-37 389h-580l-198 -389h-131zM420 500h506l-74 835h-4zM753.5 1761q16.5 78 84 134.5t146.5 56.5t122 -56.5t26.5 -134.5t-84 -135t-145.5 -57t-122 57t-27.5 135zM825 1761q-10 -47 17.5 -84t75.5 -37q47 0 90 37t53 84t-17.5 83 t-74.5 36q-49 0 -91 -35t-53 -84z" />
<glyph unicode="&#xc6;" horiz-adv-x="1593" d="M27 0l991 1479h792l-22 -111h-586l-63 -553h508l-25 -110h-498l-75 -594h493l-22 -111h-617l49 389h-530l-260 -389h-135zM498 500h469l108 880h-4z" />
<glyph unicode="&#xc7;" horiz-adv-x="1024" d="M207 -385l43 61q80 -29 125 -28q51 0 96 23.5t55 70.5q8 39 -17.5 59.5t-64.5 20.5q-47 0 -84 -21l-32 31l139 145q-72 10 -122 40t-79.5 66t-42 99.5t-14.5 114.5t10 139t22.5 144.5t32.5 158.5q23 111 37.5 170.5t43 154.5t56 147.5t73.5 118t100.5 98t130.5 56 t168 23.5q76 0 130 -17t87 -43t51 -67t23.5 -75.5t3.5 -82.5t-7.5 -76t-13.5 -67h-131q68 317 -166 318q-51 0 -95 -10.5t-78 -25.5t-64.5 -48t-52 -60.5t-44 -79t-36 -88t-31 -105.5t-27.5 -114t-26 -127q-27 -123 -39.5 -187.5t-22.5 -155.5t0 -136t33.5 -93t75 -66.5 t129.5 -18.5q119 0 195.5 93t111.5 249h139q-10 -45 -24.5 -90t-51.5 -114.5t-85 -121t-130 -89.5t-180 -38q-14 0 -20 2l-82 -86l4 -4q33 10 63 11q63 0 103.5 -41t23.5 -109q-35 -168 -268 -168q-84 0 -174 39z" />
<glyph unicode="&#xc8;" d="M154 0l313 1479h670l-23 -111h-539l-116 -553h514l-25 -110h-514l-127 -594h553l-22 -111h-684zM588 1872h164l172 -281h-103z" />
<glyph unicode="&#xc9;" d="M154 0l313 1479h670l-23 -111h-539l-116 -553h514l-25 -110h-514l-127 -594h553l-22 -111h-684zM662 1591l290 281h164l-352 -281h-102z" />
<glyph unicode="&#xca;" d="M154 0l313 1479h670l-23 -111h-539l-116 -553h514l-25 -110h-514l-127 -594h553l-22 -111h-684zM494 1587l290 285h138l172 -285h-131l-127 209l-211 -209h-131z" />
<glyph unicode="&#xcb;" d="M154 0l313 1479h670l-23 -111h-539l-116 -553h514l-25 -110h-514l-127 -594h553l-22 -111h-684zM569 1614l45 207h131l-45 -207h-131zM893 1614l45 207h131l-45 -207h-131z" />
<glyph unicode="&#xcc;" horiz-adv-x="454" d="M162 0l313 1479h131l-313 -1479h-131zM360 1872h164l172 -281h-102z" />
<glyph unicode="&#xcd;" horiz-adv-x="454" d="M162 0l313 1479h131l-313 -1479h-131zM434 1591l291 281h164l-352 -281h-103z" />
<glyph unicode="&#xce;" horiz-adv-x="454" d="M162 0l313 1479h131l-313 -1479h-131zM266 1587l291 285h137l172 -285h-131l-127 209l-211 -209h-131z" />
<glyph unicode="&#xcf;" horiz-adv-x="454" d="M162 0l313 1479h131l-313 -1479h-131zM342 1614l45 207h131l-45 -207h-131zM666 1614l45 207h131l-45 -207h-131z" />
<glyph unicode="&#xd0;" horiz-adv-x="1138" d="M154 0l161 758h-125l23 110h125l129 611h391q90 0 153.5 -15.5t107.5 -43t67.5 -77t33 -104.5t4.5 -138t-19.5 -167t-39.5 -201q-33 -160 -66.5 -267.5t-85.5 -201.5t-121 -148.5t-168 -85t-232 -30.5h-338zM307 111h160q104 0 173 9t127 42t94 76t71 132t60.5 187 t60.5 264q51 209 41.5 331t-86 169t-260.5 47h-173l-106 -500h311l-22 -110h-312z" />
<glyph unicode="&#xd1;" horiz-adv-x="1251" d="M158 0l313 1479h201l325 -1299l4 4l275 1295h131l-313 -1479h-199l-324 1313l-4 -4l-278 -1309h-131zM662 1663q29 84 81 141q68 68 142 68q18 0 37.5 -6t33 -12.5t37 -19.5t33.5 -17q10 -6 31.5 -18.5t34 -18.5t30 -12.5t31.5 -6.5q39 0 68.5 33t44.5 78h77 q-18 -78 -75 -139q-61 -70 -135 -70q-18 0 -39 6t-35.5 12.5t-38 19.5t-33.5 17q-8 4 -31.5 17.5t-35 19.5t-30 12.5t-34.5 6.5q-37 0 -71 -35t-46 -76h-77z" />
<glyph unicode="&#xd2;" horiz-adv-x="1138" d="M216 267q-5 52 6 147.5t22.5 155t35 170t38 170t43 154.5t56 147.5t74 118t100.5 98t130 56t169 23.5t158.5 -23.5t105.5 -56t58.5 -98t24.5 -118t-6 -147.5t-23.5 -154.5t-35 -170t-38 -170t-42 -155t-55 -147.5t-75 -117.5t-100.5 -98.5t-130 -56.5t-169 -23.5 t-158.5 23.5t-106.5 56.5t-58.5 98.5t-23.5 117.5zM350 260q10 -45 34 -93t75 -66.5t129 -18.5q51 0 94 10t78 25.5t65.5 48.5t52 60.5t43 78.5t35 88t31 105.5t27.5 113.5t28 127q27 123 38.5 187.5t21.5 156t0 136.5t-34 93t-75 66.5t-127 18.5q-51 0 -95 -10.5t-78 -25.5 t-64.5 -48t-52 -60.5t-44 -79t-36 -88t-30.5 -105.5t-27.5 -114t-26.5 -127q-27 -123 -39.5 -187.5t-22.5 -155.5t0 -136zM702 1872h164l172 -281h-102z" />
<glyph unicode="&#xd3;" horiz-adv-x="1138" d="M216 267q-5 52 6 147.5t22.5 155t35 170t38 170t43 154.5t56 147.5t74 118t100.5 98t130 56t169 23.5t158.5 -23.5t105.5 -56t58.5 -98t24.5 -118t-6 -147.5t-23.5 -154.5t-35 -170t-38 -170t-42 -155t-55 -147.5t-75 -117.5t-100.5 -98.5t-130 -56.5t-169 -23.5 t-158.5 23.5t-106.5 56.5t-58.5 98.5t-23.5 117.5zM350 260q10 -45 34 -93t75 -66.5t129 -18.5q51 0 94 10t78 25.5t65.5 48.5t52 60.5t43 78.5t35 88t31 105.5t27.5 113.5t28 127q27 123 38.5 187.5t21.5 156t0 136.5t-34 93t-75 66.5t-127 18.5q-51 0 -95 -10.5t-78 -25.5 t-64.5 -48t-52 -60.5t-44 -79t-36 -88t-30.5 -105.5t-27.5 -114t-26.5 -127q-27 -123 -39.5 -187.5t-22.5 -155.5t0 -136zM776 1591l291 281h164l-352 -281h-103z" />
<glyph unicode="&#xd4;" horiz-adv-x="1138" d="M216 267q-5 52 6 147.5t22.5 155t35 170t38 170t43 154.5t56 147.5t74 118t100.5 98t130 56t169 23.5t158.5 -23.5t105.5 -56t58.5 -98t24.5 -118t-6 -147.5t-23.5 -154.5t-35 -170t-38 -170t-42 -155t-55 -147.5t-75 -117.5t-100.5 -98.5t-130 -56.5t-169 -23.5 t-158.5 23.5t-106.5 56.5t-58.5 98.5t-23.5 117.5zM350 260q10 -45 34 -93t75 -66.5t129 -18.5q51 0 94 10t78 25.5t65.5 48.5t52 60.5t43 78.5t35 88t31 105.5t27.5 113.5t28 127q27 123 38.5 187.5t21.5 156t0 136.5t-34 93t-75 66.5t-127 18.5q-51 0 -95 -10.5t-78 -25.5 t-64.5 -48t-52 -60.5t-44 -79t-36 -88t-30.5 -105.5t-27.5 -114t-26.5 -127q-27 -123 -39.5 -187.5t-22.5 -155.5t0 -136zM608 1587l291 285h137l172 -285h-131l-127 209l-211 -209h-131z" />
<glyph unicode="&#xd5;" horiz-adv-x="1138" d="M216 267q-5 52 6 147.5t22.5 155t35 170t38 170t43 154.5t56 147.5t74 118t100.5 98t130 56t169 23.5t158.5 -23.5t105.5 -56t58.5 -98t24.5 -118t-6 -147.5t-23.5 -154.5t-35 -170t-38 -170t-42 -155t-55 -147.5t-75 -117.5t-100.5 -98.5t-130 -56.5t-169 -23.5 t-158.5 23.5t-106.5 56.5t-58.5 98.5t-23.5 117.5zM350 260q10 -45 34 -93t75 -66.5t129 -18.5q51 0 94 10t78 25.5t65.5 48.5t52 60.5t43 78.5t35 88t31 105.5t27.5 113.5t28 127q27 123 38.5 187.5t21.5 156t0 136.5t-34 93t-75 66.5t-127 18.5q-51 0 -95 -10.5t-78 -25.5 t-64.5 -48t-52 -60.5t-44 -79t-36 -88t-30.5 -105.5t-27.5 -114t-26.5 -127q-27 -123 -39.5 -187.5t-22.5 -155.5t0 -136zM604 1663q29 84 82 141q68 68 141 68q18 0 38 -6t33 -12.5t36.5 -19.5t34.5 -17q10 -6 31.5 -18.5t34 -18.5t29.5 -12.5t32 -6.5q39 0 68.5 33 t43.5 78h78q-18 -78 -76 -139q-61 -70 -135 -70q-18 0 -38.5 6t-35 12.5t-38 19.5t-33.5 17q-8 4 -32 17.5t-35 19.5t-29.5 12.5t-34.5 6.5q-37 0 -71 -35t-46 -76h-78z" />
<glyph unicode="&#xd6;" horiz-adv-x="1138" d="M216 267q-5 52 6 147.5t22.5 155t35 170t38 170t43 154.5t56 147.5t74 118t100.5 98t130 56t169 23.5t158.5 -23.5t105.5 -56t58.5 -98t24.5 -118t-6 -147.5t-23.5 -154.5t-35 -170t-38 -170t-42 -155t-55 -147.5t-75 -117.5t-100.5 -98.5t-130 -56.5t-169 -23.5 t-158.5 23.5t-106.5 56.5t-58.5 98.5t-23.5 117.5zM350 260q10 -45 34 -93t75 -66.5t129 -18.5q51 0 94 10t78 25.5t65.5 48.5t52 60.5t43 78.5t35 88t31 105.5t27.5 113.5t28 127q27 123 38.5 187.5t21.5 156t0 136.5t-34 93t-75 66.5t-127 18.5q-51 0 -95 -10.5t-78 -25.5 t-64.5 -48t-52 -60.5t-44 -79t-36 -88t-30.5 -105.5t-27.5 -114t-26.5 -127q-27 -123 -39.5 -187.5t-22.5 -155.5t0 -136zM684 1614l45 207h131l-45 -207h-131zM1008 1614l45 207h131l-45 -207h-131z" />
<glyph unicode="&#xd7;" d="M80 180l409 338l-266 338l92 76l267 -338l409 338l60 -76l-410 -338l266 -338l-92 -76l-266 338l-410 -338z" />
<glyph unicode="&#xd8;" horiz-adv-x="1138" d="M84 -27l152 195q-10 35 -16.5 73t-4.5 85t4 79.5t12.5 91t14.5 81t18.5 87t16.5 74.5q4 18 10 56q18 84 28.5 131t37 134t53 138t73.5 117.5t101.5 102.5t133.5 62.5t171 26.5q205 0 293 -121l129 168l59 -43l-153 -198q12 -35 18 -73t4 -85t-4 -81t-12.5 -92 t-14.5 -80.5t-18 -87t-16 -75.5q-4 -18 -13 -55q-16 -84 -27.5 -131t-38 -134t-53 -138.5t-72.5 -118t-100.5 -102t-133.5 -62.5t-173 -27q-207 0 -291 121l-120 -155zM346 311l744 957q-41 129 -224 129q-78 0 -137 -19.5t-103 -68.5t-74 -93.5t-57.5 -135.5t-41 -149.5 t-39.5 -176.5q-2 -10 -2 -15q-2 -10 -9 -30q-61 -292 -57 -398zM365 211q41 -129 223 -129q76 0 136 19.5t104 68.5t73 93t56.5 135t42 149.5t38.5 177.5q2 10 4 14q66 315 62 428z" />
<glyph unicode="&#xd9;" horiz-adv-x="1138" d="M233 453l218 1026h131l-197 -930q-10 -43 -14 -66.5t-11.5 -68.5t-7.5 -72t2 -66.5t11.5 -63.5t27 -51.5t43 -43t64.5 -25.5t88 -10q61 0 113.5 17.5t89 41t67.5 66.5t49.5 76.5t36 90t24.5 87.5t19 88l197 930h131l-217 -1026q-102 -481 -534.5 -481.5t-330.5 481.5z M702 1872h164l172 -281h-102z" />
<glyph unicode="&#xda;" horiz-adv-x="1138" d="M233 453l218 1026h131l-197 -930q-10 -43 -14 -66.5t-11.5 -68.5t-7.5 -72t2 -66.5t11.5 -63.5t27 -51.5t43 -43t64.5 -25.5t88 -10q61 0 113.5 17.5t89 41t67.5 66.5t49.5 76.5t36 90t24.5 87.5t19 88l197 930h131l-217 -1026q-102 -481 -534.5 -481.5t-330.5 481.5z M776 1591l291 281h164l-352 -281h-103z" />
<glyph unicode="&#xdb;" horiz-adv-x="1138" d="M233 453l218 1026h131l-197 -930q-10 -43 -14 -66.5t-11.5 -68.5t-7.5 -72t2 -66.5t11.5 -63.5t27 -51.5t43 -43t64.5 -25.5t88 -10q61 0 113.5 17.5t89 41t67.5 66.5t49.5 76.5t36 90t24.5 87.5t19 88l197 930h131l-217 -1026q-102 -481 -534.5 -481.5t-330.5 481.5z M608 1587l291 285h137l172 -285h-131l-127 209l-211 -209h-131z" />
<glyph unicode="&#xdc;" horiz-adv-x="1138" d="M233 453l218 1026h131l-197 -930q-10 -43 -14 -66.5t-11.5 -68.5t-7.5 -72t2 -66.5t11.5 -63.5t27 -51.5t43 -43t64.5 -25.5t88 -10q61 0 113.5 17.5t89 41t67.5 66.5t49.5 76.5t36 90t24.5 87.5t19 88l197 930h131l-217 -1026q-102 -481 -534.5 -481.5t-330.5 481.5z M684 1614l45 207h131l-45 -207h-131zM1008 1614l45 207h131l-45 -207h-131z" />
<glyph unicode="&#xdd;" horiz-adv-x="1024" d="M340 1479h147l183 -736l510 736h131l-604 -865l-132 -614h-131l131 614zM719 1591l291 281h164l-353 -281h-102z" />
<glyph unicode="&#xde;" d="M131 0l313 1479h131l-69 -336h274q31 0 55.5 -2t59.5 -9.5t58.5 -21.5t46 -41t33.5 -63.5t11 -93t-16 -128.5q-47 -225 -150.5 -328.5t-289.5 -103.5h-250l-76 -352h-131zM360 463h244q111 0 182.5 66.5t106.5 230.5q12 61 14 107t-8 75t-25.5 48.5t-42 27.5t-50 11 t-58.5 3h-242z" />
<glyph unicode="&#xdf;" horiz-adv-x="1024" d="M137 0l248 1163q8 45 25.5 87t51.5 90.5t80 84t118.5 59t158.5 23.5q125 0 202 -71.5t50 -194.5q-14 -63 -63.5 -132t-100.5 -117t-98 -104.5t-55 -99.5q-10 -43 16.5 -89t68.5 -90t84 -92t64 -111.5t6 -131.5q-31 -145 -129 -219.5t-246 -74.5q-135 0 -187 71.5 t-19 204.5h123q-18 -90 10 -134t119 -44q80 0 133 49t71 129q12 57 -12.5 113.5t-66 100.5t-83.5 88t-68 96.5t-13 105.5q14 70 63 139.5t101.5 117.5t100.5 111.5t60 120.5q14 74 -38 117t-128 43q-225 0 -286 -287l-238 -1122h-123z" />
<glyph unicode="&#xe0;" d="M139 285q12 66 41 118t61.5 85.5t80 59t88.5 38t98 20.5t95 11.5t96.5 5.5t84.5 4l19 86q27 121 -7 182t-151 61q-90 0 -155.5 -45t-83.5 -133h-132q37 141 146.5 209t255.5 68q23 0 40 -1t42.5 -4t45 -8.5t43 -14.5t41 -23.5t32 -35t21.5 -47t7 -62.5t-8 -79l-111 -520 q-29 -139 -43 -260h-127l27 127h-4q-129 -147 -324 -147q-135 0 -192 82.5t-27 222.5zM270 291q-18 -92 17 -152.5t125 -60.5q104 0 197.5 80t113.5 182l41 188q-14 0 -60.5 -1t-68 -2t-65.5 -5t-68.5 -11t-61.5 -17.5t-58.5 -29t-46 -42t-40.5 -56t-25 -73.5zM494 1427h163 l172 -280h-102z" />
<glyph unicode="&#xe1;" d="M139 285q12 66 41 118t61.5 85.5t80 59t88.5 38t98 20.5t95 11.5t96.5 5.5t84.5 4l19 86q27 121 -7 182t-151 61q-90 0 -155.5 -45t-83.5 -133h-132q37 141 146.5 209t255.5 68q23 0 40 -1t42.5 -4t45 -8.5t43 -14.5t41 -23.5t32 -35t21.5 -47t7 -62.5t-8 -79l-111 -520 q-29 -139 -43 -260h-127l27 127h-4q-129 -147 -324 -147q-135 0 -192 82.5t-27 222.5zM270 291q-18 -92 17 -152.5t125 -60.5q104 0 197.5 80t113.5 182l41 188q-14 0 -60.5 -1t-68 -2t-65.5 -5t-68.5 -11t-61.5 -17.5t-58.5 -29t-46 -42t-40.5 -56t-25 -73.5zM567 1147 l291 280h164l-352 -280h-103z" />
<glyph unicode="&#xe2;" d="M139 285q12 66 41 118t61.5 85.5t80 59t88.5 38t98 20.5t95 11.5t96.5 5.5t84.5 4l19 86q27 121 -7 182t-151 61q-90 0 -155.5 -45t-83.5 -133h-132q37 141 146.5 209t255.5 68q23 0 40 -1t42.5 -4t45 -8.5t43 -14.5t41 -23.5t32 -35t21.5 -47t7 -62.5t-8 -79l-111 -520 q-29 -139 -43 -260h-127l27 127h-4q-129 -147 -324 -147q-135 0 -192 82.5t-27 222.5zM270 291q-18 -92 17 -152.5t125 -60.5q104 0 197.5 80t113.5 182l41 188q-14 0 -60.5 -1t-68 -2t-65.5 -5t-68.5 -11t-61.5 -17.5t-58.5 -29t-46 -42t-40.5 -56t-25 -73.5zM399 1143 l291 284h137l172 -284h-131l-127 209l-211 -209h-131z" />
<glyph unicode="&#xe3;" d="M139 285q12 66 41 118t61.5 85.5t80 59t88.5 38t98 20.5t95 11.5t96.5 5.5t84.5 4l19 86q27 121 -7 182t-151 61q-90 0 -155.5 -45t-83.5 -133h-132q37 141 146.5 209t255.5 68q23 0 40 -1t42.5 -4t45 -8.5t43 -14.5t41 -23.5t32 -35t21.5 -47t7 -62.5t-8 -79l-111 -520 q-29 -139 -43 -260h-127l27 127h-4q-129 -147 -324 -147q-135 0 -192 82.5t-27 222.5zM270 291q-18 -92 17 -152.5t125 -60.5q104 0 197.5 80t113.5 182l41 188q-14 0 -60.5 -1t-68 -2t-65.5 -5t-68.5 -11t-61.5 -17.5t-58.5 -29t-46 -42t-40.5 -56t-25 -73.5zM393 1219 q29 84 84 141q68 68 141 67q18 0 38 -6t33 -12t37 -19.5t32 -17.5q12 -6 33.5 -18.5t34 -18.5t29.5 -12t32 -6q39 0 68.5 32.5t43.5 77.5h78q-20 -78 -76 -139q-61 -70 -137 -69q-16 0 -36.5 6t-35 12t-38 19.5t-33.5 17.5q-8 4 -31.5 17.5t-35 19.5t-30 12t-34.5 6 q-37 0 -71 -34.5t-48 -75.5h-78z" />
<glyph unicode="&#xe4;" d="M139 285q12 66 41 118t61.5 85.5t80 59t88.5 38t98 20.5t95 11.5t96.5 5.5t84.5 4l19 86q27 121 -7 182t-151 61q-90 0 -155.5 -45t-83.5 -133h-132q37 141 146.5 209t255.5 68q23 0 40 -1t42.5 -4t45 -8.5t43 -14.5t41 -23.5t32 -35t21.5 -47t7 -62.5t-8 -79l-111 -520 q-29 -139 -43 -260h-127l27 127h-4q-129 -147 -324 -147q-135 0 -192 82.5t-27 222.5zM270 291q-18 -92 17 -152.5t125 -60.5q104 0 197.5 80t113.5 182l41 188q-14 0 -60.5 -1t-68 -2t-65.5 -5t-68.5 -11t-61.5 -17.5t-58.5 -29t-46 -42t-40.5 -56t-25 -73.5zM475 1169 l45 207h131l-45 -207h-131zM799 1169l45 207h131l-45 -207h-131z" />
<glyph unicode="&#xe5;" d="M139 285q12 66 41 118t61.5 85.5t80 59t88.5 38t98 20.5t95 11.5t96.5 5.5t84.5 4l19 86q27 121 -7 182t-151 61q-90 0 -155.5 -45t-83.5 -133h-132q37 141 146.5 209t255.5 68q23 0 40 -1t42.5 -4t45 -8.5t43 -14.5t41 -23.5t32 -35t21.5 -47t7 -62.5t-8 -79l-111 -520 q-29 -139 -43 -260h-127l27 127h-4q-129 -147 -324 -147q-135 0 -192 82.5t-27 222.5zM270 291q-18 -92 17 -152.5t125 -60.5q104 0 197.5 80t113.5 182l41 188q-14 0 -60.5 -1t-68 -2t-65.5 -5t-68.5 -11t-61.5 -17.5t-58.5 -29t-46 -42t-40.5 -56t-25 -73.5zM544.5 1317 q16.5 78 84 134t146.5 56t122 -56t26.5 -134t-84 -135.5t-145.5 -57.5t-122 57.5t-27.5 135.5zM616 1317q-10 -47 18 -84t75 -37q45 0 89 37t54 84t-17.5 83t-74.5 36q-49 0 -91 -35t-53 -84z" />
<glyph unicode="&#xe6;" horiz-adv-x="1478" d="M135 270q12 55 33.5 101.5t45.5 79t60.5 59.5t67.5 43t79 27.5t81 17.5t88 9t86 3h88h24q10 45 15.5 71t9.5 68t2 66.5t-12 55t-28.5 47t-51.5 27.5t-78 11q-90 0 -155.5 -45t-83.5 -133h-132q37 141 146.5 209t255.5 68q94 0 165.5 -40t86.5 -118q55 72 139 115t164 43 q74 0 128 -16.5t86 -39t48 -67.5t21.5 -80t-1 -101.5t-13.5 -105.5t-23 -115q-2 -12 -4 -18h-590l-21 -100q-14 -61 -15 -113.5t11 -106t54 -84t112 -30.5q113 0 184.5 64.5t94.5 172.5h129q-49 -180 -157 -257.5t-271 -77.5q-104 0 -175 49t-77 135q-123 -184 -334 -184 q-147 0 -230.5 74.5t-52.5 215.5zM268 279q-23 -100 26.5 -150.5t154.5 -50.5q63 0 115 30.5t85 75.5t59.5 106.5t39 114t20.5 107.5q-25 -2 -76 -3t-79.5 -2t-76 -7t-75 -14.5t-63.5 -25t-58.5 -40t-42 -60t-29.5 -81.5zM903 610h467q23 106 24 183t-44 120t-140 43 q-109 0 -190.5 -94t-116.5 -252z" />
<glyph unicode="&#xe7;" horiz-adv-x="796" d="M94 -385l43 61q80 -29 125 -28q51 0 96 23.5t56 70.5q8 39 -17.5 59.5t-64.5 20.5q-47 0 -84 -21l-33 31l141 152q-45 6 -79.5 20t-58 31.5t-39 47.5t-24 54.5t-9.5 67.5t0 70.5t9.5 77.5t14.5 78t16 81q53 252 105 342q115 201 352 201q139 0 200.5 -80t22.5 -238h-123 q55 219 -137 219q-57 0 -108.5 -31.5t-81.5 -86.5q-47 -82 -99 -326q-10 -47 -15 -72.5t-12 -73t-8 -75t-1 -65.5t10 -60.5t24.5 -45t40 -32.5t60.5 -10q111 0 159 57.5t78 169.5h123q-14 -78 -46 -138.5t-67.5 -94t-80.5 -55t-80 -29.5t-70 -8l-90 -93l4 -4q33 10 64 11 q63 0 103 -41t24 -109q-35 -168 -269 -168q-84 0 -174 39z" />
<glyph unicode="&#xe8;" d="M176 365l53 253q92 436 449 437q76 0 129 -16.5t86 -39t48 -70.5t21.5 -85t-3 -108.5t-18 -114.5t-26.5 -129h-589l-17 -80q-14 -61 -15 -113.5t11 -106t54 -84t112 -30.5q113 0 184.5 64.5t94.5 172.5h129q-49 -180 -157 -257.5t-271 -77.5q-356 0 -275 385zM346 590 h467q25 115 26 196.5t-42 125.5t-140 44q-137 0 -203.5 -89t-107.5 -277zM494 1427h163l172 -280h-102z" />
<glyph unicode="&#xe9;" d="M176 365l53 253q92 436 449 437q76 0 129 -16.5t86 -39t48 -70.5t21.5 -85t-3 -108.5t-18 -114.5t-26.5 -129h-589l-17 -80q-14 -61 -15 -113.5t11 -106t54 -84t112 -30.5q113 0 184.5 64.5t94.5 172.5h129q-49 -180 -157 -257.5t-271 -77.5q-356 0 -275 385zM346 590 h467q25 115 26 196.5t-42 125.5t-140 44q-137 0 -203.5 -89t-107.5 -277zM567 1147l291 280h164l-352 -280h-103z" />
<glyph unicode="&#xea;" d="M176 365l53 253q92 436 449 437q76 0 129 -16.5t86 -39t48 -70.5t21.5 -85t-3 -108.5t-18 -114.5t-26.5 -129h-589l-17 -80q-14 -61 -15 -113.5t11 -106t54 -84t112 -30.5q113 0 184.5 64.5t94.5 172.5h129q-49 -180 -157 -257.5t-271 -77.5q-356 0 -275 385zM346 590 h467q25 115 26 196.5t-42 125.5t-140 44q-137 0 -203.5 -89t-107.5 -277zM399 1143l291 284h137l172 -284h-131l-127 209l-211 -209h-131z" />
<glyph unicode="&#xeb;" d="M176 365l53 253q92 436 449 437q76 0 129 -16.5t86 -39t48 -70.5t21.5 -85t-3 -108.5t-18 -114.5t-26.5 -129h-589l-17 -80q-14 -61 -15 -113.5t11 -106t54 -84t112 -30.5q113 0 184.5 64.5t94.5 172.5h129q-49 -180 -157 -257.5t-271 -77.5q-356 0 -275 385zM346 590 h467q25 115 26 196.5t-42 125.5t-140 44q-137 0 -203.5 -89t-107.5 -277zM475 1169l45 207h131l-45 -207h-131zM799 1169l45 207h131l-45 -207h-131z" />
<glyph unicode="&#xec;" horiz-adv-x="454" d="M166 0l219 1034h123l-219 -1034h-123zM266 1427h164l172 -280h-102z" />
<glyph unicode="&#xed;" horiz-adv-x="454" d="M166 0l219 1034h123l-219 -1034h-123zM340 1147l291 280h164l-353 -280h-102z" />
<glyph unicode="&#xee;" horiz-adv-x="454" d="M166 0l219 1034h123l-219 -1034h-123zM172 1143l291 284h137l172 -284h-131l-127 209l-211 -209h-131z" />
<glyph unicode="&#xef;" horiz-adv-x="454" d="M166 0l219 1034h123l-219 -1034h-123zM248 1169l45 207h131l-45 -207h-131zM571 1169l45 207h132l-46 -207h-131z" />
<glyph unicode="&#xf0;" d="M184 406l47 223q45 205 158 315.5t289 110.5q92 0 134 -22.5t56 -67.5l6 4q16 96 -22.5 199.5t-85.5 142.5l-215 -107l-53 62l209 102q-23 14 -31 19.5t-22.5 13.5t-17.5 10t-17.5 9t-18.5 8.5t-27.5 10.5t-35.5 15l104 76q98 -33 184 -103l205 103l49 -62l-192 -96 q43 -53 66.5 -105.5t37 -138.5t1 -213t-49.5 -303l-45 -206q-43 -205 -155.5 -315.5t-291 -110.5t-244 110.5t-22.5 315.5zM297 246.5q2 -58.5 20.5 -93t56.5 -55t97 -20.5q74 0 128 28.5t91 91t60.5 135.5t48.5 185q18 88 26.5 149.5t6 120t-19.5 93t-56.5 55t-98.5 20.5 q-74 0 -127 -28.5t-91 -91t-61.5 -135t-45.5 -183.5q-18 -88 -27.5 -150.5t-7.5 -121z" />
<glyph unicode="&#xf1;" d="M125 0l219 1034h123l-27 -127h4q133 147 281 148q74 0 124 -21.5t71.5 -53.5t28.5 -79t4 -86t-13 -86l-156 -729h-122l153 723q23 102 -9 167.5t-132 65.5q-94 0 -174 -73.5t-115 -233.5l-137 -649h-123zM393 1219q29 84 84 141q68 68 141 67q18 0 38 -6t33 -12t37 -19.5 t32 -17.5q12 -6 33.5 -18.5t34 -18.5t29.5 -12t32 -6q39 0 68.5 32.5t43.5 77.5h78q-20 -78 -76 -139q-61 -70 -137 -69q-16 0 -36.5 6t-35 12t-38 19.5t-33.5 17.5q-8 4 -31.5 17.5t-35 19.5t-30 12t-34.5 6q-37 0 -71 -34.5t-48 -75.5h-78z" />
<glyph unicode="&#xf2;" d="M184 406l47 223q45 205 158 315.5t290 110.5t243.5 -110.5t21.5 -315.5l-47 -223q-43 -205 -155.5 -315.5t-291 -110.5t-244 110.5t-22.5 315.5zM297 246.5q2 -58.5 20.5 -93t56.5 -55t97 -20.5q74 0 128 28.5t91 91t60.5 135.5t48.5 185q18 88 26.5 149.5t6 120 t-19.5 93t-56.5 55t-98.5 20.5q-74 0 -127 -28.5t-91 -91t-61.5 -135t-45.5 -183.5q-18 -88 -27.5 -150.5t-7.5 -121zM494 1427h163l172 -280h-102z" />
<glyph unicode="&#xf3;" d="M184 406l47 223q45 205 158 315.5t290 110.5t243.5 -110.5t21.5 -315.5l-47 -223q-43 -205 -155.5 -315.5t-291 -110.5t-244 110.5t-22.5 315.5zM297 246.5q2 -58.5 20.5 -93t56.5 -55t97 -20.5q74 0 128 28.5t91 91t60.5 135.5t48.5 185q18 88 26.5 149.5t6 120 t-19.5 93t-56.5 55t-98.5 20.5q-74 0 -127 -28.5t-91 -91t-61.5 -135t-45.5 -183.5q-18 -88 -27.5 -150.5t-7.5 -121zM567 1147l291 280h164l-352 -280h-103z" />
<glyph unicode="&#xf4;" d="M184 406l47 223q45 205 158 315.5t290 110.5t243.5 -110.5t21.5 -315.5l-47 -223q-43 -205 -155.5 -315.5t-291 -110.5t-244 110.5t-22.5 315.5zM297 246.5q2 -58.5 20.5 -93t56.5 -55t97 -20.5q74 0 128 28.5t91 91t60.5 135.5t48.5 185q18 88 26.5 149.5t6 120 t-19.5 93t-56.5 55t-98.5 20.5q-74 0 -127 -28.5t-91 -91t-61.5 -135t-45.5 -183.5q-18 -88 -27.5 -150.5t-7.5 -121zM399 1143l291 284h137l172 -284h-131l-127 209l-211 -209h-131z" />
<glyph unicode="&#xf5;" d="M184 406l47 223q45 205 158 315.5t290 110.5t243.5 -110.5t21.5 -315.5l-47 -223q-43 -205 -155.5 -315.5t-291 -110.5t-244 110.5t-22.5 315.5zM297 246.5q2 -58.5 20.5 -93t56.5 -55t97 -20.5q74 0 128 28.5t91 91t60.5 135.5t48.5 185q18 88 26.5 149.5t6 120 t-19.5 93t-56.5 55t-98.5 20.5q-74 0 -127 -28.5t-91 -91t-61.5 -135t-45.5 -183.5q-18 -88 -27.5 -150.5t-7.5 -121zM393 1219q29 84 84 141q68 68 141 67q18 0 38 -6t33 -12t37 -19.5t32 -17.5q12 -6 33.5 -18.5t34 -18.5t29.5 -12t32 -6q39 0 68.5 32.5t43.5 77.5h78 q-20 -78 -76 -139q-61 -70 -137 -69q-16 0 -36.5 6t-35 12t-38 19.5t-33.5 17.5q-8 4 -31.5 17.5t-35 19.5t-30 12t-34.5 6q-37 0 -71 -34.5t-48 -75.5h-78z" />
<glyph unicode="&#xf6;" d="M184 406l47 223q45 205 158 315.5t290 110.5t243.5 -110.5t21.5 -315.5l-47 -223q-43 -205 -155.5 -315.5t-291 -110.5t-244 110.5t-22.5 315.5zM297 246.5q2 -58.5 20.5 -93t56.5 -55t97 -20.5q74 0 128 28.5t91 91t60.5 135.5t48.5 185q18 88 26.5 149.5t6 120 t-19.5 93t-56.5 55t-98.5 20.5q-74 0 -127 -28.5t-91 -91t-61.5 -135t-45.5 -183.5q-18 -88 -27.5 -150.5t-7.5 -121zM475 1169l45 207h131l-45 -207h-131zM799 1169l45 207h131l-45 -207h-131z" />
<glyph unicode="&#xf7;" d="M139 465l23 106h827l-22 -106h-828zM379 2l33 156h151l-33 -156h-151zM565 879l33 155h152l-33 -155h-152z" />
<glyph unicode="&#xf8;" d="M49 -49l135 162q-43 92 0 293l54 245q8 39 14 64.5t22.5 72t36 78t54 70.5t76.5 62.5t103.5 40t133.5 16.5q162 0 229 -78l119 143l53 -39l-131 -157q18 -49 21.5 -97.5t-1.5 -80t-18 -95.5l-53 -245q-45 -211 -150.5 -318.5t-295.5 -107.5q-160 -1 -228 73l-121 -143z M293 244l528 628q-23 84 -164 84q-143 0 -208.5 -96t-116.5 -342q-41 -192 -39 -274zM311 160q35 -82 160 -82q27 0 52.5 4t45 11t36 14.5t30.5 19.5t24.5 20.5t19.5 21.5t13 18.5t10 16.5l7 11q39 61 90 303q39 186 37 268z" />
<glyph unicode="&#xf9;" d="M184 181.5q-4 58.5 13 121.5l155 731h123l-149 -710q-4 -16 -6.5 -23.5t-5.5 -37.5t-1 -49t8.5 -48t20.5 -45.5t40 -29.5t62 -13q59 0 110.5 24.5t84.5 62.5t53.5 73.5t26.5 66.5l153 729h123l-219 -1034h-106l24 115h-4q-72 -70 -139.5 -102.5t-149.5 -32.5 q-78 0 -127 26.5t-67.5 71.5t-22.5 103.5zM494 1427h163l172 -280h-102z" />
<glyph unicode="&#xfa;" d="M184 181.5q-4 58.5 13 121.5l155 731h123l-149 -710q-4 -16 -6.5 -23.5t-5.5 -37.5t-1 -49t8.5 -48t20.5 -45.5t40 -29.5t62 -13q59 0 110.5 24.5t84.5 62.5t53.5 73.5t26.5 66.5l153 729h123l-219 -1034h-106l24 115h-4q-72 -70 -139.5 -102.5t-149.5 -32.5 q-78 0 -127 26.5t-67.5 71.5t-22.5 103.5zM567 1147l291 280h164l-352 -280h-103z" />
<glyph unicode="&#xfb;" d="M184 181.5q-4 58.5 13 121.5l155 731h123l-149 -710q-4 -16 -6.5 -23.5t-5.5 -37.5t-1 -49t8.5 -48t20.5 -45.5t40 -29.5t62 -13q59 0 110.5 24.5t84.5 62.5t53.5 73.5t26.5 66.5l153 729h123l-219 -1034h-106l24 115h-4q-72 -70 -139.5 -102.5t-149.5 -32.5 q-78 0 -127 26.5t-67.5 71.5t-22.5 103.5zM399 1143l291 284h137l172 -284h-131l-127 209l-211 -209h-131z" />
<glyph unicode="&#xfc;" d="M184 181.5q-4 58.5 13 121.5l155 731h123l-149 -710q-4 -16 -6.5 -23.5t-5.5 -37.5t-1 -49t8.5 -48t20.5 -45.5t40 -29.5t62 -13q59 0 110.5 24.5t84.5 62.5t53.5 73.5t26.5 66.5l153 729h123l-219 -1034h-106l24 115h-4q-72 -70 -139.5 -102.5t-149.5 -32.5 q-78 0 -127 26.5t-67.5 71.5t-22.5 103.5zM475 1169l45 207h131l-45 -207h-131zM799 1169l45 207h131l-45 -207h-131z" />
<glyph unicode="&#xfd;" horiz-adv-x="796" d="M143 -391l205 389l-108 1036h133l71 -848h5l423 848h123l-731 -1425h-121zM512 1147l291 280h164l-353 -280h-102z" />
<glyph unicode="&#xfe;" d="M45 -391l397 1870h123l-121 -570l7 2q59 72 136 108t154 36q66 0 113 -18.5t73.5 -45t39 -74t15.5 -84t-4 -96t-13.5 -92.5t-18.5 -88q-6 -27 -8 -39q-18 -84 -34.5 -145.5t-52.5 -141t-79 -130t-112.5 -86t-155.5 -35.5q-168 0 -223 135l-5 2l-108 -508h-123zM342 426 q-35 -168 10 -258t135 -90q47 0 87 12t69 30.5t52.5 53.5t40 65.5t31.5 83t24.5 90.5t22.5 101.5t20.5 101t13.5 91t4 84t-11.5 66.5t-29.5 55.5t-54 31.5t-83 12q-33 0 -73 -19t-83 -57t-80 -109t-57 -161z" />
<glyph unicode="&#xff;" horiz-adv-x="796" d="M143 -391l205 389l-108 1036h133l71 -848h5l423 848h123l-731 -1425h-121zM420 1169l45 207h131l-45 -207h-131zM743 1169l45 207h132l-46 -207h-131z" />
<glyph unicode="&#x152;" horiz-adv-x="1593" d="M220 336q-1 41 12.5 122t22.5 131t32 150q4 18 12 58q16 88 27.5 136t38 133t54 133t75 110.5t103.5 95.5t139 57.5t182 24.5q39 0 132 -4t97 -4h663l-22 -111h-533l-116 -553h510l-25 -110h-510l-127 -594h547l-23 -111h-677q-31 0 -89 -4q-63 -4 -108 -4 q-84 0 -148.5 11t-111.5 27.5t-78 52.5t-50.5 64.5t-23.5 88t-5 100.5zM361.5 387q-5.5 -84 12 -127t53.5 -84t103.5 -57.5t167.5 -16.5q23 0 49.5 1t58.5 3.5t50 2.5l266 1251q-176 16 -215 16q-63 0 -113.5 -9t-92.5 -30.5t-72.5 -47t-58 -70.5t-47 -88.5t-39 -113 t-34 -130t-34.5 -154.5q-27 -123 -38 -192.5t-16.5 -153.5z" />
<glyph unicode="&#x153;" horiz-adv-x="1478" d="M184 406l54 245q8 39 14 64.5t22.5 72t36 78t54 70.5t76.5 62.5t103.5 40t133.5 16.5q113 0 173 -43t83 -138q113 180 313 181q76 0 129.5 -16.5t86 -39t48 -70.5t21.5 -85t-3 -108.5t-17.5 -114.5t-26.5 -129h-590l-16 -80q-14 -61 -15.5 -113.5t11 -106t54.5 -84 t111 -30.5q113 0 184.5 64.5t94.5 172.5h129q-49 -180 -156.5 -257.5t-271.5 -77.5q-43 0 -76 5t-69.5 20t-63.5 49t-41 85q-72 -94 -139 -126.5t-180 -32.5q-190 0 -251 107.5t-16 318.5zM291 215l2 -11t4 -16.5t6 -18.5t10 -21.5t15.5 -20.5t23 -19.5t29.5 -14.5t39.5 -11 t50.5 -4t52.5 4t45 11t36 14.5t30.5 19.5t24.5 20.5t19.5 21.5t13 18.5t10 16.5l7 11q39 61 90 303q20 98 29.5 164t7.5 122t-21.5 87t-57.5 48t-100 17q-143 0 -208.5 -96t-116.5 -342q-51 -242 -41 -303zM915 590h467q25 115 26 196.5t-42 125.5t-139 44q-137 0 -204 -89 t-108 -277z" />
<glyph unicode="&#x178;" horiz-adv-x="1024" d="M340 1479h147l183 -736l510 736h131l-604 -865l-132 -614h-131l131 614zM627 1614l45 207h131l-45 -207h-131zM950 1614l45 207h131l-45 -207h-131z" />
<glyph unicode="&#x2c6;" horiz-adv-x="569" d="M229 1143l291 284h137l172 -284h-131l-127 209l-211 -209h-131z" />
<glyph unicode="&#x2dc;" horiz-adv-x="569" d="M223 1219q29 84 84 141q68 68 142 67q18 0 37.5 -6t32.5 -12t37 -19.5t32 -17.5q12 -6 33.5 -18.5t34 -18.5t29.5 -12t32 -6q39 0 68.5 32.5t43.5 77.5h78q-20 -78 -76 -139q-61 -70 -137 -69q-16 0 -36.5 6t-35 12t-38 19.5t-33.5 17.5q-8 4 -31.5 17.5t-35 19.5t-30 12 t-34.5 6q-37 0 -71 -34.5t-48 -75.5h-78z" />
<glyph unicode="&#x2000;" horiz-adv-x="976" />
<glyph unicode="&#x2001;" horiz-adv-x="1952" />
<glyph unicode="&#x2002;" horiz-adv-x="976" />
<glyph unicode="&#x2003;" horiz-adv-x="1952" />
<glyph unicode="&#x2004;" horiz-adv-x="650" />
<glyph unicode="&#x2005;" horiz-adv-x="488" />
<glyph unicode="&#x2006;" horiz-adv-x="325" />
<glyph unicode="&#x2007;" horiz-adv-x="325" />
<glyph unicode="&#x2008;" horiz-adv-x="244" />
<glyph unicode="&#x2009;" horiz-adv-x="390" />
<glyph unicode="&#x200a;" horiz-adv-x="108" />
<glyph unicode="&#x2010;" horiz-adv-x="569" d="M182 487l25 117h414l-25 -117h-414z" />
<glyph unicode="&#x2011;" horiz-adv-x="569" d="M182 487l25 117h414l-25 -117h-414z" />
<glyph unicode="&#x2012;" horiz-adv-x="569" d="M182 487l25 117h414l-25 -117h-414z" />
<glyph unicode="&#x2013;" horiz-adv-x="1024" d="M113 532l20 99h1024l-20 -99h-1024z" />
<glyph unicode="&#x2014;" horiz-adv-x="2048" d="M113 532l20 99h2048l-20 -99h-2048z" />
<glyph unicode="&#x2018;" horiz-adv-x="454" d="M346 1108l201 371h108l-159 -371h-150z" />
<glyph unicode="&#x2019;" horiz-adv-x="454" d="M346 1108l160 371h149l-200 -371h-109z" />
<glyph unicode="&#x201a;" horiz-adv-x="454" d="M66 -215l159 371h150l-201 -371h-108z" />
<glyph unicode="&#x201c;" horiz-adv-x="796" d="M367 1108l200 371h109l-160 -371h-149zM670 1108l200 371h109l-160 -371h-149z" />
<glyph unicode="&#x201d;" horiz-adv-x="796" d="M367 1108l159 371h150l-201 -371h-108zM670 1108l159 371h150l-201 -371h-108z" />
<glyph unicode="&#x201e;" horiz-adv-x="796" d="M86 -215l160 371h149l-200 -371h-109zM389 -215l160 371h149l-200 -371h-109z" />
<glyph unicode="&#x2022;" horiz-adv-x="1241" d="M410 737q31 152 163 260.5t281 108.5q152 0 238 -108.5t55 -260.5q-33 -150 -166 -259t-285 -109q-147 0 -233 109.5t-53 258.5z" />
<glyph unicode="&#x2026;" horiz-adv-x="2048" d="M266 0l33 156h152l-33 -156h-152zM948 0l33 156h152l-33 -156h-152zM1630 0l33 156h152l-33 -156h-152z" />
<glyph unicode="&#x202f;" horiz-adv-x="390" />
<glyph unicode="&#x2039;" horiz-adv-x="454" d="M205 582l270 397h107l-246 -397l72 -398h-109z" />
<glyph unicode="&#x203a;" horiz-adv-x="454" d="M125 184l240 398l-74 397h106l99 -397l-263 -398h-108z" />
<glyph unicode="&#x205f;" horiz-adv-x="488" />
<glyph unicode="&#x20ac;" d="M125 539l55 110h74l14 64q12 55 19 80h-109l58 110h77q25 100 51.5 175t69.5 150t98.5 122t137.5 75.5t186 28.5q72 0 125 -17.5t84 -42t48 -63.5t23.5 -72.5t3.5 -81t-7.5 -74t-12.5 -63.5h-127q66 307 -159 308q-90 0 -155 -30t-110 -91.5t-74.5 -136t-56.5 -187.5h432 l-59 -110h-399q-6 -20 -19 -80q-10 -45 -12 -64h354l-55 -110h-320q-27 -143 -27.5 -246t54.5 -159t176 -56q117 0 190.5 91t106.5 239h135q-8 -43 -22.5 -86t-50 -111t-81.5 -117t-125 -86t-175 -37q-104 0 -175 31t-106 79t-46 125t-5 153.5t24 179.5h-108z" />
<glyph unicode="&#x2122;" horiz-adv-x="1478" d="M307 1397l17 82h553l-17 -82h-223l-172 -805h-107l172 805h-223zM735 592l189 887h149l127 -725h4l428 725h140l-189 -887h-106l143 668h-4l-404 -668h-98l-125 668h-4l-143 -668h-107z" />
<glyph unicode="&#x25fc;" horiz-adv-x="1034" d="M0 0v1034h1034v-1034h-1034z" />
<glyph unicode="&#xfb01;" d="M205 0l198 936h-165l20 98h166l37 174q8 37 18 68t34 73t56.5 69.5t89 48t125.5 20.5q8 0 68 -8l-21 -103h-92q-43 0 -72.5 -15t-46 -46t-22.5 -51.5t-12 -53.5l-39 -176h209l-21 -98h-209l-198 -936h-123zM633 0l219 1034h123l-219 -1034h-123zM899 1323l33 156h151 l-32 -156h-152z" />
<glyph unicode="&#xfb02;" d="M205 0l198 936h-165l20 98h166l37 174q8 37 18 68t34 73t56.5 69.5t89 48t125.5 20.5q8 0 68 -8l-21 -103h-92q-43 0 -72.5 -15t-46 -46t-22.5 -51.5t-12 -53.5l-39 -176h209l-21 -98h-209l-198 -936h-123zM631 0l313 1479h123l-313 -1479h-123z" />
</font>
</defs>
</svg>
