<?xml version="1.0" standalone="no"?>
<!DOCTYPE svg PUBLIC "-//W3C//DTD SVG 1.1//EN" "http://www.w3.org/Graphics/SVG/1.1/DTD/svg11.dtd" >
<svg xmlns="http://www.w3.org/2000/svg" xmlns:xlink="http://www.w3.org/1999/xlink" version="1.1">
<metadata></metadata>
<defs>
<font id="steelfishextrabold" horiz-adv-x="370" >
<font-face units-per-em="2048" ascent="1743" descent="-305" />
<missing-glyph horiz-adv-x="278" />
<glyph unicode="&#x28;C&#x29;" horiz-adv-x="1077" d="M57 453v780q0 252 115 361.5t367 109.5q250 0 365.5 -110t115.5 -361v-780q0 -252 -114.5 -361.5t-366.5 -109.5t-367 109.5t-115 361.5zM207 434q0 -168 73 -238.5t259 -70.5t258.5 70t72.5 239v817q0 178 -71 245t-260 67q-190 0 -261 -66.5t-71 -245.5v-817zM367 489 v721q0 185 174 185q159 0 159 -183v-188h-127v188q0 41 -32 41q-31 0 -31 -41v-723q0 -38 31 -38q32 0 32 38v222h127v-219q0 -94 -37 -137.5t-122 -43.5q-174 0 -174 178z" />
<glyph unicode="&#x28;R&#x29;" horiz-adv-x="1077" d="M57 453v780q0 252 115 361.5t367 109.5q250 0 365.5 -110t115.5 -361v-780q0 -252 -114.5 -361.5t-366.5 -109.5t-367 109.5t-115 361.5zM207 434q0 -168 73 -238.5t259 -70.5t258.5 70t72.5 239v817q0 178 -71 245t-260 67q-190 0 -261 -66.5t-71 -245.5v-817zM369 322 v1060h168q98 0 143 -43.5t45 -146.5v-221q0 -62 -13.5 -97t-45.5 -55q14 -74 25.5 -156.5t23.5 -184t20 -156.5h-153q-29 325 -50 469h-22v-469h-141zM510 924h27q47 0 47 49v219q0 49 -47 49h-27v-317z" />
<glyph horiz-adv-x="0" />
<glyph horiz-adv-x="682" />
<glyph horiz-adv-x="278" />
<glyph unicode=" "  horiz-adv-x="278" />
<glyph unicode="&#x09;" horiz-adv-x="278" />
<glyph unicode="&#xa0;" horiz-adv-x="278" />
<glyph unicode="!" horiz-adv-x="378" d="M76 0v223h227v-223h-227zM76 844v842h227v-838l-45 -522h-139z" />
<glyph unicode="&#x22;" horiz-adv-x="628" d="M57 1489v197h199v-197l-43 -270h-113zM373 1489v197h198v-197l-43 -270h-112z" />
<glyph unicode="#" horiz-adv-x="831" d="M37 580v190h141l29 193h-133v190h162l77 533h146l-82 -533h166l78 533h143l-80 -533h111v-190h-140l-28 -193h129v-190h-158l-86 -580h-141l88 580h-168l-86 -580h-139l86 580h-115zM319 770h166l29 193h-166z" />
<glyph unicode="$" horiz-adv-x="587" d="M57 299v319h168v-337q0 -23 13 -39t32 -21v504l-71 80q-90 93 -116 159.5t-26 182.5v242q0 127 52.5 196t150.5 80v115h64v-115q202 -18 202 -276v-271h-164v289q0 50 -49 59v-493l78 -78q86 -91 112.5 -160t26.5 -213v-223q0 -260 -206 -281v-124h-64v126 q-101 10 -152 82t-51 197zM225 1141q0 -41 8.5 -67t36.5 -60v452q-45 -9 -45 -59v-266zM313 221q43 10 43 60v258q0 44 -8.5 74t-34.5 67v-459z" />
<glyph unicode="%" horiz-adv-x="991" d="M57 0l752 1686h125l-750 -1686h-127zM63 997v576q0 143 142 143q139 0 139 -143v-576q0 -143 -139 -143q-142 0 -142 143zM174 995q0 -30 31 -30q28 0 28 30v580q0 31 -28 31q-31 0 -31 -31v-580zM645 113v575q0 143 141 143q140 0 140 -143v-575q0 -144 -140 -144 q-141 0 -141 144zM756 111q0 -31 30 -31q29 0 29 31v579q0 31 -29 31q-30 0 -30 -31v-579z" />
<glyph unicode="&#x26;" horiz-adv-x="786" d="M49 332v186q0 94 33.5 179t124.5 212q-66 176 -83.5 252t-17.5 172v97q0 150 56.5 212t187.5 62q62 0 107.5 -21t71 -59.5t37.5 -85t12 -104.5v-129q0 -97 -31.5 -178t-130.5 -242l157 -443q9 58 9 133v50h170v-60q0 -198 -84 -356q9 -6 26 -6q38 0 64 18v-207 q-49 -22 -105 -22q-67 0 -110 53q-55 -63 -203 -63q-166 0 -228.5 82.5t-62.5 267.5zM266 338q0 -148 94 -148q30 0 58.5 9t40.5 22l-166 461q-27 -70 -27 -150v-194zM297 1348q1 -52 3 -81t12 -77.5t28 -99.5q59 109 59 258v71q0 68 -49 68q-53 0 -53 -68v-71z" />
<glyph unicode="'" horiz-adv-x="313" d="M57 1489v197h199v-197l-43 -270h-113z" />
<glyph unicode="(" horiz-adv-x="524" d="M145 190v1305q0 184 79.5 269t242.5 85h18v-159h-18q-162 0 -162 -195v-1305q0 -194 162 -194h18v-160h-18q-163 0 -242.5 85t-79.5 269z" />
<glyph unicode=")" horiz-adv-x="524" d="M145 -4h19q162 0 162 194v1305q0 195 -162 195h-19v159h19q163 0 242 -85t79 -269v-1305q0 -184 -79 -269t-242 -85h-19v160z" />
<glyph unicode="*" horiz-adv-x="649" d="M25 1419l41 125l206 -82l-16 224h135l-16 -224l207 86l41 -127l-217 -55l143 -170l-105 -80l-120 191l-117 -191l-107 78l142 172z" />
<glyph unicode="+" horiz-adv-x="962" d="M70 776v166h329v328h166v-328h330v-166h-330v-332h-166v332h-329z" />
<glyph unicode="," horiz-adv-x="321" d="M57 45v211h207v-231q0 -66 -38 -109t-117 -43h-27v88h27q24 0 33.5 11t9.5 38v35h-95z" />
<glyph unicode="-" d="M20 764v170h334v-170h-334z" />
<glyph unicode="." horiz-adv-x="321" d="M57 0v256h207v-256h-207z" />
<glyph unicode="/" horiz-adv-x="497" d="M6 0l322 1686h161l-321 -1686h-162z" />
<glyph unicode="0" horiz-adv-x="677" d="M57 268v1149q0 143 68.5 215t214.5 72q144 0 212.5 -72t68.5 -215v-1149q0 -143 -68.5 -214.5t-212.5 -71.5q-146 0 -214.5 71.5t-68.5 214.5zM281 264q0 -63 59 -63t59 63v1157q0 64 -59 64t-59 -64v-1157z" />
<glyph unicode="1" horiz-adv-x="417" d="M29 1343v218h43q73 0 73 84v41h199v-1686h-221v1343h-94z" />
<glyph unicode="2" horiz-adv-x="638" d="M49 0v307q0 156 30.5 250t133.5 250q88 135 123 225.5t35 204.5v180q0 64 -52 64q-49 0 -49 -64v-299h-221v295q0 153 66 222t204 69t206.5 -70.5t68.5 -220.5v-205q0 -222 -166 -475q-100 -151 -128 -233t-28 -193v-84h322v-223h-545z" />
<glyph unicode="3" horiz-adv-x="641" d="M47 266v332h225v-330q0 -63 50 -63q53 0 53 63v422q0 64 -53 64h-86v211h96q41 0 41 63v389q0 64 -51 64q-50 0 -50 -64v-301h-219v297q0 153 64.5 222t204.5 69t203 -69t63 -224v-383q0 -62 -22.5 -101.5t-76.5 -68.5q103 -38 103 -176v-414q0 -134 -67.5 -210 t-202.5 -76q-134 0 -204.5 76t-70.5 208z" />
<glyph unicode="4" horiz-adv-x="661" d="M14 326v192l342 1168h207v-1149h82v-211h-82v-326h-207v326h-342zM211 537h145q0 326 15 581q-43 -188 -160 -581z" />
<glyph unicode="5" horiz-adv-x="651" d="M57 801l23 885h508v-224h-307l-17 -444q48 51 148 51q186 0 186 -260v-545q0 -143 -65 -212.5t-201 -69.5q-273 0 -273 282v354h220v-350q0 -63 51 -63q53 0 53 63v547q0 26 -15.5 41.5t-43.5 15.5q-32 0 -51.5 -21.5t-24.5 -57.5z" />
<glyph unicode="6" horiz-adv-x="659" d="M57 266v1151q0 137 70 212t205 75q134 0 199 -74.5t65 -212.5v-291h-213v291q0 64 -51 64t-51 -64v-407q18 15 30.5 23.5t40 17t60.5 8.5q103 0 148.5 -60t45.5 -200v-531q0 -137 -69.5 -211.5t-204.5 -74.5t-205 74.5t-70 209.5zM281 268q0 -63 51 -63t51 63v514 q0 64 -51 64q-39 0 -51 -37v-541z" />
<glyph unicode="7" horiz-adv-x="595" d="M23 1462v224h550v-207q-127 -288 -182 -654t-57 -825h-223q0 268 24.5 514t58 408t72 288.5t64 184t35.5 67.5h-342z" />
<glyph unicode="8" horiz-adv-x="649" d="M51 266v412q0 145 103 196q-84 53 -84 179v364q0 287 254 287t254 -287v-364q0 -126 -84 -179q102 -50 102 -196v-412q0 -284 -272 -284q-273 0 -273 284zM272 268q0 -63 52 -63q51 0 51 63v426q0 27 -13 44.5t-38 17.5t-38.5 -18t-13.5 -44v-426zM272 1024q0 -61 52 -61 q51 0 51 61v393q0 64 -51 64q-52 0 -52 -64v-393z" />
<glyph unicode="9" horiz-adv-x="657" d="M53 913v504q0 137 69 212t204 75t204.5 -74.5t69.5 -210.5v-1151q0 -137 -69.5 -211.5t-204.5 -74.5q-128 0 -199.5 75.5t-71.5 210.5v291h219v-291q0 -63 52 -63q49 0 49 63v434q-53 -49 -129 -49q-103 0 -148 60t-45 200zM274 942q0 -65 52 -65q36 0 49 38v502 q0 64 -49 64q-52 0 -52 -64v-475z" />
<glyph unicode=":" horiz-adv-x="321" d="M57 0v256h207v-256h-207zM57 750v254h207v-254h-207z" />
<glyph unicode=";" horiz-adv-x="321" d="M57 45v211h207v-231q0 -66 -38 -109t-117 -43h-27v88h27q24 0 33.5 11t9.5 38v35h-95zM57 750v254h207v-254h-207z" />
<glyph unicode="&#x3c;" horiz-adv-x="962" d="M70 756v202l825 234v-166l-655 -164l655 -174v-166z" />
<glyph unicode="=" horiz-adv-x="962" d="M70 584v168h825v-168h-825zM70 967v168h825v-168h-825z" />
<glyph unicode="&#x3e;" horiz-adv-x="962" d="M70 522v166l655 174l-655 164v166l825 -234v-202z" />
<glyph unicode="?" horiz-adv-x="616" d="M43 1118v295q0 150 64 220.5t200 70.5q138 0 204.5 -71t66.5 -222v-194q0 -115 -25 -194t-80 -146q-66 -73 -79 -114t-13 -149v-231h-207v227q0 126 19.5 198t72.5 132q44 53 61 83.5t24 71.5t7 124v198q0 64 -51 64t-51 -64v-299h-213zM174 0v256h207v-256h-207z" />
<glyph unicode="@" horiz-adv-x="1075" d="M53 299v715q0 251 114.5 361t367.5 110q241 0 351.5 -103t110.5 -329v-617q0 -111 -60.5 -171t-148.5 -60q-58 0 -102 20.5t-65 53.5q-29 -64 -119 -64q-162 0 -162 186v451q0 117 41 163t121 46q36 0 65 -19t41 -51q0 28 4 60h107v-678q22 -25 61 -25q70 0 70 80v629 q0 121 -76.5 188.5t-238.5 67.5q-163 0 -236.5 -74t-73.5 -219v-725q0 -179 83 -252.5t257 -73.5q309 0 309 135q0 21 -2 25h144q4 -20 4 -37q0 -51 -11 -92t-42.5 -81.5t-83.5 -68t-139.5 -44.5t-204.5 -17q-116 0 -202 26t-151.5 84t-99 158.5t-33.5 241.5zM487 410 q0 -56 56 -56q29 0 45 31v485q-14 33 -45 33q-56 0 -56 -59v-434z" />
<glyph unicode="A" horiz-adv-x="694" d="M18 0l205 1686h258l193 -1686h-223l-25 240h-164l-29 -240h-215zM283 442h118q-31 300 -57 672q-25 -360 -61 -672z" />
<glyph unicode="B" horiz-adv-x="671" d="M70 0v1686h278q138 0 198 -71.5t60 -225.5v-349q0 -60 -21 -105.5t-57 -62.5q42 -13 70.5 -56t28.5 -111v-420q0 -148 -69 -216.5t-210 -68.5h-278zM293 223h55q51 0 51 64v411q0 64 -49 64h-57v-539zM293 956h57q49 0 49 64v379q0 63 -51 63h-55v-506z" />
<glyph unicode="C" horiz-adv-x="636" d="M57 266v1147q0 291 279 291q254 0 254 -287v-299h-203v299q0 64 -51 64t-51 -64v-1149q0 -63 51 -63t51 63v350h203v-348q0 -149 -60 -218.5t-194 -69.5q-279 0 -279 284z" />
<glyph unicode="D" horiz-adv-x="673" d="M70 0v1686h272q134 0 204 -76t70 -213v-1110q0 -287 -274 -287h-272zM293 223h49q53 0 53 64v1112q0 63 -53 63h-49v-1239z" />
<glyph unicode="E" horiz-adv-x="577" d="M70 0v1686h462v-224h-239v-491h151v-223h-151v-525h250v-223h-473z" />
<glyph unicode="F" horiz-adv-x="557" d="M70 0v1686h473v-224h-250v-499h153v-224h-153v-739h-223z" />
<glyph unicode="G" horiz-adv-x="665" d="M57 268v1147q0 141 69.5 215t207.5 74q137 0 200.5 -73t63.5 -216v-297h-201v299q0 64 -63 64q-53 0 -53 -64v-1149q0 -63 51 -63q63 0 63 63v330h-71v213h286v-821h-22l-72 67q-57 -75 -199 -75q-260 0 -260 286z" />
<glyph unicode="H" horiz-adv-x="686" d="M70 0v1686h223v-715h102v715h221v-1686h-221v748h-102v-748h-223z" />
<glyph unicode="I" d="M74 0v1686h223v-1686h-223z" />
<glyph unicode="J" horiz-adv-x="444" d="M14 -2v221q35 -6 88 -6q56 0 56 74v1399h223v-1399q0 -299 -279 -299q-43 0 -88 10z" />
<glyph unicode="K" horiz-adv-x="722" d="M70 0v1686h223v-336q0 -277 -6 -371q17 98 176 707h237l-223 -752l244 -934h-254q-131 544 -180 803q6 -121 6 -438v-365h-223z" />
<glyph unicode="L" horiz-adv-x="561" d="M70 0v1686h223v-1463h250v-223h-473z" />
<glyph unicode="M" horiz-adv-x="937" d="M66 0v1686h294q103 -1143 105 -1174q14 233 108 1174h299v-1686h-202v475q0 297 12 592q-7 -86 -19.5 -194.5t-42 -360t-59.5 -512.5h-188l-117 1067q12 -295 12 -594v-473h-202z" />
<glyph unicode="N" horiz-adv-x="731" d="M66 0v1686h256q102 -632 163 -1055q-6 180 -6 528v527h187v-1686h-213q-156 740 -207 1032q6 -199 6 -598v-434h-186z" />
<glyph unicode="O" horiz-adv-x="663" d="M57 268v1149q0 287 275 287q274 0 274 -287v-1149q0 -286 -274 -286q-275 0 -275 286zM281 268q0 -63 51 -63t51 63v1149q0 64 -51 64t-51 -64v-1149z" />
<glyph unicode="P" horiz-adv-x="665" d="M70 0v1686h272q154 0 225.5 -74t71.5 -232v-276q0 -159 -71 -231t-224 -72h-51v-801h-223zM293 1018h51q76 0 76 78v286q0 80 -78 80h-49v-444z" />
<glyph unicode="Q" horiz-adv-x="663" d="M57 299v1118q0 287 275 287q274 0 274 -287v-1118q0 -251 -211 -285q6 -39 94 -39q77 0 117 37v-168q-44 -41 -141 -41q-104 0 -157.5 59.5t-55.5 155.5q-195 41 -195 281zM281 287q0 -64 51 -64t51 64v1130q0 64 -51 64t-51 -64v-1130z" />
<glyph unicode="R" horiz-adv-x="681" d="M70 0v1686h266q155 0 228 -70.5t73 -233.5v-348q0 -97 -22.5 -151.5t-73.5 -85.5q47 -293 110 -797h-243q-47 516 -78 752h-37v-752h-223zM293 954h45q74 0 74 78v350q0 80 -76 80h-43v-508z" />
<glyph unicode="S" horiz-adv-x="641" d="M49 260v358h213v-358q0 -55 53 -55q56 0 56 55v240q0 63 -27.5 111t-136.5 188q-84 111 -121 193.5t-37 183.5v251q0 277 273 277q140 0 202 -67t62 -210v-309h-205v309q0 54 -53 54q-54 0 -54 -54v-249q0 -55 23 -96t107 -149q21 -27 32 -42q91 -121 123.5 -201 t32.5 -188v-242q0 -278 -270 -278q-273 0 -273 278z" />
<glyph unicode="T" horiz-adv-x="585" d="M18 1462v224h549v-224h-161v-1462h-224v1462h-164z" />
<glyph unicode="U" horiz-adv-x="673" d="M63 268v1418h224v-1418q0 -63 51 -63t51 63v1418h221v-1418q0 -286 -272 -286q-275 0 -275 286z" />
<glyph unicode="V" horiz-adv-x="700" d="M18 1686h232q88 -1015 100 -1301q41 589 111 1301h221l-190 -1686h-297z" />
<glyph unicode="W" horiz-adv-x="1099" d="M18 1686h234q58 -779 80 -1176q11 202 119 1176h198q94 -1017 103 -1176q19 346 96 1176h233l-188 -1686h-258q-60 613 -76 802.5t-16 282.5q-6 -97 -103 -1085h-260z" />
<glyph unicode="X" horiz-adv-x="704" d="M4 0l217 903l-178 783h238q52 -297 75 -531q10 101 76 531h232l-187 -777l223 -909h-239q-95 510 -115 674q-29 -243 -115 -674h-227z" />
<glyph unicode="Y" horiz-adv-x="688" d="M12 1686h236q63 -366 102 -639q28 198 109 639h217l-223 -967v-719h-226v719z" />
<glyph unicode="Z" horiz-adv-x="634" d="M45 0v227l326 1241h-310v218h531v-201l-316 -1258h316v-227h-547z" />
<glyph unicode="[" horiz-adv-x="518" d="M145 -164v2013h334v-159h-174v-1694h174v-160h-334z" />
<glyph unicode="\" horiz-adv-x="497" d="M6 1686h162l321 -1686h-161z" />
<glyph unicode="]" horiz-adv-x="518" d="M145 -4h174v1694h-174v159h334v-2013h-334v160z" />
<glyph unicode="^" horiz-adv-x="663" d="M70 1114l161 572h201l162 -572h-158l-98 402l-109 -402h-159z" />
<glyph unicode="_" horiz-adv-x="630" d="M-2 -74h635v-147h-635v147z" />
<glyph unicode="`" horiz-adv-x="618" d="M29 1673h256l223 -330h-193z" />
<glyph unicode="a" horiz-adv-x="585" d="M41 182v187q0 111 30 173t97 109q29 20 158 90v297q0 49 -45 49t-45 -49v-268h-177v268q0 250 226 250q233 0 233 -250v-932q0 -73 10 -106h-182q-8 21 -8 63q-51 -81 -131 -81q-166 0 -166 200zM238 219q0 -20 12.5 -30.5t32.5 -10.5q27 0 43 31v371q-32 -13 -52 -33 q-36 -29 -36 -98v-230z" />
<glyph unicode="b" horiz-adv-x="624" d="M70 0v1686h200v-435q43 37 113 37q94 0 139 -56t45 -177v-795q0 -136 -53 -203t-168 -67q-91 0 -147 80q-6 -26 -33 -70h-96zM270 233q16 -28 47 -28q50 0 50 53v770q0 51 -50 51q-31 0 -47 -28v-818z" />
<glyph unicode="c" horiz-adv-x="583" d="M57 240v786q0 121 60.5 191.5t179.5 70.5q117 0 173 -69.5t56 -190.5v-274h-182v278q0 49 -45 49t-45 -49v-792q0 -54 45 -54t45 54v278h186v-282q0 -120 -57 -187t-176 -67q-120 0 -180 68.5t-60 189.5z" />
<glyph unicode="d" horiz-adv-x="624" d="M57 229v826q0 121 45.5 177t139.5 56q69 0 112 -37v435h201v-1686h-170q-6 30 -6 70q-19 -43 -52 -61.5t-94 -18.5q-81 0 -128.5 62t-47.5 177zM258 258q0 -53 49 -53q31 0 47 28v824q-14 26 -47 26q-49 0 -49 -49v-776z" />
<glyph unicode="e" horiz-adv-x="575" d="M57 238v790q0 260 228 260q233 0 233 -260v-428h-274v-362q0 -52 41 -52q45 0 45 54v276h188v-278q0 -256 -233 -256q-228 0 -228 256zM244 743h86v285q0 51 -45 51q-41 0 -41 -51v-285z" />
<glyph unicode="f" horiz-adv-x="391" d="M14 1094v174h64v176q0 114 47.5 183t155.5 69q50 0 94 -13v-170q-9 3 -29 3q-67 0 -67 -76v-172h92v-174h-92v-1094h-201v1094h-64z" />
<glyph unicode="g" horiz-adv-x="624" d="M57 291v747q0 115 47.5 177.5t128.5 62.5q55 0 87.5 -18.5t58.5 -61.5q0 40 6 70h170v-1334q0 -239 -240 -239q-131 0 -185 59t-54 180v52h180v-62q0 -55 53 -55q51 0 51 55v172q-43 -37 -120 -37q-93 0 -138 56t-45 176zM256 303q0 -51 53 -51q35 0 51 29v753 q-16 29 -51 29q-53 0 -53 -53v-707z" />
<glyph unicode="h" horiz-adv-x="622" d="M70 0v1686h200v-451q59 53 136 53q153 0 153 -233v-1055h-201v1042q0 50 -41 50q-29 0 -47 -21v-1071h-200z" />
<glyph unicode="i" horiz-adv-x="346" d="M74 0v1268h200v-1268h-200zM74 1430v256h200v-256h-200z" />
<glyph unicode="j" d="M-33 -88q27 -6 78 -6t51 67v1295h201v-1295q0 -139 -62.5 -203.5t-189.5 -64.5q-47 0 -78 8v199zM96 1430v256h201v-256h-201z" />
<glyph unicode="k" horiz-adv-x="614" d="M70 0v1686h196v-648q0 -237 -4 -301q54 221 74 293l61 238h205l-156 -545l162 -723h-219l-70 334q-29 126 -57 303q4 -68 4 -313v-324h-196z" />
<glyph unicode="l" horiz-adv-x="339" d="M70 0v1686h200v-1686h-200z" />
<glyph unicode="m" horiz-adv-x="911" d="M70 0v1268h170q6 -30 6 -68q58 88 155 88q93 0 131 -80q57 80 160 80q77 0 116.5 -63t39.5 -181v-1044h-201v1042q0 50 -41 50q-26 0 -47 -21v-1071h-201v1042q0 50 -41 50q-29 0 -47 -21v-1071h-200z" />
<glyph unicode="n" horiz-adv-x="622" d="M70 0v1268h170q6 -30 6 -68q58 88 155 88q158 0 158 -233v-1055h-201v1042q0 50 -41 50q-29 0 -47 -21v-1071h-200z" />
<glyph unicode="o" horiz-adv-x="598" d="M57 233v801q0 254 242 254q120 0 181 -65t61 -189v-801q0 -251 -242 -251t-242 251zM254 242q0 -56 45 -56t45 56v784q0 55 -45 55t-45 -55v-784z" />
<glyph unicode="p" horiz-adv-x="624" d="M70 -285v1553h170q6 -35 6 -70q19 43 51.5 61.5t93.5 18.5q81 0 128.5 -62.5t47.5 -177.5v-825q0 -121 -45 -176t-139 -55q-73 0 -113 34v-301h-200zM270 211q15 -27 47 -27q50 0 50 49v779q0 53 -50 53q-31 0 -47 -29v-825z" />
<glyph unicode="q" horiz-adv-x="624" d="M57 213v825q0 115 47.5 177.5t128.5 62.5q61 0 94 -18.5t52 -61.5q0 36 6 70h170v-1553h-201v301q-40 -34 -112 -34q-94 0 -139.5 55t-45.5 176zM258 233q0 -49 49 -49q32 0 47 27v829q-16 29 -47 29q-49 0 -49 -53v-783z" />
<glyph unicode="r" horiz-adv-x="423" d="M70 0v1268h170q6 -30 6 -66q41 80 123 80q22 0 34 -6v-225q-22 16 -65 16q-55 0 -68 -35v-1032h-200z" />
<glyph unicode="s" horiz-adv-x="573" d="M49 229v195h182v-191q0 -53 48 -53q43 0 43 53v132q0 49 -23 90.5t-106 136.5q-77 91 -110.5 161t-33.5 183v96q0 137 58.5 196.5t173.5 59.5q133 0 184 -59t51 -197v-194h-182v196q0 53 -47 53q-41 0 -41 -53v-131q0 -58 24 -98t111 -135q86 -93 113.5 -159.5 t27.5 -176.5v-115q0 -126 -61 -181.5t-187 -55.5q-112 0 -168.5 60t-56.5 187z" />
<glyph unicode="t" horiz-adv-x="391" d="M14 1094v174h64v401h201v-401h92v-174h-92v-846q0 -52 23 -72t73 -20v-170q-46 -4 -62 -4q-119 0 -177 68t-58 194v850h-64z" />
<glyph unicode="u" horiz-adv-x="618" d="M63 203v1065h201v-1032q0 -50 39 -50q27 0 45 21v1061h201v-1268h-170q-6 30 -6 68q-55 -78 -152 -78q-73 0 -115.5 57.5t-42.5 155.5z" />
<glyph unicode="v" horiz-adv-x="571" d="M16 1268h201q58 -585 66 -762q18 231 77 762h193l-172 -1268h-199z" />
<glyph unicode="w" horiz-adv-x="870" d="M20 1268h185q39 -602 55 -885l84 885h178q43 -502 72 -885q3 50 72 885h182l-123 -1268h-231q-45 500 -55.5 626t-10.5 191q0 -27 -2 -57t-7.5 -91.5t-12.5 -132t-21 -220.5t-29 -316h-229z" />
<glyph unicode="x" horiz-adv-x="587" d="M8 0l154 680l-127 588h209q17 -113 27.5 -193.5t17 -149.5t8.5 -83q2 15 7 65.5t9 85.5t15 110t26 165h199l-129 -584l156 -684h-207q-31 186 -84 547q-13 -140 -80 -547h-201z" />
<glyph unicode="y" horiz-adv-x="571" d="M16 1268h209q56 -649 62 -824q2 58 8 134t12.5 142t23.5 237t31 311h191l-166 -1241q-11 -83 -28 -139t-47.5 -99.5t-79.5 -63.5t-119 -20q-47 0 -78 8v199q23 -6 69 -6q40 0 57.5 35.5t24.5 109.5z" />
<glyph unicode="z" horiz-adv-x="526" d="M45 0v190l248 881h-244v197h434v-187l-237 -876h235v-205h-436z" />
<glyph unicode="{" horiz-adv-x="581" d="M27 844l159 194q19 26 26 44.5t7 54.5v415q0 297 316 297h16v-159h-14q-81 0 -120.5 -35.5t-39.5 -112.5v-407q0 -61 -14.5 -100.5t-51.5 -84.5l-88 -106l88 -109q37 -45 51.5 -84t14.5 -100v-408q0 -77 39.5 -112t120.5 -35h14v-160h-16q-316 0 -316 297v416q0 36 -7 54 t-26 44z" />
<glyph unicode="|" horiz-adv-x="430" d="M133 -164v2013h162v-2013h-162z" />
<glyph unicode="}" horiz-adv-x="581" d="M27 -4h14q81 0 120.5 35t39.5 112v408q0 61 14 100t51 84l88 109l-88 106q-37 44 -51 84t-14 101v407q0 77 -39.5 112.5t-120.5 35.5h-14v159h16q315 0 315 -297v-415q0 -36 7 -54.5t26 -44.5l160 -194l-160 -197q-19 -26 -26 -44t-7 -54v-416q0 -297 -315 -297h-16v160z " />
<glyph unicode="~" horiz-adv-x="964" d="M70 717v196q79 72 211 72q69 0 140.5 -21.5t134.5 -43t110 -21.5q71 0 122 21t109 79v-194q-97 -70 -240 -70q-69 0 -191 43t-179 43q-61 0 -112 -22.5t-105 -81.5z" />
<glyph unicode="&#xa1;" horiz-adv-x="378" d="M76 0v838l45 522h139l43 -518v-842h-227zM76 1462v224h227v-224h-227z" />
<glyph unicode="&#xa2;" horiz-adv-x="579" d="M57 442v779q0 112 53.5 180t157.5 78v207h64v-207q194 -20 194 -256v-279h-159v283q0 18 -13.5 31.5t-31.5 13.5v-881q45 4 45 51v269h163v-273q0 -110 -48.5 -176t-149.5 -76v-186h-64v184q-103 7 -157 76.5t-54 181.5zM233 442q0 -49 46 -49v879q-20 -1 -33 -14.5 t-13 -30.5v-785z" />
<glyph unicode="&#xa3;" horiz-adv-x="589" d="M35 -18v204q44 48 104 58q13 176 13 420v268h-111v168h111v282q0 155 66.5 238.5t193.5 83.5q59 0 106 -12v-207q-32 14 -63 14q-50 0 -81.5 -36.5t-31.5 -78.5v-284h176v-168h-176v-270q0 -312 -20 -463q55 -25 88 -25q40 0 70.5 15t64.5 55h10v-201q-56 -59 -152 -59 q-42 0 -118 35.5t-113 35.5t-66 -15.5t-63 -57.5h-8z" />
<glyph unicode="&#xa4;" horiz-adv-x="1021" d="M27 434l137 133q-72 101 -72 234q0 125 72 235q-70 64 -135 129l118 121l129 -139q98 76 236 76q129 0 236 -76l124 139l119 -121l-133 -129q74 -107 74 -235q0 -135 -74 -234l135 -133l-119 -121l-129 142q-113 -74 -233 -74q-134 0 -233 74l-134 -142zM274 801 q0 -100 69 -169t169 -69q99 0 168.5 69.5t69.5 168.5q0 98 -70 167.5t-168 69.5q-100 0 -169 -69t-69 -168z" />
<glyph unicode="&#xa5;" horiz-adv-x="704" d="M18 1686h236q74 -429 104 -639q16 114 107 639h219l-231 -975v-54h213v-168h-213v-153h213v-168h-213v-168h-209v168h-213v168h213v153h-213v168h213v54z" />
<glyph unicode="&#xa6;" horiz-adv-x="430" d="M133 -164v846h162v-846h-162zM133 1004v845h162v-845h-162z" />
<glyph unicode="&#xa7;" horiz-adv-x="593" d="M57 -45v184h185v-184q0 -47 45 -47q47 0 47 47v82q0 55 -24.5 98.5t-116.5 157.5q-74 95 -105 165.5t-31 159.5v216q0 88 45 138t115 56q-72 90 -109.5 168.5t-37.5 177.5v92q0 238 233 238q121 0 174 -58.5t53 -179.5v-143h-176v143q0 45 -45 45q-47 0 -47 -45v-90 q0 -50 21.5 -89t95.5 -134q4 -5 6.5 -8t6.5 -8t7 -9q80 -106 109 -174t29 -161v-207q0 -90 -39.5 -149t-102.5 -70q75 -100 102 -167.5t27 -160.5v-84q0 -119 -56 -179.5t-177 -60.5q-234 0 -234 240zM252 565q0 -47 45 -47t45 47v254q0 47 -45 47t-45 -47v-254z" />
<glyph unicode="&#xa8;" horiz-adv-x="657" d="M70 1368v256h200v-256h-200zM387 1368v256h201v-256h-201z" />
<glyph unicode="&#xaa;" horiz-adv-x="444" d="M84 715v102q0 45 10.5 77t31 53t45 36.5t58.5 33.5q3 1 4 1.5l3 1.5l4 2v164q0 26 -25 26t-25 -26v-148h-96v148q0 137 123 137q129 0 129 -137v-512q0 -45 6 -60h-100q-4 12 -4 35q-27 -45 -72 -45q-92 0 -92 111zM193 735q0 -22 24 -22q17 0 23 16v205 q-26 -15 -36.5 -30t-10.5 -44v-125z" />
<glyph unicode="&#xab;" horiz-adv-x="794" d="M33 565v236l332 205v-187l-226 -135l226 -143v-195zM430 565v236l332 205v-187l-225 -135l225 -143v-195z" />
<glyph unicode="&#xac;" horiz-adv-x="890" d="M35 733v213h786v-946h-207v733h-579z" />
<glyph unicode="&#xad;" d="M20 764v170h334v-170h-334z" />
<glyph unicode="&#xaf;" horiz-adv-x="626" d="M70 1409v172h487v-172h-487z" />
<glyph unicode="&#xb0;" horiz-adv-x="628" d="M57 1415q0 122 66 198.5t190 76.5q125 0 191.5 -76.5t66.5 -198.5t-66.5 -195t-191.5 -73t-190.5 72.5t-65.5 195.5zM176 1415q0 -78 33 -112.5t102 -34.5q72 0 102.5 34.5t30.5 112.5q0 80 -31 116t-102 36q-68 0 -101.5 -36.5t-33.5 -115.5z" />
<glyph unicode="&#xb1;" horiz-adv-x="962" d="M70 182v166h825v-166h-825zM70 776v166h329v328h166v-328h330v-166h-330v-332h-166v332h-329z" />
<glyph unicode="&#xb2;" horiz-adv-x="380" d="M55 864v154q0 77 15.5 126.5t66.5 123.5q43 64 60.5 110.5t17.5 104.5v90q0 31 -25 31q-24 0 -24 -31v-150h-111v148q0 77 32.5 111t102.5 34q138 0 138 -145v-103q0 -109 -84 -237q-50 -78 -64 -118.5t-14 -94.5v-43h162v-111h-273z" />
<glyph unicode="&#xb3;" horiz-adv-x="380" d="M53 997v166h113v-166q0 -30 24 -30q27 0 27 30v211q0 33 -27 33h-43v105h50q20 0 20 32v195q0 31 -27 31q-24 0 -24 -31v-152h-109v150q0 77 31.5 111t101.5 34t102 -35t32 -112v-191q0 -59 -50 -86q52 -18 52 -88v-207q0 -68 -34 -105.5t-102 -37.5q-66 0 -101.5 38 t-35.5 105z" />
<glyph unicode="&#xb4;" horiz-adv-x="618" d="M111 1343l223 330h256l-287 -330h-192z" />
<glyph unicode="&#xb6;" horiz-adv-x="903" d="M29 1448q0 108 52 173t163 65h628v-213h-124v-1747h-185v1747h-135v-1532q0 -105 -53.5 -172.5t-153.5 -67.5q-47 0 -90 14v152q28 -4 33 -4q42 0 59 27.5t17 91.5v1239q-211 0 -211 227zM178 1401q0 -68 41 -68h21v140h-21q-41 0 -41 -72z" />
<glyph unicode="&#xb7;" horiz-adv-x="321" d="M57 717v256h207v-256h-207z" />
<glyph unicode="&#xb8;" horiz-adv-x="305" d="M70 -41h166v-176q0 -41 -24.5 -64.5t-76.5 -23.5h-47v63h41q23 0 23 25v29h-82v147z" />
<glyph unicode="&#xb9;" horiz-adv-x="270" d="M45 1536v109h21q36 0 36 41v20h101v-842h-111v672h-47z" />
<glyph unicode="&#xba;" horiz-adv-x="452" d="M92 743v441q0 139 133 139t133 -139v-441q0 -139 -133 -139t-133 139zM201 748q0 -31 24 -31q25 0 25 31v432q0 28 -25 28q-24 0 -24 -28v-432z" />
<glyph unicode="&#xbb;" horiz-adv-x="794" d="M33 346v195l225 143l-225 135v187l332 -205v-236zM430 346v195l225 143l-225 135v187l332 -205v-236z" />
<glyph unicode="&#xbc;" horiz-adv-x="991" d="M57 0l752 1686h125l-750 -1686h-127zM137 1536v109h21q37 0 37 41v20h100v-842h-111v672h-47zM602 141v97l172 583h103v-573h41v-107h-41v-161h-103v161h-172zM700 248h74q0 99 3 189.5t3 101.5q-18 -86 -80 -291z" />
<glyph unicode="&#xbd;" horiz-adv-x="991" d="M57 0l752 1686h125l-750 -1686h-127zM137 1536v109h21q37 0 37 41v20h100v-842h-111v672h-47zM641 -20v153q0 77 15.5 126.5t66.5 123.5q43 64 60.5 110.5t17.5 104.5v90q0 31 -25 31q-24 0 -24 -31v-149h-111v147q0 77 32.5 111t102.5 34q137 0 137 -145v-102 q0 -110 -84 -238q-50 -78 -63.5 -118t-13.5 -95v-43h161v-110h-272z" />
<glyph unicode="&#xbe;" horiz-adv-x="991" d="M57 0l752 1686h125l-750 -1686h-127zM96 997v166h113v-166q0 -30 24 -30q27 0 27 30v211q0 33 -27 33h-43v105h50q20 0 20 32v195q0 31 -27 31q-24 0 -24 -31v-152h-109v150q0 77 31.5 111t101.5 34t102 -35t32 -112v-191q0 -59 -50 -86q52 -18 52 -88v-207 q0 -68 -34.5 -105.5t-101.5 -37.5q-66 0 -101.5 38t-35.5 105zM561 141v97l172 583h103v-573h41v-107h-41v-161h-103v161h-172zM659 248h74q0 99 3 189.5t3 101.5q-18 -86 -80 -291z" />
<glyph unicode="&#xbf;" horiz-adv-x="616" d="M43 274v195q0 115 24.5 194t79.5 146q66 73 79.5 114t13.5 148v232h206v-228q0 -126 -19.5 -198t-72.5 -132q-63 -75 -77.5 -118t-14.5 -160v-199q0 -63 51 -63q52 0 52 63v299h213v-295q0 -149 -64.5 -219.5t-200.5 -70.5q-138 0 -204 70.5t-66 221.5zM240 1430v256h206 v-256h-206z" />
<glyph unicode="&#xc0;" horiz-adv-x="694" d="M4 2091h256l223 -330h-192zM18 0l205 1686h258l193 -1686h-223l-25 240h-164l-29 -240h-215zM283 442h118q-31 300 -57 672q-25 -360 -61 -672z" />
<glyph unicode="&#xc1;" horiz-adv-x="694" d="M18 0l205 1686h258l193 -1686h-223l-25 240h-164l-29 -240h-215zM209 1761l223 330h256l-287 -330h-192zM283 442h118q-31 300 -57 672q-25 -360 -61 -672z" />
<glyph unicode="&#xc2;" horiz-adv-x="694" d="M18 0l205 1686h258l193 -1686h-223l-25 240h-164l-29 -240h-215zM39 1761l199 330h235l186 -330h-194l-117 224l-125 -224h-184zM283 442h118q-31 300 -57 672q-25 -360 -61 -672z" />
<glyph unicode="&#xc3;" horiz-adv-x="694" d="M18 0l205 1686h258l193 -1686h-223l-25 240h-164l-29 -240h-215zM92 1815v165q46 50 129 50q49 0 132.5 -30t129.5 -30q43 0 68.5 11t44.5 42h4v-168q-49 -49 -129 -49q-51 0 -134.5 32t-127.5 32q-70 0 -113 -55h-4zM283 442h118q-31 300 -57 672q-25 -360 -61 -672z " />
<glyph unicode="&#xc4;" horiz-adv-x="694" d="M18 0l205 1686h258l193 -1686h-223l-25 240h-164l-29 -240h-215zM88 1786v256h201v-256h-201zM283 442h118q-31 300 -57 672q-25 -360 -61 -672zM406 1786v256h200v-256h-200z" />
<glyph unicode="&#xc5;" horiz-adv-x="694" d="M18 0l205 1686h258l193 -1686h-223l-25 240h-164l-29 -240h-215zM141 1927q0 75 51.5 119.5t151.5 44.5q101 0 154 -44.5t53 -119.5q0 -72 -53 -116t-154 -44q-99 0 -151 44t-52 116zM236 1927q0 -42 26 -60t82 -18q57 0 82 18.5t25 59.5q0 43 -25 62.5t-82 19.5 q-108 0 -108 -82zM283 442h118q-31 300 -57 672q-25 -360 -61 -672z" />
<glyph unicode="&#xc6;" horiz-adv-x="966" d="M18 0l207 1686h699v-224h-240v-491h152v-223h-152v-525h248v-223h-473v240h-195l-28 -240h-218zM287 442h172v1020h-60z" />
<glyph unicode="&#xc7;" horiz-adv-x="636" d="M57 266v1147q0 291 279 291q254 0 254 -287v-299h-203v299q0 64 -51 64t-51 -64v-1149q0 -63 51 -63t51 63v350h203v-348q0 -149 -60 -218.5t-194 -69.5q-279 0 -279 284zM256 -41h166v-176q0 -88 -100 -88h-48v63h41q23 0 23 25v29h-82v147z" />
<glyph unicode="&#xc8;" horiz-adv-x="577" d="M-53 2091h256l223 -330h-193zM70 0v1686h462v-224h-239v-491h151v-223h-151v-525h250v-223h-473z" />
<glyph unicode="&#xc9;" horiz-adv-x="577" d="M70 0v1686h462v-224h-239v-491h151v-223h-151v-525h250v-223h-473zM154 1761l223 330h256l-287 -330h-192z" />
<glyph unicode="&#xca;" horiz-adv-x="577" d="M-12 1761l198 330h236l186 -330h-194l-117 224l-125 -224h-184zM70 0v1686h462v-224h-239v-491h151v-223h-151v-525h250v-223h-473z" />
<glyph unicode="&#xcb;" horiz-adv-x="577" d="M37 1786v256h201v-256h-201zM70 0v1686h462v-224h-239v-491h151v-223h-151v-525h250v-223h-473zM354 1786v256h201v-256h-201z" />
<glyph unicode="&#xcc;" d="M-156 2091h256l224 -330h-193zM74 0v1686h223v-1686h-223z" />
<glyph unicode="&#xcd;" d="M49 1761l223 330h256l-286 -330h-193zM74 0v1686h223v-1686h-223z" />
<glyph unicode="&#xce;" d="M-125 1761l199 330h235l187 -330h-195l-117 224l-125 -224h-184zM74 0v1686h223v-1686h-223z" />
<glyph unicode="&#xcf;" d="M-74 1786v256h201v-256h-201zM74 0v1686h223v-1686h-223zM244 1786v256h200v-256h-200z" />
<glyph unicode="&#xd0;" horiz-adv-x="671" d="M14 748v223h54v715h272q134 0 204 -76t70 -213v-1110q0 -287 -274 -287h-272v748h-54zM291 223h49q53 0 53 64v1112q0 63 -53 63h-49v-491h63v-223h-63v-525z" />
<glyph unicode="&#xd1;" horiz-adv-x="731" d="M66 0v1686h256q102 -632 163 -1055q-6 180 -6 528v527h187v-1686h-213q-156 740 -207 1032q6 -199 6 -598v-434h-186zM111 1815v165q46 50 129 50q50 0 133 -30t129 -30q43 0 67.5 11t44.5 42h4v-168q-49 -49 -129 -49q-51 0 -134.5 32t-127.5 32q-69 0 -112 -55h-4z" />
<glyph unicode="&#xd2;" horiz-adv-x="663" d="M-10 2091h256l223 -330h-193zM57 268v1149q0 287 275 287q274 0 274 -287v-1149q0 -286 -274 -286q-275 0 -275 286zM281 268q0 -63 51 -63t51 63v1149q0 64 -51 64t-51 -64v-1149z" />
<glyph unicode="&#xd3;" horiz-adv-x="663" d="M57 268v1149q0 287 275 287q274 0 274 -287v-1149q0 -286 -274 -286q-275 0 -275 286zM195 1761l223 330h256l-287 -330h-192zM281 268q0 -63 51 -63t51 63v1149q0 64 -51 64t-51 -64v-1149z" />
<glyph unicode="&#xd4;" horiz-adv-x="663" d="M23 1761l198 330h236l186 -330h-194l-117 224l-125 -224h-184zM57 268v1149q0 287 275 287q274 0 274 -287v-1149q0 -286 -274 -286q-275 0 -275 286zM281 268q0 -63 51 -63t51 63v1149q0 64 -51 64t-51 -64v-1149z" />
<glyph unicode="&#xd5;" horiz-adv-x="663" d="M57 268v1149q0 287 275 287q274 0 274 -287v-1149q0 -286 -274 -286q-275 0 -275 286zM78 1815v165q46 50 129 50q49 0 132 -30t130 -30q43 0 68.5 11t44.5 42h4v-168q-49 -49 -129 -49q-51 0 -134.5 32t-127.5 32q-70 0 -113 -55h-4zM281 268q0 -63 51 -63t51 63v1149 q0 64 -51 64t-51 -64v-1149z" />
<glyph unicode="&#xd6;" horiz-adv-x="663" d="M57 268v1149q0 287 275 287q274 0 274 -287v-1149q0 -286 -274 -286q-275 0 -275 286zM72 1786v256h200v-256h-200zM281 268q0 -63 51 -63t51 63v1149q0 64 -51 64t-51 -64v-1149zM389 1786v256h201v-256h-201z" />
<glyph unicode="&#xd7;" horiz-adv-x="962" d="M129 627l233 231l-231 234l117 116l231 -231l234 233l116 -118l-231 -234l233 -233l-116 -117l-236 233l-233 -233z" />
<glyph unicode="&#xd8;" horiz-adv-x="663" d="M57 -193l58 259q-58 70 -58 202v1149q0 287 275 287q81 0 141 -29l45 203h88l-59 -260q59 -71 59 -201v-1149q0 -286 -274 -286q-86 0 -144 28l-45 -203h-86zM281 268q0 -63 51 -63t51 63v613l-102 -455v-158zM281 813l102 455v149q0 64 -51 64t-51 -64v-604z" />
<glyph unicode="&#xd9;" horiz-adv-x="673" d="M-4 2091h256l223 -330h-192zM63 268v1418h224v-1418q0 -63 51 -63t51 63v1418h221v-1418q0 -286 -272 -286q-275 0 -275 286z" />
<glyph unicode="&#xda;" horiz-adv-x="673" d="M63 268v1418h224v-1418q0 -63 51 -63t51 63v1418h221v-1418q0 -286 -272 -286q-275 0 -275 286zM199 1761l223 330h256l-287 -330h-192z" />
<glyph unicode="&#xdb;" horiz-adv-x="673" d="M27 1761l198 330h236l186 -330h-194l-117 224l-125 -224h-184zM63 268v1418h224v-1418q0 -63 51 -63t51 63v1418h221v-1418q0 -286 -272 -286q-275 0 -275 286z" />
<glyph unicode="&#xdc;" horiz-adv-x="673" d="M63 268v1418h224v-1418q0 -63 51 -63t51 63v1418h221v-1418q0 -286 -272 -286q-275 0 -275 286zM78 1786v256h201v-256h-201zM395 1786v256h201v-256h-201z" />
<glyph unicode="&#xdd;" horiz-adv-x="688" d="M12 1686h236q63 -366 102 -639q28 198 109 639h217l-223 -967v-719h-226v719zM211 1761l223 330h256l-287 -330h-192z" />
<glyph unicode="&#xde;" horiz-adv-x="677" d="M70 0v1686h223v-300h55q153 0 227 -74t74 -229v-518q0 -149 -75.5 -226t-223.5 -77h-57v-262h-223zM293 485h57q76 0 76 80v518q0 80 -78 80h-55v-678z" />
<glyph unicode="&#xdf;" horiz-adv-x="677" d="M70 0v1452q0 252 241 252q240 0 240 -252v-430q0 -68 -43 -111q119 -38 119 -200v-469q0 -135 -53.5 -197.5t-174.5 -62.5q-29 0 -71 6v202q21 -6 53 -6q49 0 49 58v477q0 57 -49 57h-78v193h14q39 0 39 53v422q0 55 -45 55t-45 -55v-1444h-196z" />
<glyph unicode="&#xe0;" horiz-adv-x="585" d="M-49 1673h256l223 -330h-192zM41 182v187q0 111 30 173t97 109q29 20 158 90v297q0 49 -45 49t-45 -49v-268h-177v268q0 250 226 250q233 0 233 -250v-932q0 -73 10 -106h-182q-8 21 -8 63q-51 -81 -131 -81q-166 0 -166 200zM238 219q0 -20 12.5 -30.5t32.5 -10.5 q27 0 43 31v371q-32 -13 -52 -33q-36 -29 -36 -98v-230z" />
<glyph unicode="&#xe1;" horiz-adv-x="585" d="M41 182v187q0 111 30 173t97 109q29 20 158 90v297q0 49 -45 49t-45 -49v-268h-177v268q0 250 226 250q233 0 233 -250v-932q0 -73 10 -106h-182q-8 21 -8 63q-51 -81 -131 -81q-166 0 -166 200zM156 1343l223 330h256l-287 -330h-192zM238 219q0 -20 12.5 -30.5 t32.5 -10.5q27 0 43 31v371q-32 -13 -52 -33q-36 -29 -36 -98v-230z" />
<glyph unicode="&#xe2;" horiz-adv-x="585" d="M-16 1343l198 330h236l186 -330h-194l-117 224l-125 -224h-184zM41 182v187q0 111 30 173t97 109q29 20 158 90v297q0 49 -45 49t-45 -49v-268h-177v268q0 250 226 250q233 0 233 -250v-932q0 -73 10 -106h-182q-8 21 -8 63q-51 -81 -131 -81q-166 0 -166 200zM238 219 q0 -20 12.5 -30.5t32.5 -10.5q27 0 43 31v371q-32 -13 -52 -33q-36 -29 -36 -98v-230z" />
<glyph unicode="&#xe3;" horiz-adv-x="585" d="M39 1397v166q45 49 129 49q50 0 133 -30t129 -30q43 0 68 11.5t45 42.5h4v-168q-49 -49 -129 -49q-51 0 -134.5 31.5t-127.5 31.5q-70 0 -113 -55h-4zM41 182v187q0 111 30 173t97 109q29 20 158 90v297q0 49 -45 49t-45 -49v-268h-177v268q0 250 226 250q233 0 233 -250 v-932q0 -73 10 -106h-182q-8 21 -8 63q-51 -81 -131 -81q-166 0 -166 200zM238 219q0 -20 12.5 -30.5t32.5 -10.5q27 0 43 31v371q-32 -13 -52 -33q-36 -29 -36 -98v-230z" />
<glyph unicode="&#xe4;" horiz-adv-x="585" d="M35 1368v256h201v-256h-201zM41 182v187q0 111 30 173t97 109q29 20 158 90v297q0 49 -45 49t-45 -49v-268h-177v268q0 250 226 250q233 0 233 -250v-932q0 -73 10 -106h-182q-8 21 -8 63q-51 -81 -131 -81q-166 0 -166 200zM238 219q0 -20 12.5 -30.5t32.5 -10.5 q27 0 43 31v371q-32 -13 -52 -33q-36 -29 -36 -98v-230zM352 1368v256h201v-256h-201z" />
<glyph unicode="&#xe5;" horiz-adv-x="585" d="M41 182v187q0 111 30 173t97 109q29 20 158 90v297q0 49 -45 49t-45 -49v-268h-177v268q0 250 226 250q233 0 233 -250v-932q0 -73 10 -106h-182q-8 21 -8 63q-51 -81 -131 -81q-166 0 -166 200zM88 1509q0 75 51.5 119.5t151.5 44.5q101 0 154 -44.5t53 -119.5 q0 -72 -53 -115.5t-154 -43.5q-99 0 -151 43.5t-52 115.5zM182 1509q0 -42 26 -59.5t83 -17.5t81.5 18t24.5 59q0 43 -24.5 62.5t-81.5 19.5q-109 0 -109 -82zM238 219q0 -20 12.5 -30.5t32.5 -10.5q27 0 43 31v371q-32 -13 -52 -33q-36 -29 -36 -98v-230z" />
<glyph unicode="&#xe6;" horiz-adv-x="849" d="M41 182v187q0 111 30 173t97 109q29 20 158 90v297q0 49 -45 49t-45 -49v-268h-177v268q0 250 226 250q88 0 141 -35q53 35 135 35q232 0 232 -260v-428h-275v-362q0 -52 43 -52q45 0 45 54v276h187v-278q0 -256 -232 -256q-66 0 -102.5 21t-67.5 71q-22 -46 -61 -69 t-109 -23q-84 0 -132 49t-48 151zM238 219q0 -20 12.5 -30.5t32.5 -10.5q27 0 43 31v371q-32 -13 -52 -33q-36 -29 -36 -98v-230zM518 743h88v285q0 51 -45 51q-43 0 -43 -51v-285z" />
<glyph unicode="&#xe7;" horiz-adv-x="583" d="M57 240v786q0 121 60.5 191.5t179.5 70.5q117 0 173 -69.5t56 -190.5v-274h-182v278q0 49 -45 49t-45 -49v-792q0 -54 45 -54t45 54v278h186v-282q0 -120 -57 -187t-176 -67q-120 0 -180 68.5t-60 189.5zM217 -41h166v-176q0 -88 -100 -88h-47v63h40q23 0 23 25v29h-82 v147z" />
<glyph unicode="&#xe8;" horiz-adv-x="575" d="M-53 1673h256l223 -330h-193zM57 238v790q0 260 228 260q233 0 233 -260v-428h-274v-362q0 -52 41 -52q45 0 45 54v276h188v-278q0 -256 -233 -256q-228 0 -228 256zM244 743h86v285q0 51 -45 51q-41 0 -41 -51v-285z" />
<glyph unicode="&#xe9;" horiz-adv-x="575" d="M57 238v790q0 260 228 260q233 0 233 -260v-428h-274v-362q0 -52 41 -52q45 0 45 54v276h188v-278q0 -256 -233 -256q-228 0 -228 256zM150 1343l223 330h256l-287 -330h-192zM244 743h86v285q0 51 -45 51q-41 0 -41 -51v-285z" />
<glyph unicode="&#xea;" horiz-adv-x="575" d="M-23 1343l199 330h236l186 -330h-195l-116 224l-125 -224h-185zM57 238v790q0 260 228 260q233 0 233 -260v-428h-274v-362q0 -52 41 -52q45 0 45 54v276h188v-278q0 -256 -233 -256q-228 0 -228 256zM244 743h86v285q0 51 -45 51q-41 0 -41 -51v-285z" />
<glyph unicode="&#xeb;" horiz-adv-x="575" d="M29 1368v256h200v-256h-200zM57 238v790q0 260 228 260q233 0 233 -260v-428h-274v-362q0 -52 41 -52q45 0 45 54v276h188v-278q0 -256 -233 -256q-228 0 -228 256zM244 743h86v285q0 51 -45 51q-41 0 -41 -51v-285zM346 1368v256h201v-256h-201z" />
<glyph unicode="&#xec;" horiz-adv-x="403" d="M-111 1673h256l224 -330h-193zM131 0v1268h201v-1268h-201z" />
<glyph unicode="&#xed;" horiz-adv-x="417" d="M37 1343l223 330h256l-287 -330h-192zM74 0v1268h200v-1268h-200z" />
<glyph unicode="&#xee;" horiz-adv-x="516" d="M-53 1343l198 330h236l186 -330h-194l-117 224l-125 -224h-184zM158 0v1268h200v-1268h-200z" />
<glyph unicode="&#xef;" horiz-adv-x="448" d="M-35 1368v256h201v-256h-201zM125 0v1268h201v-1268h-201zM283 1368v256h200v-256h-200z" />
<glyph unicode="&#xf0;" horiz-adv-x="663" d="M57 274v541q0 129 60 189.5t164 60.5q70 0 120 -41v158q0 128 -18 188l-180 -207l-58 49l199 228q-39 41 -137 41v223q194 0 282 -96l89 98l57 -49l-98 -113q69 -132 69 -373v-897q0 -142 -69.5 -217t-204.5 -75q-136 0 -205.5 75t-69.5 217zM281 268q0 -63 51 -63 q49 0 49 63v549q-11 29 -45 29q-55 0 -55 -70v-508z" />
<glyph unicode="&#xf1;" horiz-adv-x="622" d="M57 1397v166q45 49 129 49q50 0 133 -30t130 -30q43 0 67.5 11.5t44.5 42.5h4v-168q-49 -49 -129 -49q-51 0 -134.5 31.5t-127.5 31.5q-70 0 -113 -55h-4zM70 0v1268h170q6 -30 6 -68q58 88 155 88q158 0 158 -233v-1055h-201v1042q0 50 -41 50q-29 0 -47 -21v-1071h-200 z" />
<glyph unicode="&#xf2;" horiz-adv-x="598" d="M-43 1673h256l223 -330h-192zM57 233v801q0 254 242 254q120 0 181 -65t61 -189v-801q0 -251 -242 -251t-242 251zM254 242q0 -56 45 -56t45 56v784q0 55 -45 55t-45 -55v-784z" />
<glyph unicode="&#xf3;" horiz-adv-x="598" d="M57 233v801q0 254 242 254q120 0 181 -65t61 -189v-801q0 -251 -242 -251t-242 251zM162 1343l223 330h256l-287 -330h-192zM254 242q0 -56 45 -56t45 56v784q0 55 -45 55t-45 -55v-784z" />
<glyph unicode="&#xf4;" horiz-adv-x="598" d="M-10 1343l198 330h236l186 -330h-194l-117 224l-125 -224h-184zM57 233v801q0 254 242 254q120 0 181 -65t61 -189v-801q0 -251 -242 -251t-242 251zM254 242q0 -56 45 -56t45 56v784q0 55 -45 55t-45 -55v-784z" />
<glyph unicode="&#xf5;" horiz-adv-x="598" d="M45 1397v166q45 49 129 49q50 0 133 -30t129 -30q43 0 68 11.5t45 42.5h4v-168q-49 -49 -129 -49q-51 0 -134.5 31.5t-127.5 31.5q-70 0 -113 -55h-4zM57 233v801q0 254 242 254q120 0 181 -65t61 -189v-801q0 -251 -242 -251t-242 251zM254 242q0 -56 45 -56t45 56v784 q0 55 -45 55t-45 -55v-784z" />
<glyph unicode="&#xf6;" horiz-adv-x="598" d="M41 1368v256h201v-256h-201zM57 233v801q0 254 242 254q120 0 181 -65t61 -189v-801q0 -251 -242 -251t-242 251zM254 242q0 -56 45 -56t45 56v784q0 55 -45 55t-45 -55v-784zM358 1368v256h201v-256h-201z" />
<glyph unicode="&#xf7;" horiz-adv-x="962" d="M70 776v166h825v-166h-825zM377 356v256h207v-256h-207zM377 1106v256h207v-256h-207z" />
<glyph unicode="&#xf8;" horiz-adv-x="598" d="M57 -193l58 240q-58 64 -58 186v801q0 254 242 254q59 0 109 -20l47 192h86l-58 -241q58 -67 58 -185v-801q0 -251 -242 -251q-66 0 -109 16l-47 -191h-86zM254 242q0 -56 45 -56t45 56v403l-90 -375v-28zM254 631l90 373v22q0 55 -45 55t-45 -55v-395z" />
<glyph unicode="&#xf9;" horiz-adv-x="618" d="M-33 1673h256l223 -330h-192zM63 203v1065h201v-1032q0 -50 39 -50q27 0 45 21v1061h201v-1268h-170q-6 30 -6 68q-55 -78 -152 -78q-73 0 -115.5 57.5t-42.5 155.5z" />
<glyph unicode="&#xfa;" horiz-adv-x="618" d="M63 203v1065h201v-1032q0 -50 39 -50q27 0 45 21v1061h201v-1268h-170q-6 30 -6 68q-55 -78 -152 -78q-73 0 -115.5 57.5t-42.5 155.5zM172 1343l223 330h256l-286 -330h-193z" />
<glyph unicode="&#xfb;" horiz-adv-x="618" d="M0 1343l199 330h235l187 -330h-195l-117 224l-125 -224h-184zM63 203v1065h201v-1032q0 -50 39 -50q27 0 45 21v1061h201v-1268h-170q-6 30 -6 68q-55 -78 -152 -78q-73 0 -115.5 57.5t-42.5 155.5z" />
<glyph unicode="&#xfc;" horiz-adv-x="618" d="M51 1368v256h201v-256h-201zM63 203v1065h201v-1032q0 -50 39 -50q27 0 45 21v1061h201v-1268h-170q-6 30 -6 68q-55 -78 -152 -78q-73 0 -115.5 57.5t-42.5 155.5zM369 1368v256h200v-256h-200z" />
<glyph unicode="&#xfd;" horiz-adv-x="571" d="M16 1268h209q56 -649 62 -824q2 58 8 134t12.5 142t23.5 237t31 311h191l-166 -1241q-11 -83 -28 -139t-47.5 -99.5t-79.5 -63.5t-119 -20q-47 0 -78 8v199q23 -6 69 -6q40 0 57.5 35.5t24.5 109.5zM152 1343l223 330h256l-287 -330h-192z" />
<glyph unicode="&#xfe;" horiz-adv-x="624" d="M70 -285v1971h200v-435q43 37 113 37q94 0 139 -56t45 -177v-842q0 -121 -45 -176t-139 -55q-73 0 -113 34v-301h-200zM270 217q15 -27 47 -27q50 0 50 50v788q0 51 -50 51q-31 0 -47 -28v-834z" />
<glyph unicode="&#xff;" horiz-adv-x="571" d="M16 1268h209q56 -649 62 -824q2 58 8 134t12.5 142t23.5 237t31 311h191l-166 -1241q-11 -83 -28 -139t-47.5 -99.5t-79.5 -63.5t-119 -20q-47 0 -78 8v199q23 -6 69 -6q40 0 57.5 35.5t24.5 109.5zM31 1368v256h200v-256h-200zM348 1368v256h201v-256h-201z" />
<glyph unicode="&#x152;" horiz-adv-x="890" d="M57 268v1149q0 287 275 287q66 0 112 -18h402v-224h-240v-491h152v-223h-152v-525h250v-223h-412q-46 -18 -112 -18q-275 0 -275 286zM281 268q0 -63 51 -63q33 0 51 6v1264q-18 6 -51 6q-51 0 -51 -64v-1149z" />
<glyph unicode="&#x153;" horiz-adv-x="872" d="M57 233v801q0 254 242 254q87 0 143 -39q53 39 140 39q233 0 233 -260v-428h-274v-362q0 -52 41 -52q45 0 45 54v276h188v-278q0 -256 -233 -256q-84 0 -142 34q-52 -34 -141 -34q-242 0 -242 251zM254 242q0 -56 45 -56t45 56v784q0 55 -45 55t-45 -55v-784zM541 743h86 v285q0 51 -45 51q-41 0 -41 -51v-285z" />
<glyph unicode="&#x178;" horiz-adv-x="688" d="M12 1686h236q63 -366 102 -639q28 198 109 639h217l-223 -967v-719h-226v719zM90 1786v256h201v-256h-201zM408 1786v256h200v-256h-200z" />
<glyph unicode="&#x2c6;" horiz-adv-x="796" d="M88 1343l199 330h235l187 -330h-195l-117 224l-125 -224h-184z" />
<glyph unicode="&#x2dc;" horiz-adv-x="647" d="M70 1397v166q45 49 129 49q49 0 132 -30t130 -30q43 0 67.5 11.5t44.5 42.5h5v-168q-49 -49 -129 -49q-51 0 -135 31.5t-128 31.5q-69 0 -112 -55h-4z" />
<glyph unicode="&#x2000;" horiz-adv-x="1045" />
<glyph unicode="&#x2001;" horiz-adv-x="2091" />
<glyph unicode="&#x2002;" horiz-adv-x="1045" />
<glyph unicode="&#x2003;" horiz-adv-x="2091" />
<glyph unicode="&#x2004;" horiz-adv-x="697" />
<glyph unicode="&#x2005;" horiz-adv-x="522" />
<glyph unicode="&#x2006;" horiz-adv-x="348" />
<glyph unicode="&#x2007;" horiz-adv-x="348" />
<glyph unicode="&#x2008;" horiz-adv-x="261" />
<glyph unicode="&#x2009;" horiz-adv-x="418" />
<glyph unicode="&#x200a;" horiz-adv-x="116" />
<glyph unicode="&#x2010;" d="M20 764v170h334v-170h-334z" />
<glyph unicode="&#x2011;" d="M20 764v170h334v-170h-334z" />
<glyph unicode="&#x2012;" d="M20 764v170h334v-170h-334z" />
<glyph unicode="&#x2013;" horiz-adv-x="575" d="M20 764v170h537v-170h-537z" />
<glyph unicode="&#x2014;" horiz-adv-x="913" d="M20 764v170h877v-170h-877z" />
<glyph unicode="&#x2018;" horiz-adv-x="321" d="M57 1321v233q0 65 39.5 107.5t116.5 42.5h27v-88h-27q-25 0 -34 -10.5t-9 -36.5v-37h94v-211h-207z" />
<glyph unicode="&#x2019;" horiz-adv-x="321" d="M57 1475v211h207v-232q0 -66 -38 -108.5t-117 -42.5h-27v88h27q24 0 33.5 11t9.5 36v37h-95z" />
<glyph unicode="&#x201a;" horiz-adv-x="344" d="M70 45v211h206v-231q0 -65 -39 -108.5t-116 -43.5h-27v88h27q24 0 33.5 11t9.5 38v35h-94z" />
<glyph unicode="&#x201c;" horiz-adv-x="643" d="M57 1321v233q0 65 39.5 107.5t116.5 42.5h27v-88h-27q-25 0 -34 -10.5t-9 -36.5v-37h94v-211h-207zM379 1321v233q0 65 39.5 107.5t116.5 42.5h26v-88h-26q-25 0 -34 -10.5t-9 -36.5v-37h94v-211h-207z" />
<glyph unicode="&#x201d;" horiz-adv-x="643" d="M57 1475v211h207v-232q0 -66 -38 -108.5t-117 -42.5h-27v88h27q24 0 33.5 11t9.5 36v37h-95zM379 1475v211h207v-232q0 -66 -38 -108.5t-118 -42.5h-27v88h27q24 0 33.5 11t9.5 36v37h-94z" />
<glyph unicode="&#x201e;" horiz-adv-x="688" d="M70 45v211h206v-231q0 -65 -39 -108.5t-116 -43.5h-27v88h27q24 0 33.5 11t9.5 38v35h-94zM414 45v211h207v-231q0 -65 -39.5 -108.5t-116.5 -43.5h-27v88h27q24 0 33.5 11t9.5 38v35h-94z" />
<glyph unicode="&#x2022;" horiz-adv-x="432" d="M57 963q0 80 43.5 132t116.5 52q72 0 115 -52t43 -132t-43 -132.5t-115 -52.5q-73 0 -116.5 52.5t-43.5 132.5z" />
<glyph unicode="&#x2026;" horiz-adv-x="1607" d="M57 0v256h207v-256h-207zM700 0v256h207v-256h-207zM1343 0v256h207v-256h-207z" />
<glyph unicode="&#x202f;" horiz-adv-x="418" />
<glyph unicode="&#x2039;" horiz-adv-x="397" d="M33 565v236l332 205v-187l-226 -135l226 -143v-195z" />
<glyph unicode="&#x203a;" horiz-adv-x="397" d="M33 346v195l225 143l-225 135v187l332 -205v-236z" />
<glyph unicode="&#x205f;" horiz-adv-x="522" />
<glyph unicode="&#x20ac;" horiz-adv-x="710" d="M14 584l25 168h74v215h-99l25 168h74v241q0 172 81.5 250t284.5 78q119 0 217 -10l-34 -221q-83 12 -175 12q-65 0 -98.5 -12.5t-43 -33.5t-9.5 -63v-241h270l-26 -168h-244v-215h211l-29 -168h-182v-320q0 -63 59 -63q62 0 62 63v162h219v-158q0 -143 -68.5 -214.5 t-212.5 -71.5q-146 0 -214 71.5t-68 214.5v316h-99z" />
<glyph unicode="&#x2122;" horiz-adv-x="1007" d="M49 1583v103h332v-103h-98v-676h-136v676h-98zM453 907v779h178l63 -543q25 249 64 543h180v-779h-123v219q0 152 8 275q-16 -147 -71 -494h-115q-18 128 -34 239t-24 164t-12 91q8 -123 8 -275v-219h-122z" />
<glyph unicode="&#x25fc;" horiz-adv-x="1269" d="M0 0v1270h1270v-1270h-1270z" />
<glyph unicode="&#xfb01;" horiz-adv-x="737" d="M14 1094v174h64v176q0 114 47.5 183t155.5 69q50 0 94 -13v-170q-9 3 -29 3q-67 0 -67 -76v-172h92v-174h-92v-1094h-201v1094h-64zM465 0v1268h201v-1268h-201zM465 1430v256h201v-256h-201z" />
<glyph unicode="&#xfb02;" horiz-adv-x="731" d="M14 1094v174h64v176q0 114 47.5 183t155.5 69q50 0 94 -13v-170q-9 3 -29 3q-67 0 -67 -76v-172h92v-174h-92v-1094h-201v1094h-64zM461 0v1686h201v-1686h-201z" />
</font>
</defs>
</svg>
