<?xml version="1.0" standalone="no"?>
<!DOCTYPE svg PUBLIC "-//W3C//DTD SVG 1.1//EN" "http://www.w3.org/Graphics/SVG/1.1/DTD/svg11.dtd" >
<svg xmlns="http://www.w3.org/2000/svg" xmlns:xlink="http://www.w3.org/1999/xlink" version="1.1">
<metadata></metadata>
<defs>
<font id="steelfishbook" horiz-adv-x="573" >
<font-face units-per-em="2048" ascent="1743" descent="-305" />
<missing-glyph horiz-adv-x="278" />
<glyph unicode="&#x28;C&#x29;" horiz-adv-x="1048" d="M68 453v780q0 253 108 362t348 109q238 0 347.5 -110t109.5 -361v-780q0 -252 -108.5 -361.5t-348.5 -109.5t-348 109t-108 362zM152 442q0 -205 85.5 -292t286.5 -87t287 87t86 292v799q0 212 -85 296.5t-288 84.5t-287.5 -84.5t-84.5 -296.5v-799zM360 489v721 q0 91 43 138t123 47q152 0 152 -183v-188h-74v188q0 101 -78 101q-84 0 -84 -103v-721q0 -98 84 -98q42 0 60 23.5t18 74.5v222h74v-219q0 -93 -36.5 -137t-115.5 -44q-166 0 -166 178z" />
<glyph unicode="&#x28;R&#x29;" horiz-adv-x="1048" d="M68 453v780q0 253 108 362t348 109q238 0 347.5 -110t109.5 -361v-780q0 -252 -108.5 -361.5t-348.5 -109.5t-348 109t-108 362zM152 442q0 -205 85.5 -292t286.5 -87t287 87t86 292v799q0 212 -85 296.5t-288 84.5t-287.5 -84.5t-84.5 -296.5v-799zM362 322v1060h160 q94 0 138.5 -45t44.5 -149v-207q0 -124 -84 -162q21 -88 98 -497h-90q-36 247 -84 481q-6 -2 -31 -2h-70v-479h-82zM444 877h78q103 0 103 106v205q0 61 -22 86.5t-81 25.5h-78v-423z" />
<glyph horiz-adv-x="0" />
<glyph horiz-adv-x="682" />
<glyph horiz-adv-x="278" />
<glyph unicode=" "  horiz-adv-x="278" />
<glyph unicode="&#x09;" horiz-adv-x="278" />
<glyph unicode="&#xa0;" horiz-adv-x="278" />
<glyph unicode="!" horiz-adv-x="303" d="M86 1118v568h131v-566l-27 -794h-79zM88 0v223h127v-223h-127z" />
<glyph unicode="&#x22;" horiz-adv-x="473" d="M68 1511v175h114v-175l-24 -292h-66zM291 1511v175h115v-175l-25 -292h-66z" />
<glyph unicode="#" horiz-adv-x="798" d="M47 621v104h150l49 281h-164v106h182l101 574h94l-103 -574h176l103 574h92l-102 -574h127v-106h-146l-49 -281h158v-104h-176l-109 -621h-92l108 621h-176l-110 -621h-90l108 621h-131zM289 725h176l49 281h-176z" />
<glyph unicode="$" horiz-adv-x="585" d="M68 295v323h94v-266q0 -47 3 -79t12.5 -64.5t30 -51t52.5 -24.5v666q-79 61 -115 100t-56.5 99.5t-20.5 154.5v242q0 250 192 268v117h64v-117q98 -10 143 -74.5t45 -193.5v-277h-92v277q0 71 -22 110t-74 49v-649q59 -41 91 -70t58 -72.5t35.5 -100t9.5 -142.5v-225 q0 -254 -194 -275v-126h-64v126q-192 20 -192 275zM162 1153q0 -68 22.5 -115t75.5 -88v604q-53 -10 -75.5 -49t-22.5 -110v-242zM324 133q96 15 96 152v235q0 96 -22 149t-74 91v-627z" />
<glyph unicode="%" horiz-adv-x="972" d="M68 0l743 1686h88l-743 -1686h-88zM68 997v576q0 143 137 143q135 0 135 -143v-576q0 -143 -135 -143q-137 0 -137 143zM145 995q0 -65 60 -65q59 0 59 65v578q0 65 -59 65q-60 0 -60 -65v-578zM631 113v575q0 143 137 143q135 0 135 -143v-575q0 -144 -135 -144 q-137 0 -137 144zM709 111q0 -66 59 -66t59 66v577q0 66 -59 66t-59 -66v-577z" />
<glyph unicode="&#x26;" horiz-adv-x="763" d="M59 334v112q0 145 41 248q39 99 111 183l-45 122q-35 103 -47.5 172t-12.5 148v106q0 147 49 211t160 64q112 0 160.5 -69t48.5 -201v-113q0 -138 -43 -238q-42 -98 -147 -231l213 -608q57 122 57 311v74h94v-78q0 -270 -98 -422q19 -19 45 -19q59 0 80 35v-121 q-40 -28 -98 -28q-71 0 -111 43q-71 -53 -182 -53q-83 0 -137 20.5t-84.5 67t-42 108.5t-11.5 156zM178 334q0 -136 35 -187t131 -51q79 0 125 37l-213 623q-44 -62 -61 -127.5t-17 -177.5v-117zM213 1319q0 -127 53 -281l23 -69q55 60 96 151q41 90 41 199v111 q0 155 -102 155q-60 0 -85.5 -39t-25.5 -121v-106z" />
<glyph unicode="'" horiz-adv-x="249" d="M68 1511v175h114v-175l-24 -292h-66z" />
<glyph unicode="(" horiz-adv-x="526" d="M156 190v1305q0 184 75 269t230 85h16v-90h-16q-110 0 -162.5 -64t-52.5 -200v-1305q0 -136 52.5 -200t162.5 -64h16v-90h-16q-155 0 -230 85t-75 269z" />
<glyph unicode=")" horiz-adv-x="526" d="M156 -74h16q110 0 162.5 64t52.5 200v1305q0 136 -52.5 200t-162.5 64h-16v90h16q155 0 230 -85t75 -269v-1305q0 -184 -75 -269t-230 -85h-16v90z" />
<glyph unicode="*" horiz-adv-x="704" d="M35 1425l24 76l263 -96l-13 281h82l-12 -281l264 98l25 -78l-271 -75l174 -220l-65 -47l-156 234l-153 -234l-66 47l172 220z" />
<glyph unicode="+" horiz-adv-x="940" d="M80 813v92h346v344h92v-344h344v-92h-344v-346h-92v346h-346z" />
<glyph unicode="," horiz-adv-x="251" d="M68 45v211h116v-281q0 -49 -20 -71.5t-68 -22.5h-10v56h6q29 0 29 32v76h-53z" />
<glyph unicode="-" horiz-adv-x="374" d="M31 803v94h317v-94h-317z" />
<glyph unicode="." horiz-adv-x="249" d="M68 0v256h114v-256h-114z" />
<glyph unicode="/" horiz-adv-x="493" d="M16 0l367 1686h92l-369 -1686h-90z" />
<glyph unicode="0" horiz-adv-x="669" d="M68 268v1149q0 143 65 215t203 72t203 -72t65 -215v-1149q0 -143 -65 -214.5t-203 -71.5t-203 71.5t-65 214.5zM188 266q0 -166 148 -166q147 0 147 166v1153q0 166 -147 166q-148 0 -148 -166v-1153z" />
<glyph unicode="1" horiz-adv-x="331" d="M39 1442v119h45q31 0 43 16t12 57v52h109v-1686h-121v1442h-88z" />
<glyph unicode="2" horiz-adv-x="630" d="M59 0v313q0 104 8.5 167.5t38.5 125.5q25 52 99 146q81 100 111 138t63.5 87.5t48.5 85.5q27 65 27 166v180q0 93 -31.5 132.5t-108.5 39.5q-72 0 -103.5 -40.5t-31.5 -131.5v-291h-121v289q0 154 62.5 225.5t193.5 71.5q260 0 260 -297v-178q0 -76 -8 -125t-30 -98 q-39 -94 -158 -236q-124 -149 -160 -217q-24 -50 -31.5 -102.5t-7.5 -137.5v-192h395v-121h-516z" />
<glyph unicode="3" horiz-adv-x="632" d="M57 266v332h123v-332q0 -164 137 -164q138 0 138 166v367q0 92 -28 130t-114 38h-77v115h83q81 0 107.5 37.5t26.5 127.5v330q0 91 -29.5 129.5t-106.5 38.5t-106 -38.5t-29 -129.5v-297h-121v297q0 153 61 222t195 69q131 0 191.5 -69.5t60.5 -223.5v-352 q0 -88 -33 -133.5t-98 -65.5q65 -13 100 -58.5t35 -139.5v-394q0 -133 -64.5 -209.5t-191.5 -76.5q-128 0 -194 76t-66 208z" />
<glyph unicode="4" horiz-adv-x="649" d="M25 358v105l397 1223h119v-1213h82v-115h-82v-358h-113v358h-403zM135 473h293v901z" />
<glyph unicode="5" horiz-adv-x="645" d="M68 852l20 834h483v-123h-372l-19 -594q49 100 189 100q108 0 160.5 -61t52.5 -199v-545q0 -143 -62 -212.5t-192 -69.5q-258 0 -258 282v354h118v-354q0 -162 140 -162q71 0 103 39.5t32 124.5v545q0 150 -139 150q-111 0 -146 -115z" />
<glyph unicode="6" horiz-adv-x="651" d="M68 266v1151q0 137 66.5 212t193.5 75q128 0 190 -74.5t62 -212.5v-291h-117v291q0 164 -135 164q-67 0 -103.5 -43t-36.5 -121v-461q51 103 181 103q113 0 166 -64.5t53 -206.5v-520q0 -137 -65.5 -211.5t-194.5 -74.5q-127 0 -193.5 74.5t-66.5 209.5zM188 266 q0 -78 36.5 -121t103.5 -43q68 0 103.5 43.5t35.5 122.5v512q0 85 -34.5 123.5t-104.5 38.5q-128 0 -140 -131v-545z" />
<glyph unicode="7" horiz-adv-x="587" d="M33 1563v123h522v-113q-142 -324 -208 -683.5t-66 -889.5h-123q0 263 20 496t48 390t69.5 300t72.5 220.5t70 156.5h-405z" />
<glyph unicode="8" horiz-adv-x="643" d="M61 262v397q0 96 35 143t101 66q-60 20 -92.5 67.5t-32.5 135.5v342q0 145 59.5 218t187.5 73t188 -73t60 -218v-342q0 -89 -32 -136t-93 -67q67 -19 102.5 -66t35.5 -143v-397q0 -136 -66 -208t-195 -72t-193.5 71.5t-64.5 208.5zM182 262q0 -82 32 -121t105 -39 q74 0 107 39.5t33 120.5v406q0 72 -33 103.5t-107 31.5q-73 0 -105 -31.5t-32 -103.5v-406zM184 1057q0 -73 32 -106t103 -33q138 0 138 139v356q0 95 -28 131.5t-110 36.5t-108.5 -36t-26.5 -132v-356z" />
<glyph unicode="9" horiz-adv-x="651" d="M63 924v493q0 287 259 287q262 0 262 -285v-1151q0 -137 -66.5 -211.5t-195.5 -74.5q-124 0 -190 75t-66 211v291h118v-291q0 -78 36 -122t102 -44q68 0 103.5 43.5t35.5 122.5v488q-44 -103 -178 -103q-114 0 -167 63.5t-53 207.5zM184 922q0 -74 33 -111t105 -37 q130 0 139 131v510q0 87 -33.5 126.5t-105.5 39.5q-74 0 -106 -36t-32 -130v-493z" />
<glyph unicode=":" horiz-adv-x="249" d="M68 0v256h114v-256h-114zM68 750v254h114v-254h-114z" />
<glyph unicode=";" horiz-adv-x="251" d="M68 45v211h116v-281q0 -49 -20 -71.5t-68 -22.5h-10v56h6q29 0 29 32v76h-53zM68 750v254h114v-254h-114z" />
<glyph unicode="&#x3c;" horiz-adv-x="940" d="M80 803v112l782 277v-94l-688 -236l688 -246v-94z" />
<glyph unicode="=" horiz-adv-x="940" d="M80 621v94h782v-94h-782zM80 1004v94h782v-94h-782z" />
<glyph unicode="&#x3e;" horiz-adv-x="940" d="M80 522v94l688 246l-688 236v94l782 -277v-112z" />
<glyph unicode="?" horiz-adv-x="610" d="M53 1118v295q0 150 61 220.5t195 70.5q129 0 190.5 -70.5t61.5 -222.5v-166q0 -126 -22.5 -202t-77.5 -138q-75 -88 -93 -134.5t-18 -156.5v-231h-112v229q0 117 23.5 188.5t88.5 143.5q58 66 74 117.5t16 183.5v168q0 168 -131 168q-139 0 -139 -166v-297h-117zM236 0 v256h116v-256h-116z" />
<glyph unicode="@" horiz-adv-x="1046" d="M63 299v715q0 251 108.5 361t348.5 110q229 0 335 -103.5t106 -328.5v-629q0 -93 -41.5 -154t-124.5 -61q-53 0 -92.5 26.5t-53.5 69.5q-8 -37 -44 -63.5t-89 -26.5q-84 0 -128 44t-44 153v440q0 117 43.5 163t128.5 46q94 0 123 -80q0 24 4 70h62v-623q0 -31 2 -50.5 t10 -42t26.5 -33.5t47.5 -11q86 0 86 129v635q0 334 -357 334q-106 0 -176.5 -25.5t-110.5 -82t-56.5 -133.5t-16.5 -192v-659q0 -221 95 -314.5t284 -93.5q192 0 275 49.5t83 155.5q0 21 -2 35h82q6 -21 6 -49q0 -50 -14.5 -92.5t-48.5 -79.5t-86 -63t-131 -41t-179 -15 q-111 0 -193 26t-143.5 84t-93 158t-31.5 242zM428 446q0 -85 24 -118t85 -33q77 0 92 84v477q-5 61 -25.5 88t-66.5 27q-56 0 -82.5 -28.5t-26.5 -94.5v-402z" />
<glyph unicode="A" horiz-adv-x="681" d="M29 0l245 1686h144l233 -1686h-123l-41 305h-297l-43 -305h-118zM207 418h264l-129 962z" />
<glyph unicode="B" horiz-adv-x="663" d="M80 0v1686h264q130 0 187 -66.5t57 -216.5v-334q0 -169 -115 -197q135 -26 135 -194v-393q0 -147 -66 -216t-198 -69h-264zM201 121h143q139 0 139 164v356q0 95 -28.5 132.5t-110.5 37.5h-143v-690zM201 920h143q71 0 100 32t29 107v342q0 92 -28.5 127t-100.5 35h-143 v-643z" />
<glyph unicode="C" horiz-adv-x="630" d="M68 266v1147q0 291 264 291q241 0 241 -287v-299h-112v297q0 88 -28.5 127t-100.5 39q-73 0 -107.5 -40.5t-34.5 -125.5v-1147q0 -166 142 -166q71 0 100 39t29 127v350h112v-348q0 -148 -58.5 -218t-182.5 -70q-264 0 -264 284z" />
<glyph unicode="D" horiz-adv-x="665" d="M80 0v1686h258q127 0 193.5 -76t66.5 -213v-1110q0 -140 -66 -213.5t-194 -73.5h-258zM201 121h137q139 0 139 166v1108q0 79 -35.5 123.5t-103.5 44.5h-137v-1442z" />
<glyph unicode="E" d="M80 0v1686h438v-123h-317v-643h233v-121h-233v-678h327v-121h-448z" />
<glyph unicode="F" horiz-adv-x="552" d="M80 0v1686h448v-123h-327v-652h235v-120h-235v-791h-121z" />
<glyph unicode="G" horiz-adv-x="657" d="M68 268v1147q0 141 66 215t196 74q131 0 191.5 -73t60.5 -216v-297h-111v297q0 83 -33 124.5t-108 41.5q-76 0 -109 -41.5t-33 -124.5v-1147q0 -78 39 -122t101 -44q138 0 147 156v401h-156v117h273v-786h-25l-41 106q-23 -54 -77.5 -84t-129.5 -30q-251 0 -251 286z" />
<glyph unicode="H" horiz-adv-x="677" d="M80 0v1686h121v-768h276v768h121v-1686h-121v797h-276v-797h-121z" />
<glyph unicode="I" horiz-adv-x="288" d="M84 0v1686h121v-1686h-121z" />
<glyph unicode="J" horiz-adv-x="446" d="M25 6v121q43 -16 102 -16q61 0 92 38t31 121v1416h123v-1416q0 -282 -246 -282q-70 0 -102 18z" />
<glyph unicode="K" horiz-adv-x="710" d="M80 0v1686h121v-738l344 738h133l-375 -775l395 -911h-139l-358 846v-846h-121z" />
<glyph unicode="L" horiz-adv-x="550" d="M80 0v1686h121v-1565h327v-121h-448z" />
<glyph unicode="M" horiz-adv-x="917" d="M76 0v1686h166l215 -1389l215 1389h170v-1686h-115v1327l-215 -1327h-109l-215 1327v-1327h-112z" />
<glyph unicode="N" horiz-adv-x="720" d="M76 0v1686h151l305 -1326v1326h113v-1686h-125l-334 1331v-1331h-110z" />
<glyph unicode="O" horiz-adv-x="655" d="M68 268v1149q0 287 260 287t260 -287v-1149q0 -286 -260 -286t-260 286zM188 268q0 -166 140 -166q139 0 139 166v1149q0 164 -139 164q-140 0 -140 -164v-1149z" />
<glyph unicode="P" horiz-adv-x="657" d="M80 0v1686h258q146 0 214.5 -74t68.5 -232v-276q0 -158 -68.5 -230.5t-212.5 -72.5h-139v-801h-121zM201 920h139q83 0 121.5 42.5t38.5 139.5v278q0 95 -36 139t-126 44h-137v-643z" />
<glyph unicode="Q" horiz-adv-x="655" d="M68 295v1122q0 287 260 287t260 -287v-1122q0 -270 -228 -285q-2 -4 -2 -18q0 -92 107 -92q46 0 74.5 13t48.5 44v-100q-31 -54 -135 -54q-85 0 -135 50.5t-50 130.5q0 22 2 28q-202 33 -202 283zM188 289q0 -164 140 -164q139 0 139 164v1128q0 164 -139 164 q-140 0 -140 -164v-1128z" />
<glyph unicode="R" horiz-adv-x="677" d="M80 0v1686h252q146 0 216 -71t70 -233v-327q0 -188 -137 -252q67 -305 156 -803h-133q-76 492 -137 774q-10 -2 -35 -2h-131v-772h-121zM201 883h131q91 0 127.5 39t36.5 131v329q0 103 -35 142t-129 39h-131v-680z" />
<glyph unicode="S" horiz-adv-x="632" d="M59 260v358h117v-313q0 -97 30.5 -150t106.5 -53q72 0 106 39.5t34 118.5v242q0 75 -8.5 110.5t-36.5 65.5q-42 50 -147 136t-142 134q-39 52 -49.5 96.5t-10.5 129.5v251q0 279 258 279q134 0 192 -67.5t58 -211.5v-307h-112v268q0 96 -29.5 145.5t-106.5 49.5 q-72 0 -104.5 -37t-32.5 -119v-249q0 -56 8.5 -87t34.5 -61q39 -45 134.5 -126.5t138.5 -131.5q44 -54 59.5 -106t15.5 -162v-242q0 -138 -61.5 -208t-194.5 -70q-258 0 -258 278z" />
<glyph unicode="T" horiz-adv-x="571" d="M25 1563v123h522v-123h-201v-1563h-121v1563h-200z" />
<glyph unicode="U" horiz-adv-x="665" d="M74 268v1418h121v-1418q0 -166 139 -166q137 0 137 166v1418h121v-1418q0 -286 -258 -286q-260 0 -260 286z" />
<glyph unicode="V" horiz-adv-x="688" d="M29 1686h127l184 -1475l197 1475h122l-241 -1686h-164z" />
<glyph unicode="W" horiz-adv-x="1067" d="M29 1686h127l153 -1399l158 1399h133l141 -1399l168 1399h129l-225 -1686h-154l-131 1333l-143 -1333h-154z" />
<glyph unicode="X" horiz-adv-x="690" d="M14 0l260 897l-223 789h129l166 -642l168 642h127l-227 -785l262 -901h-131l-203 762l-203 -762h-125z" />
<glyph unicode="Y" horiz-adv-x="675" d="M23 1686h129l186 -721l194 721h121l-258 -912v-774h-123v776z" />
<glyph unicode="Z" horiz-adv-x="626" d="M55 0v121l398 1446h-383v119h503v-111l-391 -1452h391v-123h-518z" />
<glyph unicode="[" horiz-adv-x="501" d="M156 -164v2013h297v-90h-207v-1833h207v-90h-297z" />
<glyph unicode="\" horiz-adv-x="493" d="M16 1686h93l366 -1686h-90z" />
<glyph unicode="]" horiz-adv-x="501" d="M156 -74h206v1833h-206v90h297v-2013h-297v90z" />
<glyph unicode="^" horiz-adv-x="632" d="M80 1001l182 685h113l178 -685h-90l-141 580l-152 -580h-90z" />
<glyph unicode="_" horiz-adv-x="598" d="M-2 -137h602v-84h-602v84z" />
<glyph unicode="`" horiz-adv-x="536" d="M80 1673h143l234 -330h-109z" />
<glyph unicode="a" horiz-adv-x="581" d="M51 182v187q0 53 9.5 98.5t24.5 79t41.5 64t52 51t65.5 42t72 35.5t81 33v266q0 72 -25 106t-89 34q-65 0 -91 -34.5t-26 -105.5v-268h-98v268q0 127 51.5 188.5t165.5 61.5q219 0 219 -250v-854q0 -133 10 -184h-100q-8 31 -8 84q-56 -102 -162 -102q-193 0 -193 200z M160 223q0 -133 121 -133q94 0 116 105v487q-140 -49 -188.5 -117t-48.5 -203v-139z" />
<glyph unicode="b" horiz-adv-x="618" d="M80 0v1686h110v-500q26 46 71.5 74t103.5 28q99 0 142.5 -53t43.5 -180v-817q0 -135 -48 -193.5t-157 -58.5q-124 0 -184 123q-3 -55 -17 -109h-65zM190 213q18 -54 57 -82.5t85 -28.5q58 0 83 30.5t25 103.5v817q0 65 -25 93t-83 28q-45 0 -84.5 -29t-57.5 -82v-850z " />
<glyph unicode="c" horiz-adv-x="579" d="M68 240v786q0 122 57 192t170 70q111 0 164 -69.5t53 -190.5v-274h-100v276q0 68 -29.5 106t-87.5 38q-59 0 -89 -39t-30 -107v-788q0 -69 30 -107.5t89 -38.5q60 0 89.5 38t29.5 106v280h102v-282q0 -120 -54 -187t-167 -67q-114 0 -170.5 68.5t-56.5 189.5z" />
<glyph unicode="d" horiz-adv-x="618" d="M68 221v834q0 127 43.5 180t142.5 53q58 0 103 -28t71 -74v500h111v-1686h-95q-4 70 -4 109q-50 -123 -190 -123q-93 0 -137.5 56t-44.5 179zM178 236q0 -73 25.5 -103.5t83.5 -30.5q45 0 84 29t57 82v852q-18 53 -57 82t-84 29q-58 0 -83.5 -30.5t-25.5 -101.5v-808z " />
<glyph unicode="e" d="M68 238v790q0 128 55.5 194t159.5 66q223 0 223 -260v-395h-336v-395q0 -144 113 -144q118 0 118 144v278h105v-278q0 -256 -223 -256q-215 0 -215 256zM170 715h231v313q0 146 -118 146q-113 0 -113 -146v-313z" />
<glyph unicode="f" horiz-adv-x="393" d="M25 1169v99h59v176q0 133 43 192.5t149 59.5q50 0 91 -13v-96q-33 10 -62 10q-60 0 -85 -35t-25 -120v-174h167v-99h-167v-1169h-111v1169h-59z" />
<glyph unicode="g" horiz-adv-x="618" d="M68 291v756q0 123 44.5 179t137.5 56q133 0 190 -123q0 39 4 109h95v-1334q0 -239 -228 -239q-125 0 -176 59t-51 180v52h100v-56q0 -137 125 -137q123 0 123 137v232q-25 -48 -72 -75.5t-108 -27.5q-98 0 -141 53t-43 179zM176 291q0 -68 23.5 -96.5t87.5 -28.5 q46 0 86.5 29t58.5 81v779q-18 54 -57 82t-88 28q-62 0 -86.5 -30t-24.5 -88v-756z" />
<glyph unicode="h" horiz-adv-x="618" d="M80 0v1686h110v-508q30 51 78.5 80.5t108.5 29.5q88 0 128 -54.5t40 -178.5v-1055h-111v1049q0 72 -23 101.5t-79 29.5q-44 0 -84 -28t-58 -79v-1073h-110z" />
<glyph unicode="i" horiz-adv-x="278" d="M84 0v1268h111v-1268h-111zM84 1430v256h113v-256h-113z" />
<glyph unicode="j" horiz-adv-x="315" d="M-82 -176q33 -8 74 -8q127 0 127 157v1295h110v-1295q0 -139 -58.5 -203.5t-178.5 -64.5q-43 0 -74 8v111zM119 1430v256h112v-256h-112z" />
<glyph unicode="k" horiz-adv-x="616" d="M80 0v1686h108v-971l279 553h121l-295 -568l301 -700h-123l-283 659v-659h-108z" />
<glyph unicode="l" horiz-adv-x="270" d="M80 0v1686h110v-1686h-110z" />
<glyph unicode="m" horiz-adv-x="892" d="M80 0v1268h94q4 -70 4 -107q27 58 72.5 92.5t99.5 34.5q61 0 95 -30t44 -95q27 58 72.5 91.5t104.5 33.5q79 0 116 -54.5t37 -170.5v-1063h-110v1063q0 62 -19.5 89.5t-66.5 27.5q-37 0 -68 -27.5t-51 -81.5v-1071h-111v1063q0 62 -19.5 89.5t-66.5 27.5q-37 0 -68 -27.5 t-49 -81.5v-1071h-110z" />
<glyph unicode="n" horiz-adv-x="618" d="M80 0v1268h94q4 -70 4 -109q30 61 81 95t116 34q87 0 128.5 -55.5t41.5 -177.5v-1055h-111v1049q0 72 -23 101.5t-79 29.5q-44 0 -84 -28t-58 -79v-1073h-110z" />
<glyph unicode="o" horiz-adv-x="593" d="M68 233v801q0 254 229 254q114 0 171.5 -65t57.5 -189v-801q0 -251 -229 -251t-229 251zM176 231q0 -71 25.5 -104t95.5 -33t95.5 34t25.5 110v796q0 71 -26 105.5t-95 34.5t-95 -34.5t-26 -105.5v-803z" />
<glyph unicode="p" horiz-adv-x="618" d="M80 -285v1553h92q6 -50 6 -109q50 123 191 123q93 0 137.5 -56t44.5 -179v-834q0 -127 -43 -179t-143 -52q-58 0 -103.5 27t-71.5 73v-367h-110zM190 203q18 -53 57.5 -82t84.5 -29q58 0 83 30t25 101v809q0 74 -25 103.5t-83 29.5q-45 0 -84.5 -28.5t-57.5 -81.5v-852z " />
<glyph unicode="q" horiz-adv-x="618" d="M68 213v834q0 123 44.5 179t137.5 56q68 0 116.5 -34.5t73.5 -88.5q0 57 6 109h93v-1553h-111v367q-26 -46 -71 -73t-103 -27q-100 0 -143 52t-43 179zM178 223q0 -71 25.5 -101t83.5 -30q45 0 84 29t57 82v854q-18 53 -57 81.5t-84 28.5q-58 0 -83.5 -30.5t-25.5 -102.5 v-811z" />
<glyph unicode="r" horiz-adv-x="425" d="M80 0v1268h94q4 -70 4 -105q56 117 170 117q30 0 47 -10v-123q-20 14 -61 14q-94 0 -144 -98v-1063h-110z" />
<glyph unicode="s" horiz-adv-x="569" d="M59 213v211h101v-209q0 -57 32 -91t89 -34q60 0 88 31t28 94v156q0 53 -9.5 81.5t-45.5 67.5q-26 29 -105 92t-100 84q-46 46 -62 90.5t-16 122.5v144q0 123 55 179t167 56q124 0 172.5 -54.5t48.5 -180.5v-215h-101v215q0 57 -30 91t-86 34q-117 0 -117 -125v-160 q0 -49 7.5 -73.5t37.5 -51.5q26 -23 97.5 -76.5t109.5 -91.5q52 -52 70 -104t18 -140v-149q0 -225 -229 -225q-220 0 -220 231z" />
<glyph unicode="t" horiz-adv-x="393" d="M25 1169v99h59v401h111v-401h167v-99h-167v-925q0 -90 31 -128t114 -38q19 0 27 2v-84q-17 -14 -68 -14q-107 0 -161 68.5t-54 193.5v925h-59z" />
<glyph unicode="u" horiz-adv-x="614" d="M74 207v1061h110v-1045q0 -72 22.5 -100.5t76.5 -28.5q45 0 83.5 26.5t57.5 78.5v1069h111v-1268h-97q-2 35 -2 106q-62 -120 -194 -120q-87 0 -127.5 52.5t-40.5 168.5z" />
<glyph unicode="v" horiz-adv-x="565" d="M27 1268h110l142 -998l151 998h107l-203 -1268h-113z" />
<glyph unicode="w" horiz-adv-x="849" d="M31 1268h106l94 -1055l134 1055h116l121 -1055l109 1055h106l-147 -1268h-140l-108 1016l-123 -1016h-137z" />
<glyph unicode="x" horiz-adv-x="579" d="M18 0l199 672l-174 596h117l131 -498l133 498h111l-175 -594l201 -674h-117l-157 588l-156 -588h-113z" />
<glyph unicode="y" horiz-adv-x="565" d="M27 1268h116l136 -1020l149 1020h109l-213 -1346q-19 -113 -63 -165t-144 -52q-38 0 -74 12v111q37 -12 70 -12q73 0 96 123l12 75z" />
<glyph unicode="z" horiz-adv-x="524" d="M55 0v102l310 1057h-306v109h412v-103l-305 -1052h303v-113h-414z" />
<glyph unicode="{" horiz-adv-x="512" d="M37 842l147 196q18 24 23.5 41.5t5.5 57.5v458q0 127 56 190.5t186 63.5h16v-90h-14q-84 0 -119 -37.5t-35 -124.5v-430q0 -70 -10 -107t-37 -73l-111 -145l111 -146q26 -35 36.5 -74.5t10.5 -105.5v-430q0 -87 35 -123.5t119 -36.5h14v-90h-16q-131 0 -186.5 62 t-55.5 188v463q0 37 -5.5 55.5t-23.5 42.5z" />
<glyph unicode="|" horiz-adv-x="378" d="M143 -164v2013h90v-2013h-90z" />
<glyph unicode="}" horiz-adv-x="512" d="M37 -74h14q84 0 119 36.5t35 123.5v430q0 66 10.5 105.5t36.5 74.5l110 146l-110 145q-27 36 -37 73t-10 107v430q0 87 -35 124.5t-119 37.5h-14v90h16q130 0 186 -63.5t56 -190.5v-458q0 -40 5.5 -57.5t23.5 -41.5l147 -196l-147 -195q-18 -24 -23.5 -42.5t-5.5 -55.5 v-463q0 -126 -55.5 -188t-186.5 -62h-16v90z" />
<glyph unicode="~" horiz-adv-x="942" d="M80 764v115q71 86 196 86q49 0 104 -17.5t95 -38t89.5 -38t88.5 -17.5q124 0 211 107v-113q-80 -86 -211 -86q-57 0 -124.5 27.5t-132 55t-113.5 27.5q-123 0 -203 -108z" />
<glyph unicode="&#xa1;" horiz-adv-x="303" d="M86 0v565l27 795h80l24 -793v-567h-131zM88 1462v224h127v-224h-127z" />
<glyph unicode="&#xa2;" horiz-adv-x="575" d="M68 436v783q0 113 49 180.5t147 77.5v209h64v-209q184 -20 184 -256v-277h-90v279q0 120 -94 141v-1071q96 15 96 141v277h92v-279q0 -110 -46.5 -176t-141.5 -76v-180h-64v178q-97 10 -146.5 78t-49.5 180zM166 436q0 -128 98 -143v1071q-98 -21 -98 -141v-787z" />
<glyph unicode="&#xa3;" horiz-adv-x="583" d="M45 -18v110q44 71 107 80q14 161 14 348v447h-115v94h115v317q0 160 62 243t180 83q56 0 96 -12v-115q-31 14 -74 14q-75 0 -116.5 -55.5t-41.5 -155.5v-319h232v-94h-232v-447q0 -123 -6.5 -197.5t-23.5 -164.5q14 -3 74.5 -36.5t95.5 -33.5q40 0 67 16.5t51 57.5h9 v-113q-29 -36 -62 -50.5t-82 -14.5q-45 0 -116 42t-103 42q-70 0 -123 -86h-8z" />
<glyph unicode="&#xa4;" horiz-adv-x="970" d="M37 418l133 133q-88 106 -88 250q0 135 88 250l-131 129l65 67l129 -133q107 90 250 90q140 0 252 -92l127 135l68 -67l-133 -129q90 -114 90 -250q0 -139 -90 -250l135 -133l-68 -68l-131 137q-118 -90 -250 -90q-139 0 -247 90l-134 -137zM182 801q0 -126 87.5 -213.5 t213.5 -87.5q127 0 215 87.5t88 213.5q0 125 -88 213t-215 88q-126 0 -213.5 -88t-87.5 -213z" />
<glyph unicode="&#xa5;" horiz-adv-x="692" d="M29 1686h133l184 -717l191 717h125l-265 -916v-145h246v-103h-246v-219h246v-102h-246v-201h-114v201h-244v102h244v219h-244v103h244v147z" />
<glyph unicode="&#xa6;" horiz-adv-x="378" d="M143 -164v846h90v-846h-90zM143 1004v845h90v-845h-90z" />
<glyph unicode="&#xa7;" horiz-adv-x="585" d="M55 668v190q0 154 109 201q-62 48 -81.5 96.5t-19.5 128.5v199q0 221 230 221q120 0 170.5 -53t50.5 -168v-244h-100v213q0 76 -25 115t-94 39q-64 0 -93.5 -29t-29.5 -94v-197q0 -44 8 -69t31 -48q34 -37 119 -100.5t123 -103.5q39 -44 53 -84.5t14 -128.5v-191 q0 -157 -108 -201q63 -59 81.5 -100.5t18.5 -124.5v-198q0 -222 -229 -222q-120 0 -171 53.5t-51 168.5v243h101v-213q0 -76 25 -114.5t94 -38.5q64 0 93 29t29 94v196q0 44 -7.5 68.5t-30.5 48.5q-33 33 -117.5 98t-124.5 107q-40 44 -54 83.5t-14 129.5zM164 668 q0 -61 7.5 -88.5t31.5 -51.5q23 -25 108 -92q53 6 77 36.5t24 88.5v191q0 59 -7.5 87t-31.5 52q-16 16 -109 90q-100 -8 -100 -123v-190z" />
<glyph unicode="&#xa8;" d="M80 1368v256h113v-256h-113zM381 1368v256h113v-256h-113z" />
<glyph unicode="&#xaa;" horiz-adv-x="442" d="M88 715v102q0 106 68 158q27 19 110 57v152q0 32 -11.5 46.5t-39.5 14.5t-38.5 -14.5t-10.5 -46.5v-146h-70v148q0 137 121 137q123 0 123 -137v-492q0 -64 6 -80h-70q-6 15 -6 41q-26 -51 -82 -51q-100 0 -100 111zM164 737q0 -57 51 -57q39 0 51 43v248 q-64 -23 -83 -57.5t-19 -102.5v-74z" />
<glyph unicode="&#xab;" horiz-adv-x="802" d="M43 627v112l315 244v-109l-254 -190l254 -197v-112zM444 627v112l316 244v-109l-254 -190l254 -197v-112z" />
<glyph unicode="&#xac;" horiz-adv-x="841" d="M45 829v117h717v-946h-115v829h-602z" />
<glyph unicode="&#xad;" horiz-adv-x="374" d="M31 803v94h317v-94h-317z" />
<glyph unicode="&#xaf;" horiz-adv-x="622" d="M80 1446v96h463v-96h-463z" />
<glyph unicode="&#xb0;" horiz-adv-x="622" d="M68 1415q0 123 62.5 199t180.5 76q117 0 180.5 -76.5t63.5 -198.5t-63 -195t-181 -73q-119 0 -181 72.5t-62 195.5zM141 1415q0 -194 168 -194t168 194q0 95 -42 147t-126 52t-126 -52t-42 -147z" />
<glyph unicode="&#xb1;" horiz-adv-x="940" d="M80 281v92h782v-92h-782zM80 813v92h346v344h92v-344h344v-92h-344v-346h-92v346h-346z" />
<glyph unicode="&#xb2;" horiz-adv-x="376" d="M57 864v154q0 75 14 118.5t62 112.5q72 93 91.5 132t19.5 98v90q0 67 -56 67q-31 0 -42 -15t-11 -52v-146h-78v146q0 77 32 112t99 35q134 0 134 -147v-94q0 -65 -22.5 -118t-72.5 -116q-61 -81 -76.5 -119t-15.5 -104v-78h187v-76h-265z" />
<glyph unicode="&#xb3;" horiz-adv-x="378" d="M57 997v166h78v-166q0 -65 53 -65q56 0 56 65v193q0 37 -11 52t-45 15h-41v72h46q30 0 40.5 15.5t10.5 52.5v174q0 36 -12 50.5t-44 14.5q-30 0 -41.5 -14.5t-11.5 -50.5v-150h-76v150q0 77 31 111t98 34q68 0 98.5 -34.5t30.5 -112.5v-180q0 -76 -59 -97q61 -13 61 -94 v-201q0 -68 -32.5 -105.5t-98.5 -37.5q-65 0 -98 37.5t-33 105.5z" />
<glyph unicode="&#xb4;" horiz-adv-x="536" d="M80 1343l233 330h144l-271 -330h-106z" />
<glyph unicode="&#xb6;" horiz-adv-x="847" d="M39 1458q0 102 49.5 165t153.5 63h565v-117h-119v-1843h-102v1843h-199v-1628q0 -108 -51 -174t-146 -66q-45 0 -86 14v88q34 -10 58 -10q63 0 92 35t29 113v1300h-52q-99 0 -145.5 58.5t-46.5 158.5zM123 1427q0 -135 106 -135h54v277h-54q-54 0 -80 -40t-26 -102z" />
<glyph unicode="&#xb7;" horiz-adv-x="249" d="M68 717v256h114v-256h-114z" />
<glyph unicode="&#xb8;" horiz-adv-x="256" d="M80 -41h96v-186q0 -42 -16 -60t-56 -18h-10v45h6q23 0 23 27v45h-43v147z" />
<glyph unicode="&#xb9;" horiz-adv-x="241" d="M47 1569v76h23q30 0 30 36v25h70v-842h-78v705h-45z" />
<glyph unicode="&#xba;" horiz-adv-x="448" d="M96 743v441q0 139 129 139q127 0 127 -139v-441q0 -139 -127 -139q-129 0 -129 139zM172 743q0 -31 11 -45t42 -14q30 0 42 14.5t12 46.5v437q0 31 -12 46t-42 15q-31 0 -42 -15t-11 -46v-439z" />
<glyph unicode="&#xbb;" horiz-adv-x="802" d="M43 375v112l254 197l-254 190v109l315 -244v-112zM444 375v112l254 197l-254 190v109l316 -244v-112z" />
<glyph unicode="&#xbc;" horiz-adv-x="972" d="M68 0l743 1686h88l-743 -1686h-88zM168 1569v76h22q31 0 31 36v25h70v-842h-78v705h-45zM590 152v67l188 602h74v-596h41v-73h-41v-172h-72v172h-190zM659 225h121l2 398z" />
<glyph unicode="&#xbd;" horiz-adv-x="974" d="M68 0l743 1686h88l-743 -1686h-88zM168 1569v76h22q31 0 31 36v25h70v-842h-78v705h-45zM647 -20v153q0 76 14 119.5t62 112.5q73 93 92 132t19 97v90q0 68 -56 68q-31 0 -42 -15.5t-11 -52.5v-145h-78v145q0 77 32 112t99 35q133 0 133 -147v-94q0 -65 -22.5 -118 t-71.5 -116q-61 -81 -76.5 -119t-15.5 -104v-78h186v-75h-264z" />
<glyph unicode="&#xbe;" horiz-adv-x="972" d="M68 0l743 1686h88l-743 -1686h-88zM102 997v166h78v-166q0 -65 53 -65q56 0 56 65v193q0 37 -11 52t-45 15h-40v72h45q30 0 40.5 15.5t10.5 52.5v174q0 36 -12 50.5t-44 14.5q-30 0 -41.5 -14.5t-11.5 -50.5v-150h-76v150q0 77 31 111t98 34q68 0 98.5 -34.5t30.5 -112.5 v-180q0 -76 -59 -97q62 -13 62 -94v-201q0 -68 -33 -105.5t-99 -37.5q-65 0 -98 37.5t-33 105.5zM549 152v67l188 602h74v-596h41v-73h-41v-172h-72v172h-190zM618 225h121l2 398z" />
<glyph unicode="&#xbf;" horiz-adv-x="610" d="M49 274v166q0 126 23 202t78 138q75 88 92.5 134.5t17.5 156.5v232h113v-230q0 -117 -24 -188t-89 -144q-58 -66 -74 -117.5t-16 -183.5v-168q0 -168 131 -168q139 0 139 166v297h117v-295q0 -150 -61 -220t-195 -70q-130 0 -191 70t-61 222zM258 1430v256h117v-256h-117 z" />
<glyph unicode="&#xc0;" horiz-adv-x="681" d="M29 0l245 1686h144l233 -1686h-123l-41 305h-297l-43 -305h-118zM51 2091h144l233 -330h-109zM207 418h264l-129 962z" />
<glyph unicode="&#xc1;" horiz-adv-x="681" d="M29 0l245 1686h144l233 -1686h-123l-41 305h-297l-43 -305h-118zM207 418h264l-129 962zM256 1761l233 330h144l-271 -330h-106z" />
<glyph unicode="&#xc2;" horiz-adv-x="681" d="M29 0l245 1686h144l233 -1686h-123l-41 305h-297l-43 -305h-118zM51 1761l234 330h127l227 -330h-109l-186 267l-188 -267h-105zM207 418h264l-129 962z" />
<glyph unicode="&#xc3;" horiz-adv-x="681" d="M29 0l245 1686h144l233 -1686h-123l-41 305h-297l-43 -305h-118zM100 1837v105q50 57 121 57q50 0 123.5 -36t118.5 -36q29 0 61.5 18t57.5 48v-101q-42 -57 -123 -57q-48 0 -122.5 36t-117.5 36q-31 0 -64 -18t-55 -52zM207 418h264l-129 962z" />
<glyph unicode="&#xc4;" horiz-adv-x="681" d="M29 0l245 1686h144l233 -1686h-123l-41 305h-297l-43 -305h-118zM135 1786v256h113v-256h-113zM207 418h264l-129 962zM436 1786v256h113v-256h-113z" />
<glyph unicode="&#xc5;" horiz-adv-x="681" d="M29 0l245 1686h144l233 -1686h-123l-41 305h-297l-43 -305h-118zM150 1927q0 75 48.5 119.5t143.5 44.5t146 -45t51 -119q0 -72 -51 -116t-146 -44t-143.5 44t-48.5 116zM207 418h264l-129 962zM217 1927q0 -100 125 -100t125 100q0 105 -125 105t-125 -105z" />
<glyph unicode="&#xc6;" horiz-adv-x="935" d="M29 0l243 1686h611v-123h-318v-643h234v-121h-234v-678h326v-121h-449v305h-252l-43 -305h-118zM207 418h235v1145h-73z" />
<glyph unicode="&#xc7;" horiz-adv-x="630" d="M68 266v1147q0 291 264 291q241 0 241 -287v-299h-112v297q0 88 -28.5 127t-100.5 39q-73 0 -107.5 -40.5t-34.5 -125.5v-1147q0 -166 142 -166q71 0 100 39t29 127v350h112v-348q0 -148 -58.5 -218t-182.5 -70q-264 0 -264 284zM279 -41h96v-186q0 -42 -16 -60t-56 -18 h-10v45h6q23 0 23 27v45h-43v147z" />
<glyph unicode="&#xc8;" d="M-4 2091h143l234 -330h-109zM80 0v1686h438v-123h-317v-643h233v-121h-233v-678h327v-121h-448z" />
<glyph unicode="&#xc9;" d="M80 0v1686h438v-123h-317v-643h233v-121h-233v-678h327v-121h-448zM201 1761l233 330h144l-271 -330h-106z" />
<glyph unicode="&#xca;" d="M6 1761l234 330h127l227 -330h-109l-186 267l-188 -267h-105zM80 0v1686h438v-123h-317v-643h233v-121h-233v-678h327v-121h-448z" />
<glyph unicode="&#xcb;" d="M80 0v1686h438v-123h-317v-643h233v-121h-233v-678h327v-121h-448zM100 1786v256h113v-256h-113zM401 1786v256h113v-256h-113z" />
<glyph unicode="&#xcc;" horiz-adv-x="288" d="M-145 2091h143l233 -330h-108zM84 0v1686h121v-1686h-121z" />
<glyph unicode="&#xcd;" horiz-adv-x="288" d="M59 1761l234 330h143l-270 -330h-107zM84 0v1686h121v-1686h-121z" />
<glyph unicode="&#xce;" horiz-adv-x="288" d="M-150 1761l234 330h127l227 -330h-108l-187 267l-188 -267h-105zM84 0v1686h121v-1686h-121z" />
<glyph unicode="&#xcf;" horiz-adv-x="288" d="M-61 1786v256h112v-256h-112zM84 0v1686h121v-1686h-121zM240 1786v256h112v-256h-112z" />
<glyph unicode="&#xd0;" horiz-adv-x="661" d="M25 799v121h51v766h258q127 0 193.5 -76t66.5 -213v-1110q0 -287 -260 -287h-258v799h-51zM197 121h137q139 0 139 166v1110q0 73 -33 119.5t-106 46.5h-137v-643h151v-121h-151v-678z" />
<glyph unicode="&#xd1;" horiz-adv-x="720" d="M76 0v1686h151l305 -1326v1326h113v-1686h-125l-334 1331v-1331h-110zM119 1837v105q50 57 121 57q50 0 123 -36t118 -36q29 0 61.5 18t57.5 48v-101q-42 -57 -123 -57q-48 0 -122 36t-117 36q-31 0 -64 -18t-55 -52z" />
<glyph unicode="&#xd2;" horiz-adv-x="655" d="M37 2091h143l234 -330h-109zM68 268v1149q0 287 260 287t260 -287v-1149q0 -286 -260 -286t-260 286zM188 268q0 -166 140 -166q139 0 139 166v1149q0 164 -139 164q-140 0 -140 -164v-1149z" />
<glyph unicode="&#xd3;" horiz-adv-x="655" d="M68 268v1149q0 287 260 287t260 -287v-1149q0 -286 -260 -286t-260 286zM188 268q0 -166 140 -166q139 0 139 166v1149q0 164 -139 164q-140 0 -140 -164v-1149zM242 1761l233 330h143l-270 -330h-106z" />
<glyph unicode="&#xd4;" horiz-adv-x="655" d="M35 1761l233 330h127l228 -330h-109l-186 267l-189 -267h-104zM68 268v1149q0 287 260 287t260 -287v-1149q0 -286 -260 -286t-260 286zM188 268q0 -166 140 -166q139 0 139 166v1149q0 164 -139 164q-140 0 -140 -164v-1149z" />
<glyph unicode="&#xd5;" horiz-adv-x="655" d="M68 268v1149q0 287 260 287t260 -287v-1149q0 -286 -260 -286t-260 286zM86 1837v105q50 57 121 57q50 0 123.5 -36t118.5 -36q62 0 118 66v-101q-42 -57 -123 -57q-48 0 -122 36t-117 36q-31 0 -64 -18t-55 -52zM188 268q0 -166 140 -166q139 0 139 166v1149 q0 164 -139 164q-140 0 -140 -164v-1149z" />
<glyph unicode="&#xd6;" horiz-adv-x="655" d="M68 268v1149q0 287 260 287t260 -287v-1149q0 -286 -260 -286t-260 286zM121 1786v256h112v-256h-112zM188 268q0 -166 140 -166q139 0 139 166v1149q0 164 -139 164q-140 0 -140 -164v-1149zM422 1786v256h113v-256h-113z" />
<glyph unicode="&#xd7;" horiz-adv-x="940" d="M162 614l244 246l-244 244l65 63l244 -241l244 241l65 -63l-243 -244l243 -246l-63 -65l-246 246l-246 -246z" />
<glyph unicode="&#xd8;" horiz-adv-x="655" d="M68 -193l55 259q-55 73 -55 202v1149q0 287 260 287q82 0 139 -31l45 205h76l-56 -258q56 -74 56 -203v-1149q0 -286 -260 -286q-79 0 -144 30l-43 -205h-73zM188 371l250 1161q-34 49 -110 49q-140 0 -140 -164v-1046zM215 154q34 -52 113 -52q139 0 139 166v1049z" />
<glyph unicode="&#xd9;" horiz-adv-x="665" d="M43 2091h143l234 -330h-109zM74 268v1418h121v-1418q0 -166 139 -166q137 0 137 166v1418h121v-1418q0 -286 -258 -286q-260 0 -260 286z" />
<glyph unicode="&#xda;" horiz-adv-x="665" d="M74 268v1418h121v-1418q0 -166 139 -166q137 0 137 166v1418h121v-1418q0 -286 -258 -286q-260 0 -260 286zM246 1761l233 330h144l-271 -330h-106z" />
<glyph unicode="&#xdb;" horiz-adv-x="665" d="M39 1761l233 330h127l228 -330h-109l-186 267l-189 -267h-104zM74 268v1418h121v-1418q0 -166 139 -166q137 0 137 166v1418h121v-1418q0 -286 -258 -286q-260 0 -260 286z" />
<glyph unicode="&#xdc;" horiz-adv-x="665" d="M74 268v1418h121v-1418q0 -166 139 -166q137 0 137 166v1418h121v-1418q0 -286 -258 -286q-260 0 -260 286zM125 1786v256h113v-256h-113zM426 1786v256h113v-256h-113z" />
<glyph unicode="&#xdd;" horiz-adv-x="675" d="M23 1686h129l186 -721l194 721h121l-258 -912v-774h-123v776zM252 1761l233 330h144l-271 -330h-106z" />
<glyph unicode="&#xde;" horiz-adv-x="667" d="M80 0v1686h121v-300h143q143 0 214 -74.5t71 -228.5v-518q0 -149 -71.5 -226t-211.5 -77h-145v-262h-121zM201 383h145q162 0 162 182v518q0 181 -164 181h-143v-881z" />
<glyph unicode="&#xdf;" horiz-adv-x="669" d="M80 0v1452q0 252 229 252q228 0 228 -252v-399q0 -63 -21.5 -100.5t-54.5 -49.5q64 -13 105.5 -68.5t41.5 -150.5v-442q0 -136 -53 -198t-178 -62q-54 0 -72 6v110q14 -6 64 -6q73 0 102 32.5t29 117.5v446q0 78 -33.5 109.5t-99.5 31.5h-86v107h55q46 0 69 24.5t23 92.5 v399q0 139 -119 139q-63 0 -92 -38.5t-29 -100.5v-1452h-108z" />
<glyph unicode="&#xe0;" horiz-adv-x="581" d="M0 1673h143l234 -330h-109zM51 182v187q0 53 9.5 98.5t24.5 79t41.5 64t52 51t65.5 42t72 35.5t81 33v266q0 72 -25 106t-89 34q-65 0 -91 -34.5t-26 -105.5v-268h-98v268q0 127 51.5 188.5t165.5 61.5q219 0 219 -250v-854q0 -133 10 -184h-100q-8 31 -8 84 q-56 -102 -162 -102q-193 0 -193 200zM160 223q0 -133 121 -133q94 0 116 105v487q-140 -49 -188.5 -117t-48.5 -203v-139z" />
<glyph unicode="&#xe1;" horiz-adv-x="581" d="M51 182v187q0 53 9.5 98.5t24.5 79t41.5 64t52 51t65.5 42t72 35.5t81 33v266q0 72 -25 106t-89 34q-65 0 -91 -34.5t-26 -105.5v-268h-98v268q0 127 51.5 188.5t165.5 61.5q219 0 219 -250v-854q0 -133 10 -184h-100q-8 31 -8 84q-56 -102 -162 -102q-193 0 -193 200z M160 223q0 -133 121 -133q94 0 116 105v487q-140 -49 -188.5 -117t-48.5 -203v-139zM205 1343l233 330h144l-271 -330h-106z" />
<glyph unicode="&#xe2;" horiz-adv-x="581" d="M-2 1343l233 330h127l228 -330h-109l-186 267l-189 -267h-104zM51 182v187q0 53 9.5 98.5t24.5 79t41.5 64t52 51t65.5 42t72 35.5t81 33v266q0 72 -25 106t-89 34q-65 0 -91 -34.5t-26 -105.5v-268h-98v268q0 127 51.5 188.5t165.5 61.5q219 0 219 -250v-854 q0 -133 10 -184h-100q-8 31 -8 84q-56 -102 -162 -102q-193 0 -193 200zM160 223q0 -133 121 -133q94 0 116 105v487q-140 -49 -188.5 -117t-48.5 -203v-139z" />
<glyph unicode="&#xe3;" horiz-adv-x="581" d="M51 182v187q0 53 9.5 98.5t24.5 79t41.5 64t52 51t65.5 42t72 35.5t81 33v266q0 72 -25 106t-89 34q-65 0 -91 -34.5t-26 -105.5v-268h-98v268q0 127 51.5 188.5t165.5 61.5q219 0 219 -250v-854q0 -133 10 -184h-100q-8 31 -8 84q-56 -102 -162 -102q-193 0 -193 200z M51 1419v105q50 57 121 57q50 0 123.5 -36t118.5 -36q62 0 118 66v-100q-43 -58 -122 -58q-48 0 -122.5 36t-117.5 36q-31 0 -64 -18t-55 -52zM160 223q0 -133 121 -133q94 0 116 105v487q-140 -49 -188.5 -117t-48.5 -203v-139z" />
<glyph unicode="&#xe4;" horiz-adv-x="581" d="M51 182v187q0 53 9.5 98.5t24.5 79t41.5 64t52 51t65.5 42t72 35.5t81 33v266q0 72 -25 106t-89 34q-65 0 -91 -34.5t-26 -105.5v-268h-98v268q0 127 51.5 188.5t165.5 61.5q219 0 219 -250v-854q0 -133 10 -184h-100q-8 31 -8 84q-56 -102 -162 -102q-193 0 -193 200z M84 1368v256h113v-256h-113zM160 223q0 -133 121 -133q94 0 116 105v487q-140 -49 -188.5 -117t-48.5 -203v-139zM385 1368v256h113v-256h-113z" />
<glyph unicode="&#xe5;" horiz-adv-x="581" d="M51 182v187q0 53 9.5 98.5t24.5 79t41.5 64t52 51t65.5 42t72 35.5t81 33v266q0 72 -25 106t-89 34q-65 0 -91 -34.5t-26 -105.5v-268h-98v268q0 127 51.5 188.5t165.5 61.5q219 0 219 -250v-854q0 -133 10 -184h-100q-8 31 -8 84q-56 -102 -162 -102q-193 0 -193 200z M96 1509q0 75 49 119.5t144 44.5t145.5 -44.5t50.5 -119.5q0 -72 -50.5 -115.5t-145.5 -43.5t-144 43.5t-49 115.5zM160 223q0 -133 121 -133q94 0 116 105v487q-140 -49 -188.5 -117t-48.5 -203v-139zM164 1509q0 -100 125 -100t125 100q0 105 -125 105t-125 -105z" />
<glyph unicode="&#xe6;" horiz-adv-x="907" d="M51 182v187q0 53 9.5 98.5t24.5 79t41.5 64t52 51t65.5 42t72 35.5t81 33v266q0 72 -25 106t-89 34q-65 0 -91 -34.5t-26 -105.5v-268h-98v268q0 127 51.5 188.5t165.5 61.5t170 -71q56 71 161 71q224 0 224 -260v-395h-336v-410q0 -129 112 -129q119 0 119 144v278h105 v-278q0 -256 -224 -256q-139 0 -188 104q-66 -104 -184 -104q-193 0 -193 200zM160 223q0 -133 121 -133q94 0 116 105v487q-140 -49 -188.5 -117t-48.5 -203v-139zM504 715h231v313q0 146 -119 146q-112 0 -112 -146v-313z" />
<glyph unicode="&#xe7;" horiz-adv-x="579" d="M68 240v786q0 122 57 192t170 70q111 0 164 -69.5t53 -190.5v-274h-100v276q0 68 -29.5 106t-87.5 38q-59 0 -89 -39t-30 -107v-788q0 -69 30 -107.5t89 -38.5q60 0 89.5 38t29.5 106v280h102v-282q0 -120 -54 -187t-167 -67q-114 0 -170.5 68.5t-56.5 189.5zM250 -41h96 v-186q0 -42 -16 -60t-56 -18h-10v45h6q23 0 23 27v45h-43v147z" />
<glyph unicode="&#xe8;" d="M-4 1673h143l234 -330h-109zM68 238v790q0 128 55.5 194t159.5 66q223 0 223 -260v-395h-336v-395q0 -144 113 -144q118 0 118 144v278h105v-278q0 -256 -223 -256q-215 0 -215 256zM170 715h231v313q0 146 -118 146q-113 0 -113 -146v-313z" />
<glyph unicode="&#xe9;" d="M68 238v790q0 128 55.5 194t159.5 66q223 0 223 -260v-395h-336v-395q0 -144 113 -144q118 0 118 144v278h105v-278q0 -256 -223 -256q-215 0 -215 256zM170 715h231v313q0 146 -118 146q-113 0 -113 -146v-313zM201 1343l233 330h144l-271 -330h-106z" />
<glyph unicode="&#xea;" d="M-6 1343l233 330h127l228 -330h-109l-186 267l-189 -267h-104zM68 238v790q0 128 55.5 194t159.5 66q223 0 223 -260v-395h-336v-395q0 -144 113 -144q118 0 118 144v278h105v-278q0 -256 -223 -256q-215 0 -215 256zM170 715h231v313q0 146 -118 146q-113 0 -113 -146 v-313z" />
<glyph unicode="&#xeb;" d="M68 238v790q0 128 55.5 194t159.5 66q223 0 223 -260v-395h-336v-395q0 -144 113 -144q118 0 118 144v278h105v-278q0 -256 -223 -256q-215 0 -215 256zM80 1368v256h113v-256h-113zM170 715h231v313q0 146 -118 146q-113 0 -113 -146v-313zM381 1368v256h113v-256h-113z " />
<glyph unicode="&#xec;" horiz-adv-x="323" d="M-106 1673h143l233 -330h-108zM129 0v1268h111v-1268h-111z" />
<glyph unicode="&#xed;" horiz-adv-x="323" d="M53 1343l234 330h143l-270 -330h-107zM84 0v1268h111v-1268h-111z" />
<glyph unicode="&#xee;" horiz-adv-x="450" d="M-68 1343l234 330h127l227 -330h-108l-187 267l-188 -267h-105zM170 0v1268h111v-1268h-111z" />
<glyph unicode="&#xef;" horiz-adv-x="331" d="M-41 1368v256h113v-256h-113zM111 0v1268h110v-1268h-110zM260 1368v256h113v-256h-113z" />
<glyph unicode="&#xf0;" horiz-adv-x="655" d="M68 274v541q0 131 60 190.5t175 59.5q133 0 172 -115v277q0 146 -39 225l-231 -289l-45 39l243 303q-64 76 -194 76v123q181 0 270 -105l92 115l45 -39l-100 -125q72 -127 72 -379v-897q0 -142 -65.5 -217t-194.5 -75q-128 0 -194 75t-66 217zM188 307q0 -205 140 -205 q137 0 137 168v480q-1 6 -3 27t-3 28t-4 26t-6 26.5t-8.5 22.5t-11.5 22t-16 17t-21 14t-26.5 7.5t-33.5 3.5q-73 0 -108.5 -36t-35.5 -113v-488z" />
<glyph unicode="&#xf1;" horiz-adv-x="618" d="M70 1419v105q50 57 120 57q50 0 123.5 -36t118.5 -36q29 0 61.5 18t57.5 48v-100q-43 -58 -123 -58q-48 0 -122.5 36t-117.5 36q-31 0 -63.5 -18t-54.5 -52zM80 0v1268h94q4 -70 4 -109q30 61 81 95t116 34q87 0 128.5 -55.5t41.5 -177.5v-1055h-111v1049q0 72 -23 101.5 t-79 29.5q-44 0 -84 -28t-58 -79v-1073h-110z" />
<glyph unicode="&#xf2;" horiz-adv-x="593" d="M6 1673h144l233 -330h-109zM68 233v801q0 254 229 254q114 0 171.5 -65t57.5 -189v-801q0 -251 -229 -251t-229 251zM176 231q0 -71 25.5 -104t95.5 -33t95.5 34t25.5 110v796q0 71 -26 105.5t-95 34.5t-95 -34.5t-26 -105.5v-803z" />
<glyph unicode="&#xf3;" horiz-adv-x="593" d="M68 233v801q0 254 229 254q114 0 171.5 -65t57.5 -189v-801q0 -251 -229 -251t-229 251zM176 231q0 -71 25.5 -104t95.5 -33t95.5 34t25.5 110v796q0 71 -26 105.5t-95 34.5t-95 -34.5t-26 -105.5v-803zM211 1343l233 330h144l-271 -330h-106z" />
<glyph unicode="&#xf4;" horiz-adv-x="593" d="M4 1343l234 330h127l227 -330h-109l-186 267l-188 -267h-105zM68 233v801q0 254 229 254q114 0 171.5 -65t57.5 -189v-801q0 -251 -229 -251t-229 251zM176 231q0 -71 25.5 -104t95.5 -33t95.5 34t25.5 110v796q0 71 -26 105.5t-95 34.5t-95 -34.5t-26 -105.5v-803z" />
<glyph unicode="&#xf5;" horiz-adv-x="593" d="M57 1419v105q50 57 121 57q50 0 123.5 -36t118.5 -36q29 0 61.5 18t57.5 48v-100q-43 -58 -123 -58q-48 0 -122.5 36t-117.5 36q-31 0 -64 -18t-55 -52zM68 233v801q0 254 229 254q114 0 171.5 -65t57.5 -189v-801q0 -251 -229 -251t-229 251zM176 231q0 -71 25.5 -104 t95.5 -33t95.5 34t25.5 110v796q0 71 -26 105.5t-95 34.5t-95 -34.5t-26 -105.5v-803z" />
<glyph unicode="&#xf6;" horiz-adv-x="593" d="M68 233v801q0 254 229 254q114 0 171.5 -65t57.5 -189v-801q0 -251 -229 -251t-229 251zM90 1368v256h113v-256h-113zM176 231q0 -71 25.5 -104t95.5 -33t95.5 34t25.5 110v796q0 71 -26 105.5t-95 34.5t-95 -34.5t-26 -105.5v-803zM391 1368v256h113v-256h-113z" />
<glyph unicode="&#xf7;" horiz-adv-x="940" d="M80 813v92h782v-92h-782zM412 414v256h114v-256h-114zM412 1049v256h114v-256h-114z" />
<glyph unicode="&#xf8;" horiz-adv-x="593" d="M68 -193l55 240q-55 64 -55 186v801q0 254 229 254q59 0 111 -22l45 194h73l-55 -239q55 -64 55 -187v-801q0 -251 -229 -251q-61 0 -111 20l-45 -195h-73zM176 270l205 879q-28 25 -84 25q-69 0 -95 -34.5t-26 -105.5v-764zM213 115q27 -21 84 -21q70 0 95.5 34 t25.5 110v755z" />
<glyph unicode="&#xf9;" horiz-adv-x="614" d="M16 1673h144l233 -330h-108zM74 207v1061h110v-1045q0 -72 22.5 -100.5t76.5 -28.5q45 0 83.5 26.5t57.5 78.5v1069h111v-1268h-97q-2 35 -2 106q-62 -120 -194 -120q-87 0 -127.5 52.5t-40.5 168.5z" />
<glyph unicode="&#xfa;" horiz-adv-x="614" d="M74 207v1061h110v-1045q0 -72 22.5 -100.5t76.5 -28.5q45 0 83.5 26.5t57.5 78.5v1069h111v-1268h-97q-2 35 -2 106q-62 -120 -194 -120q-87 0 -127.5 52.5t-40.5 168.5zM221 1343l234 330h143l-270 -330h-107z" />
<glyph unicode="&#xfb;" horiz-adv-x="614" d="M14 1343l234 330h127l227 -330h-108l-187 267l-188 -267h-105zM74 207v1061h110v-1045q0 -72 22.5 -100.5t76.5 -28.5q45 0 83.5 26.5t57.5 78.5v1069h111v-1268h-97q-2 35 -2 106q-62 -120 -194 -120q-87 0 -127.5 52.5t-40.5 168.5z" />
<glyph unicode="&#xfc;" horiz-adv-x="614" d="M74 207v1061h110v-1045q0 -72 22.5 -100.5t76.5 -28.5q45 0 83.5 26.5t57.5 78.5v1069h111v-1268h-97q-2 35 -2 106q-62 -120 -194 -120q-87 0 -127.5 52.5t-40.5 168.5zM100 1368v256h113v-256h-113zM401 1368v256h113v-256h-113z" />
<glyph unicode="&#xfd;" horiz-adv-x="565" d="M27 1268h116l136 -1020l149 1020h109l-213 -1346q-19 -113 -63 -165t-144 -52q-38 0 -74 12v111q37 -12 70 -12q73 0 96 123l12 75zM197 1343l233 330h143l-270 -330h-106z" />
<glyph unicode="&#xfe;" horiz-adv-x="618" d="M80 -285v1971h110v-500q26 46 71.5 74t103.5 28q99 0 142.5 -53t43.5 -180v-842q0 -127 -43 -179t-143 -52q-58 0 -103.5 27t-71.5 73v-367h-110zM190 205q18 -53 57.5 -81t84.5 -28q58 0 83 29.5t25 101.5v813q0 73 -25 103.5t-83 30.5q-45 0 -84.5 -29t-57.5 -82v-858z " />
<glyph unicode="&#xff;" horiz-adv-x="565" d="M27 1268h116l136 -1020l149 1020h109l-213 -1346q-19 -113 -63 -165t-144 -52q-38 0 -74 12v111q37 -12 70 -12q73 0 96 123l12 75zM76 1368v256h112v-256h-112zM377 1368v256h112v-256h-112z" />
<glyph unicode="&#x152;" horiz-adv-x="899" d="M68 268v1149q0 287 260 287q63 0 110 -18h406v-123h-318v-643h234v-121h-234v-678h328v-121h-414q-56 -18 -112 -18q-260 0 -260 286zM188 268q0 -166 140 -166q46 0 78 13v1454q-30 12 -78 12q-140 0 -140 -164v-1149z" />
<glyph unicode="&#x153;" horiz-adv-x="929" d="M68 233v801q0 254 229 254q119 0 178 -74q56 74 164 74q223 0 223 -260v-395h-336v-395q0 -144 113 -144q119 0 119 144v278h104v-278q0 -256 -223 -256q-115 0 -166 69q-57 -69 -176 -69q-229 0 -229 251zM176 231q0 -71 25.5 -104t95.5 -33t95.5 34t25.5 110v796 q0 71 -26 105.5t-95 34.5t-95 -34.5t-26 -105.5v-803zM526 715h232v313q0 146 -119 146q-113 0 -113 -146v-313z" />
<glyph unicode="&#x178;" horiz-adv-x="675" d="M23 1686h129l186 -721l194 721h121l-258 -912v-774h-123v776zM131 1786v256h113v-256h-113zM432 1786v256h113v-256h-113z" />
<glyph unicode="&#x2c6;" horiz-adv-x="784" d="M98 1343l234 330h127l227 -330h-108l-187 267l-188 -267h-105z" />
<glyph unicode="&#x2dc;" horiz-adv-x="641" d="M80 1419v105q50 57 121 57q50 0 123 -36t118 -36q29 0 61.5 18t57.5 48v-100q-43 -58 -123 -58q-48 0 -122 36t-117 36q-31 0 -64 -18t-55 -52z" />
<glyph unicode="&#x2000;" horiz-adv-x="1045" />
<glyph unicode="&#x2001;" horiz-adv-x="2091" />
<glyph unicode="&#x2002;" horiz-adv-x="1045" />
<glyph unicode="&#x2003;" horiz-adv-x="2091" />
<glyph unicode="&#x2004;" horiz-adv-x="697" />
<glyph unicode="&#x2005;" horiz-adv-x="522" />
<glyph unicode="&#x2006;" horiz-adv-x="348" />
<glyph unicode="&#x2007;" horiz-adv-x="348" />
<glyph unicode="&#x2008;" horiz-adv-x="261" />
<glyph unicode="&#x2009;" horiz-adv-x="418" />
<glyph unicode="&#x200a;" horiz-adv-x="116" />
<glyph unicode="&#x2010;" horiz-adv-x="374" d="M31 803v94h317v-94h-317z" />
<glyph unicode="&#x2011;" horiz-adv-x="374" d="M31 803v94h317v-94h-317z" />
<glyph unicode="&#x2012;" horiz-adv-x="374" d="M31 803v94h317v-94h-317z" />
<glyph unicode="&#x2013;" horiz-adv-x="569" d="M31 803v94h510v-94h-510z" />
<glyph unicode="&#x2014;" horiz-adv-x="888" d="M31 803v94h831v-94h-831z" />
<glyph unicode="&#x2018;" horiz-adv-x="251" d="M68 1323v281q0 49 20 71.5t68 22.5h10v-56h-6q-29 0 -29 -32v-76h53v-211h-116z" />
<glyph unicode="&#x2019;" horiz-adv-x="251" d="M68 1475v211h116v-281q0 -49 -20 -71.5t-68 -22.5h-10v55h6q29 0 29 33v76h-53z" />
<glyph unicode="&#x201a;" horiz-adv-x="253" d="M68 45v211h116v-281q0 -49 -20 -71.5t-68 -22.5h-10v56h6q29 0 29 32v76h-53z" />
<glyph unicode="&#x201c;" horiz-adv-x="503" d="M68 1323v281q0 49 20 71.5t68 22.5h10v-56h-6q-29 0 -29 -32v-76h53v-211h-116zM319 1323v281q0 49 20.5 71.5t68.5 22.5h10v-56h-6q-29 0 -29 -32v-76h53v-211h-117z" />
<glyph unicode="&#x201d;" horiz-adv-x="503" d="M68 1475v211h116v-281q0 -49 -20 -71.5t-68 -22.5h-10v55h6q29 0 29 33v76h-53zM319 1475v211h117v-281q0 -49 -20 -71.5t-68 -22.5h-10v55h6q29 0 29 33v76h-54z" />
<glyph unicode="&#x201e;" horiz-adv-x="507" d="M68 45v211h116v-281q0 -49 -20 -71.5t-68 -22.5h-10v56h6q29 0 29 32v76h-53zM322 45v211h116v-281q0 -49 -20 -71.5t-68 -22.5h-10v56h6q29 0 29 32v76h-53z" />
<glyph unicode="&#x2022;" horiz-adv-x="428" d="M68 963q0 69 40 115t107 46q66 0 105.5 -46t39.5 -115q0 -71 -39.5 -117.5t-105.5 -46.5q-67 0 -107 46.5t-40 117.5z" />
<glyph unicode="&#x2026;" horiz-adv-x="1249" d="M68 0v256h114v-256h-114zM567 0v256h115v-256h-115zM1067 0v256h115v-256h-115z" />
<glyph unicode="&#x202f;" horiz-adv-x="418" />
<glyph unicode="&#x2039;" horiz-adv-x="401" d="M43 627v112l315 244v-109l-254 -190l254 -197v-112z" />
<glyph unicode="&#x203a;" horiz-adv-x="401" d="M43 375v112l254 197l-254 190v109l315 -244v-112z" />
<glyph unicode="&#x205f;" horiz-adv-x="522" />
<glyph unicode="&#x20ac;" horiz-adv-x="696" d="M25 618l14 95h78v291h-92l14 94h78v278q0 171 78 249.5t272 78.5q113 0 205 -10l-19 -123q-94 12 -182 12q-134 0 -182.5 -49.5t-48.5 -157.5v-278h342l-17 -94h-325v-291h284l-16 -95h-268v-352q0 -75 39.5 -120.5t107.5 -45.5q79 0 112 47.5t33 145.5v133h121v-158 q0 -286 -266 -286q-139 0 -204.5 71.5t-65.5 214.5v350h-92z" />
<glyph unicode="&#x2122;" horiz-adv-x="983" d="M59 1624v62h314v-62h-117v-717h-78v717h-119zM442 907v779h105l127 -639l123 639h106v-779h-72v604l-122 -604h-72l-123 604v-604h-72z" />
<glyph unicode="&#x25fc;" horiz-adv-x="1269" d="M0 0v1270h1270v-1270h-1270z" />
<glyph unicode="&#xfb01;" horiz-adv-x="671" d="M25 1169v99h59v176q0 133 43 192.5t149 59.5q50 0 91 -13v-96q-33 10 -62 10q-60 0 -85 -35t-25 -120v-174h167v-99h-167v-1169h-111v1169h-59zM477 0v1268h111v-1268h-111zM477 1430v256h113v-256h-113z" />
<glyph unicode="&#xfb02;" horiz-adv-x="663" d="M25 1169v99h59v176q0 133 43 192.5t149 59.5q50 0 91 -13v-96q-33 10 -62 10q-60 0 -85 -35t-25 -120v-174h167v-99h-167v-1169h-111v1169h-59zM473 0v1686h111v-1686h-111z" />
</font>
</defs>
</svg>
